SplineFontDB: 3.0
FontName: CarterOne
FullName: Carter One
FamilyName: Carter One
Weight: Book
Copyright: Copyright (c) 2011 by vernon adams. All rights reserved.
Version: 1.000
ItalicAngle: 0
UnderlinePosition: -103
UnderlineWidth: 102
Ascent: 1638
Descent: 410
sfntRevision: 0x00010000
LayerCount: 2
Layer: 0 1 "Back"  1
Layer: 1 1 "Fore"  0
XUID: [1021 759 1887733602 14178584]
FSType: 0
OS2Version: 2
OS2_WeightWidthSlopeOnly: 0
OS2_UseTypoMetrics: 1
CreationTime: 1302377126
ModificationTime: 1303473285
PfmFamily: 81
TTFWeight: 400
TTFWidth: 5
LineGap: 0
VLineGap: 0
Panose: 0 0 0 0 0 0 0 0 0 0
OS2TypoAscent: 1661
OS2TypoAOffset: 0
OS2TypoDescent: -486
OS2TypoDOffset: 0
OS2TypoLinegap: 0
OS2WinAscent: 1661
OS2WinAOffset: 0
OS2WinDescent: 486
OS2WinDOffset: 0
HheadAscent: 1661
HheadAOffset: 0
HheadDescent: -486
HheadDOffset: 0
OS2SubXSize: 1434
OS2SubYSize: 1331
OS2SubXOff: 0
OS2SubYOff: 287
OS2SupXSize: 1434
OS2SupYSize: 1331
OS2SupXOff: 0
OS2SupYOff: 977
OS2StrikeYSize: 102
OS2StrikeYPos: 512
OS2Vendor: 'newt'
OS2CodePages: 20000111.41000000
OS2UnicodeRanges: 800000ef.4800004b.14200000.00000000
Lookup: 258 0 0 "'kern' Horizontal Kerning in Latin lookup 0"  {"'kern' Horizontal Kerning in Latin lookup 0 per glyph data 0"  "'kern' Horizontal Kerning in Latin lookup 0 per glyph data 1"  "'kern' Horizontal Kerning in Latin lookup 0 per glyph data 2"  "'kern' Horizontal Kerning in Latin lookup 0 kerning class 3"  } ['kern' ('latn' <'dflt' > ) ]
MarkAttachClasses: 1
DEI: 91125
KernClass2: 35+ 37 "'kern' Horizontal Kerning in Latin lookup 0 kerning class 3" 
 50 A Agrave Aacute Acircumflex Atilde Adieresis Aring
 10 C Ccedilla
 5 D Eth
 43 E AE Egrave Eacute Ecircumflex Edieresis OE
 8 G Gbreve
 48 I Igrave Iacute Icircumflex Idieresis Idotaccent
 8 L Lslash
 8 N Ntilde
 51 O Ograve Oacute Ocircumflex Otilde Odieresis Oslash
 25 S Scedilla Scaron uni0218
 9 T uni021A
 37 U Ugrave Uacute Ucircumflex Udieresis
 18 Y Yacute Ydieresis
 8 Z Zcaron

StartChar: exclam
Encoding: 33 33 4
Width: 550
GlyphClass: 2
Flags: MW
LayerCount: 2
Fore
SplineSet
229 448 m 1,0,1
 218 448 218 448 218 458 c 2,2,-1
 208 1446 l 1,3,4
 210 1478 210 1478 215 1491 c 128,-1,5
 220 1504 220 1504 237 1508 c 0,6,7
 322 1528 322 1528 409 1552 c 0,8,9
 588 1602 588 1602 600.5 1602 c 128,-1,10
 613 1602 613 1602 613 1596.5 c 128,-1,11
 613 1591 613 1591 609 1567.5 c 128,-1,12
 605 1544 605 1544 598.5 1507 c 128,-1,13
 592 1470 592 1470 584 1424 c 0,14,15
 576 1376 576 1376 567 1330 c 0,16,17
 539 1184 539 1184 523 1112 c 0,18,19
 458 807 458 807 415 544 c 1,20,21
 413 511 413 511 408.5 498 c 128,-1,22
 404 485 404 485 376 480 c 0,23,24
 302 467 302 467 229 448 c 1,0,1
83 -68 m 1,25,-1
 72 -58 l 1,26,-1
 94 216 l 2,27,28
 96 248 96 248 100.5 261 c 128,-1,29
 105 274 105 274 123 278 c 0,30,31
 208 293 208 293 295 312 c 0,32,33
 478 352 478 352 488.5 352 c 128,-1,34
 499 352 499 352 499 342 c 0,35,36
 491 227 491 227 491 225.5 c 128,-1,37
 491 224 491 224 490.5 222.5 c 128,-1,38
 490 221 490 221 489.5 216.5 c 128,-1,39
 489 212 489 212 488 198 c 0,40,41
 478 47 478 47 473 33.5 c 128,-1,42
 468 20 468 20 450 16 c 0,43,44
 365 -1 365 -1 272 -19.5 c 128,-1,45
 179 -38 179 -38 134 -53 c 128,-1,46
 89 -68 89 -68 83 -68 c 1,25,-1
EndSplineSet
Validated: 1
EndChar

StartChar: quotedbl
Encoding: 34 34 5
Width: 1101
GlyphClass: 2
Flags: MW
LayerCount: 2
Fore
SplineSet
221 721 m 2,0,1
 200 721 200 721 200 785 c 1,2,-1
 174 1387 l 1,3,-1
 174 1400 l 2,4,5
 174 1426 174 1426 180 1435.5 c 128,-1,6
 186 1445 186 1445 203 1448 c 1,7,8
 608 1450 l 2,9,10
 629 1450 629 1450 629 1426 c 2,11,-1
 629 1420 l 1,12,-1
 473 783 l 2,13,14
 469 767 469 767 466.5 755.5 c 128,-1,15
 464 744 464 744 460 737 c 0,16,17
 453 723 453 723 437 723 c 2,18,-1
 221 721 l 2,0,1
774 721 m 2,19,20
 753 721 753 721 753 785 c 1,21,-1
 727 1387 l 1,22,-1
 727 1400 l 2,23,24
 727 1426 727 1426 733 1435.5 c 128,-1,25
 739 1445 739 1445 756 1448 c 1,26,-1
 1161 1450 l 2,27,28
 1182 1450 1182 1450 1182 1426 c 2,29,-1
 1182 1420 l 1,30,-1
 1026 783 l 2,31,32
 1022 767 1022 767 1020 756 c 0,33,34
 1018 744 1018 744 1014 737 c 0,35,36
 1006 723 1006 723 990 723 c 2,37,-1
 774 721 l 2,19,20
EndSplineSet
Validated: 1
EndChar

StartChar: numbersign
Encoding: 35 35 6
Width: 1643
GlyphClass: 2
Flags: MW
LayerCount: 2
Fore
SplineSet
256 89 m 1,0,-1
 342 430 l 1,1,2
 276 431 276 431 230 431 c 128,-1,3
 184 431 184 431 156 433 c 0,4,5
 102 437 102 437 102 456 c 0,6,7
 102 486 102 486 151 566 c 128,-1,8
 200 646 200 646 218 672 c 1,9,10
 229 682 229 682 238 691 c 128,-1,11
 247 700 247 700 269 701 c 1,12,-1
 405 699 l 1,13,-1
 437 827 l 1,14,-1
 298 827 l 2,15,16
 179 827 179 827 179 852 c 0,17,18
 179 881 179 881 219.5 962 c 128,-1,19
 260 1043 260 1043 275 1068 c 1,20,21
 286 1078 286 1078 295 1087 c 128,-1,22
 304 1096 304 1096 326 1097 c 1,23,-1
 503 1094 l 1,24,25
 526 1190 526 1190 546.5 1284.5 c 128,-1,26
 567 1379 567 1379 581.5 1442 c 128,-1,27
 596 1505 596 1505 601 1516.5 c 128,-1,28
 606 1528 606 1528 620 1528 c 2,29,-1
 627 1528 l 1,30,31
 665 1516 665 1516 704.5 1502 c 128,-1,32
 744 1488 744 1488 784 1476 c 0,33,34
 885 1444 885 1444 914 1438.5 c 128,-1,35
 943 1433 943 1433 948.5 1429.5 c 128,-1,36
 954 1426 954 1426 954 1419 c 1,37,-1
 872 1089 l 1,38,-1
 1046 1086 l 1,39,40
 1068 1183 1068 1183 1090 1279.5 c 128,-1,41
 1112 1376 1112 1376 1126.5 1440.5 c 128,-1,42
 1141 1505 1141 1505 1146 1516.5 c 128,-1,43
 1151 1528 1151 1528 1165 1528 c 2,44,-1
 1172 1528 l 1,45,46
 1210 1516 1210 1516 1250 1502 c 0,47,48
 1287 1488 1287 1488 1328 1476 c 0,49,50
 1444 1441 1444 1441 1458 1438 c 0,51,52
 1488 1433 1488 1433 1493.5 1429.5 c 128,-1,53
 1499 1426 1499 1426 1499 1419 c 1,54,-1
 1417 1089 l 1,55,56
 1625 1118 1625 1118 1648.5 1118 c 128,-1,57
 1672 1118 1672 1118 1682 1113 c 128,-1,58
 1692 1108 1692 1108 1692 1096 c 0,59,60
 1691 1076 1691 1076 1632 959 c 2,61,-1
 1585 866 l 2,62,63
 1572 839 1572 839 1537.5 836 c 128,-1,64
 1503 833 1503 833 1472 833 c 2,65,-1
 1354 834 l 1,66,-1
 1321 698 l 1,67,68
 1472 722 1472 722 1508.5 722 c 128,-1,69
 1545 722 1545 722 1545 696 c 0,70,71
 1545 686 1545 686 1509 589.5 c 128,-1,72
 1473 493 1473 493 1462 464 c 128,-1,73
 1451 435 1451 435 1441.5 427.5 c 128,-1,74
 1432 420 1432 420 1403 420 c 2,75,-1
 1314 420 l 2,76,77
 1287 420 1287 420 1253 421 c 1,78,-1
 1150 5 l 2,79,80
 1146 -11 1146 -11 1145.5 -25 c 128,-1,81
 1145 -39 1145 -39 1131.5 -39 c 128,-1,82
 1118 -39 1118 -39 1103 -32 c 1,83,-1
 913 20 l 2,84,85
 905 23 905 23 886.5 28.5 c 128,-1,86
 868 34 868 34 849 42 c 0,87,88
 801 62 801 62 801 89 c 1,89,-1
 886 425 l 1,90,91
 799 425 799 425 709 427 c 1,92,-1
 605 5 l 2,93,94
 601 -11 601 -11 600.5 -25 c 128,-1,95
 600 -39 600 -39 586.5 -39 c 128,-1,96
 573 -39 573 -39 558 -32 c 1,97,-1
 368 20 l 2,98,99
 360 23 360 23 341.5 28.5 c 128,-1,100
 323 34 323 34 304 42 c 0,101,102
 256 62 256 62 256 89 c 1,0,-1
983 831 m 1,103,-1
 809 830 l 1,104,-1
 775 693 l 1,105,-1
 949 690 l 1,106,107
 967 769 967 769 983 831 c 1,103,-1
EndSplineSet
Validated: 1
EndChar

StartChar: dollar
Encoding: 36 36 7
Width: 993
GlyphClass: 2
Flags: MW
LayerCount: 2
Fore
SplineSet
803 1571 m 1,0,-1
 762 1367 l 1,1,2
 903 1357 903 1357 970 1348 c 1,3,-1
 997 1054 l 1,4,5
 839 1069 l 1,6,7
 836 1069 836 1069 834 1069 c 128,-1,8
 832 1069 832 1069 829 1069 c 0,9,10
 827 1069 827 1069 825 1069 c 128,-1,11
 822.836734694 1069.02040816 822.836734694 1069.02040816 820.694294044 1069.02040816 c 0,12,13
 717.857142857 1069.02040816 717.857142857 1069.02040816 663 1022 c 0,14,15
 640 1002 640 1002 640 966.5 c 128,-1,16
 640 931 640 931 664.5 899.5 c 128,-1,17
 689 868 689 868 726 837.5 c 128,-1,18
 763 807 763 807 806 774.5 c 128,-1,19
 849 742 849 742 886 702 c 0,20,21
 972 609 972 609 972 495 c 0,22,23
 972 340 972 340 794 226 c 0,24,25
 742 192 742 192 683 167 c 1,26,27
 682 150 682 150 679.5 117 c 128,-1,28
 677 84 677 84 674 44 c 0,29,30
 666 -64 666 -64 663 -120 c 1,31,-1
 584 -118 l 1,32,-1
 346 -129 l 1,33,-1
 357 62 l 1,34,-1
 278 59 l 1,35,36
 201 55 201 55 169.5 55 c 128,-1,37
 138 55 138 55 123 55 c 1,38,39
 138 133 138 133 156 206.5 c 128,-1,40
 174 280 174 280 191 358 c 1,41,42
 331 371 331 371 403.5 403.5 c 128,-1,43
 476 436 476 436 504 463 c 128,-1,44
 532 490 532 490 532 514 c 128,-1,45
 532 538 532 538 524.5 558.5 c 128,-1,46
 517 579 517 579 494 605 c 0,47,48
 443 663 443 663 335 729.5 c 128,-1,49
 227 796 227 796 189 859 c 128,-1,50
 151 922 151 922 151 984.5 c 128,-1,51
 151 1047 151 1047 178 1098 c 0,52,53
 206 1150 206 1150 248 1194 c 0,54,55
 338 1288 338 1288 451 1309 c 1,56,-1
 482 1500 l 2,57,58
 484 1513 484 1513 484 1522 c 0,59,60
 485 1530 485 1530 486 1536 c 0,61,62
 488 1547 488 1547 501 1549 c 0,63,64
 695 1563 695 1563 794 1578 c 1,65,66
 803 1578 803 1578 803 1571 c 1,0,-1
EndSplineSet
Validated: 1
EndChar

StartChar: percent
Encoding: 37 37 8
Width: 2193
GlyphClass: 2
Flags: MW
LayerCount: 2
Fore
SplineSet
1066.5 876 m 128,-1,1
 1136 961 1136 961 1219 1062 c 128,-1,2
 1302 1163 1302 1163 1348.5 1220.5 c 128,-1,3
 1395 1278 1395 1278 1401 1285 c 128,-1,4
 1407 1292 1407 1292 1415.5 1292 c 128,-1,5
 1424 1292 1424 1292 1426 1291 c 0,6,7
 1547 1195 1547 1195 1585.5 1172.5 c 128,-1,8
 1624 1150 1624 1150 1636.5 1143.5 c 128,-1,9
 1649 1137 1649 1137 1649 1131 c 128,-1,10
 1649 1125 1649 1125 1646 1122 c 2,11,-1
 858 167 l 2,12,13
 850 157 850 157 848.5 152.5 c 128,-1,14
 847 148 847 148 840 148 c 128,-1,15
 833 148 833 148 826.5 149.5 c 128,-1,16
 820 151 820 151 809 153 c 1,17,18
 689 252 689 252 658.5 271 c 128,-1,19
 628 290 628 290 622 295 c 0,20,21
 614 302 614 302 613 328 c 1,22,23
 735 467 735 467 866 629 c 128,-1,0
 997 791 997 791 1066.5 876 c 128,-1,1
152 1129 m 0,24,25
 152 1226 152 1226 178.5 1311 c 128,-1,26
 205 1396 205 1396 258 1458 c 0,27,28
 373 1593 373 1593 576 1593 c 0,29,30
 577 1593 577 1593 579 1593 c 0,31,32
 580.398496241 1593.0075188 580.398496241 1593.0075188 581.792469897 1593.0075188 c 0,33,34
 765.796992481 1593.0075188 765.796992481 1593.0075188 871 1462 c 0,35,36
 965 1345 965 1345 965 1166 c 0,37,38
 965 954 965 954 850 832 c 0,39,40
 737 712 737 712 548 711 c 0,41,42
 372 711 372 711 262 824 c 0,43,44
 152 938 152 938 152 1129 c 0,24,25
415.5 1232 m 128,-1,46
 408 1189 408 1189 408 1148.5 c 128,-1,47
 408 1108 408 1108 414 1068 c 128,-1,48
 420 1028 420 1028 436 996 c 0,49,50
 473 923 473 923 553 922 c 0,51,52
 638 922 638 922 680 1005 c 0,53,54
 714 1070 714 1070 714 1169 c 0,55,56
 714 1306 714 1306 638 1368 c 0,57,58
 611 1390 611 1390 568 1390 c 0,59,60
 567 1390 567 1390 566 1390 c 0,61,62
 523 1389 523 1389 492 1367 c 128,-1,63
 461 1345 461 1345 442 1310 c 128,-1,45
 423 1275 423 1275 415.5 1232 c 128,-1,46
1363 366 m 0,64,65
 1363 463 1363 463 1390 548 c 0,66,67
 1416 634 1416 634 1469 696 c 0,68,69
 1584 830 1584 830 1787 830 c 0,70,71
 1976 830 1976 830 2082 698 c 0,72,73
 2176 581 2176 581 2176 403 c 0,74,75
 2176 190 2176 190 2061 68 c 0,76,77
 1948 -52 1948 -52 1759 -52 c 0,78,79
 1584 -52 1584 -52 1474 61 c 0,80,81
 1363 176 1363 176 1363 366 c 0,64,65
1626.5 469 m 128,-1,83
 1619 426 1619 426 1619 385.5 c 128,-1,84
 1619 345 1619 345 1625 305 c 0,85,86
 1632 264 1632 264 1648 232 c 0,87,88
 1685 159 1685 159 1764 159 c 0,89,90
 1849 159 1849 159 1892 242 c 0,91,92
 1925 305 1925 305 1925 400 c 0,93,94
 1925 406 1925 406 1925 406 c 0,95,96
 1925 408 1925 408 1925 410 c 0,97,98
 1925.01298701 411.74025974 1925.01298701 411.74025974 1925.01298701 413.468038455 c 0,99,100
 1925.01298701 544.779220779 1925.01298701 544.779220779 1850 604 c 0,101,102
 1822 626 1822 626 1778 626 c 128,-1,103
 1734 626 1734 626 1703 604 c 128,-1,104
 1672 582 1672 582 1653 547 c 128,-1,82
 1634 512 1634 512 1626.5 469 c 128,-1,83
EndSplineSet
Validated: 1
EndChar

StartChar: ampersand
Encoding: 38 38 9
Width: 1560
GlyphClass: 2
Flags: MW
LayerCount: 2
Fore
SplineSet
451 750 m 1,0,1
 328 914 328 914 328 1085 c 0,2,3
 328 1242 328 1242 468 1342 c 0,4,5
 616 1448 616 1448 869 1448 c 0,6,7
 975 1448 975 1448 1070 1384 c 0,8,9
 1190 1303 1190 1303 1190 1149 c 0,10,11
 1190 1054 1190 1054 1120 968 c 0,12,13
 1084 924 1084 924 1029.5 874.5 c 128,-1,14
 975 825 975 825 901 759 c 1,15,-1
 1139 568 l 1,16,17
 1170 540 1170 540 1183 541 c 1,18,19
 1189 551 1189 551 1205 551 c 1,20,-1
 1432 762 l 1,21,22
 1472 746 1472 746 1514 704 c 0,23,24
 1592 625 1592 625 1592 587 c 0,25,26
 1592 575 1592 575 1588 568 c 1,27,-1
 1407 377 l 1,28,-1
 1440 352 l 2,29,30
 1495 310 1495 310 1520 293 c 0,31,32
 1550 273 1550 273 1550 258.5 c 128,-1,33
 1550 244 1550 244 1538 223 c 128,-1,34
 1526 202 1526 202 1507.5 178 c 128,-1,35
 1489 154 1489 154 1466 128 c 0,36,37
 1444 102 1444 102 1422 80 c 0,38,39
 1365 23 1365 23 1360 18 c 0,40,41
 1342 2 1342 2 1332.5 2 c 128,-1,42
 1323 2 1323 2 1317 8 c 1,43,-1
 1116 131 l 1,44,45
 916 24 916 24 822 -5 c 0,46,47
 672.909774436 -51.9248120301 672.909774436 -51.9248120301 538.637910566 -51.9248120301 c 0,48,49
 446.857142857 -51.9248120301 446.857142857 -51.9248120301 362 -30 c 0,50,51
 194 14 194 14 118 143 c 0,52,53
 80 208 80 208 80 297 c 0,54,55
 80 371 80 371 93.5 408 c 128,-1,56
 107 445 107 445 130.5 477.5 c 128,-1,57
 154 510 154 510 195 550 c 0,58,59
 277 630 277 630 451 750 c 1,0,1
525 437.5 m 128,-1,61
 514 406 514 406 514 372.5 c 128,-1,62
 514 339 514 339 520 316.5 c 128,-1,63
 526 294 526 294 541 276 c 0,64,65
 575 233 575 233 649 233 c 0,66,67
 767 233 767 233 876 325 c 1,68,-1
 638 556 l 1,69,70
 581 525 581 525 558.5 497 c 128,-1,60
 536 469 536 469 525 437.5 c 128,-1,61
732 951 m 1,71,72
 877 1048 877 1048 877 1140 c 0,73,74
 877 1174 877 1174 854 1194 c 128,-1,75
 831 1214 831 1214 795 1214 c 128,-1,76
 759 1214 759 1214 735.5 1204 c 128,-1,77
 712 1194 712 1194 697 1178 c 0,78,79
 667 1145 667 1145 667 1101 c 0,80,81
 667 1010 667 1010 732 951 c 1,71,72
EndSplineSet
Validated: 1
EndChar

StartChar: quotesingle
Encoding: 39 39 10
Width: 548
GlyphClass: 2
Flags: MW
LayerCount: 2
Fore
SplineSet
221 720 m 2,0,1
 200 720 200 720 200 784 c 1,2,-1
 174 1386 l 1,3,-1
 174 1399 l 2,4,5
 174 1425 174 1425 180 1434.5 c 128,-1,6
 186 1444 186 1444 203 1447 c 1,7,8
 608 1449 l 2,9,10
 629 1449 629 1449 629 1425 c 2,11,-1
 629 1419 l 1,12,-1
 473 782 l 2,13,14
 469 766 469 766 466.5 754.5 c 128,-1,15
 464 743 464 743 460 736 c 0,16,17
 453 722 453 722 437 722 c 2,18,-1
 221 720 l 2,0,1
EndSplineSet
Validated: 1
EndChar

StartChar: parenleft
Encoding: 40 40 11
Width: 837
GlyphClass: 2
Flags: MW
LayerCount: 2
Fore
SplineSet
697 -200 m 1,0,1
 391 -150 391 -150 239 54 c 0,2,3
 100 240 100 240 100 522 c 0,4,5
 100 771 100 771 206 1003 c 0,6,7
 270 1144 270 1144 407 1272 c 0,8,9
 534 1390 534 1390 694 1454 c 0,10,11
 778 1488 778 1488 870 1497 c 1,12,13
 887 1497 887 1497 890 1467 c 2,14,-1
 893 1435 l 2,15,16
 909 1270 909 1270 909 1222 c 128,-1,17
 909 1174 909 1174 902 1168 c 128,-1,18
 895 1162 895 1162 879 1157 c 0,19,20
 726 1114 726 1114 621 934 c 0,21,22
 518 757 518 757 518 550 c 0,23,24
 518 318 518 318 646 202 c 0,25,26
 691 162 691 162 754 142 c 0,27,28
 774 137 774 137 774 109 c 2,29,-1
 774 101 l 2,30,31
 774 73 774 73 757 -1 c 0,32,33
 729 -121 729 -121 718 -181 c 0,34,35
 714 -200 714 -200 697 -200 c 1,0,1
EndSplineSet
Validated: 1
EndChar

StartChar: parenright
Encoding: 41 41 12
Width: 839
GlyphClass: 2
Flags: MW
LayerCount: 2
Fore
SplineSet
94 -181 m 2,0,-1
 85 39 l 1,1,-1
 85 93 l 1,2,3
 87 134 87 134 112 142 c 0,4,5
 266 188 266 188 350 350 c 0,6,7
 426 496 426 496 427 677 c 0,8,9
 427 851 427 851 355 983 c 0,10,11
 280 1120 280 1120 158 1157 c 0,12,13
 145 1161 145 1161 139 1165 c 128,-1,14
 133 1169 133 1169 133 1178.5 c 128,-1,15
 133 1188 133 1188 136.5 1205.5 c 128,-1,16
 140 1223 140 1223 150.5 1270 c 128,-1,17
 161 1317 161 1317 171.5 1360.5 c 128,-1,18
 182 1404 182 1404 190.5 1435 c 128,-1,19
 199 1466 199 1466 199 1467 c 0,20,21
 207 1497 207 1497 225 1497 c 1,22,23
 390 1481 390 1481 537 1373 c 0,24,25
 846 1146 846 1146 846 716 c 0,26,27
 846 376 846 376 673 130 c 0,28,29
 480 -145 480 -145 118 -199 c 1,30,-1
 112 -200 l 1,31,32
 94 -200 94 -200 94 -181 c 2,0,-1
EndSplineSet
Validated: 1
EndChar

StartChar: asterisk
Encoding: 42 42 13
Width: 1275
GlyphClass: 2
Flags: MW
LayerCount: 2
Fore
SplineSet
722 -84 m 1,0,-1
 692 -85 l 2,1,2
 669 -85 669 -85 624 -81.5 c 128,-1,3
 579 -78 579 -78 501 -74 c 0,4,5
 474 -72 474 -72 474 -32 c 1,6,-1
 502 219 l 1,7,-1
 321 91 l 2,8,9
 300 76 300 76 287 76 c 128,-1,10
 274 76 274 76 245.5 109 c 128,-1,11
 217 142 217 142 190.5 170 c 128,-1,12
 164 198 164 198 154.5 214.5 c 128,-1,13
 145 231 145 231 137 241 c 128,-1,14
 129 251 129 251 129 259 c 256,15,16
 129 274 129 274 171 307 c 2,17,-1
 434 512 l 1,18,-1
 330 585 l 1,19,20
 224 654 224 654 170 690.5 c 128,-1,21
 116 727 116 727 116 748 c 0,22,23
 116 762 116 762 200 883 c 1,24,-1
 256 965 l 1,25,26
 270 977 270 977 281.5 977 c 128,-1,27
 293 977 293 977 314 959 c 2,28,-1
 384 900 l 2,29,30
 416 873 416 873 456 840 c 128,-1,31
 496 807 496 807 538 772 c 1,32,-1
 542 816 l 2,33,34
 568 1102 568 1102 584 1122 c 0,35,36
 591 1130 591 1130 603 1132 c 1,37,-1
 621 1132 l 1,38,-1
 839 1128 l 1,39,-1
 845 1128 l 1,40,41
 873 1120 873 1120 873 1093 c 2,42,-1
 873 1085 l 2,43,44
 873 1081 873 1081 872 1076 c 2,45,-1
 857 987 l 2,46,47
 844 912 844 912 831 784 c 1,48,49
 867 818 867 818 904 854 c 128,-1,50
 941 890 941 890 973 920 c 0,51,52
 1044.94202899 987.014492754 1044.94202899 987.014492754 1066.38038227 987.014492754 c 0,53,54
 1066.69565217 987.014492754 1066.69565217 987.014492754 1067 987 c 0,55,56
 1077 987 1077 987 1091 975 c 1,57,-1
 1147 893 l 2,58,59
 1231 771 1231 771 1231 760.5 c 128,-1,60
 1231 750 1231 750 1227.5 743 c 128,-1,61
 1224 736 1224 736 1212.5 726.5 c 128,-1,62
 1201 717 1201 717 1180 702 c 0,63,64
 1160 686 1160 686 1124 662 c 0,65,66
 1011 584 1011 584 912 512 c 1,67,-1
 1176 307 l 1,68,69
 1216 274 1216 274 1217 262.5 c 128,-1,70
 1218 251 1218 251 1210 241 c 128,-1,71
 1202 231 1202 231 1191 212.5 c 128,-1,72
 1180 194 1180 194 1152 157 c 128,-1,73
 1124 120 1124 120 1071 47 c 0,74,75
 1063 36 1063 36 1048.5 36 c 128,-1,76
 1034 36 1034 36 1016 51 c 2,77,-1
 795 226 l 1,78,-1
 776 -19 l 2,79,80
 770 -77 770 -77 756 -82 c 0,81,82
 750 -84 750 -84 742 -84 c 2,83,-1
 722 -84 l 1,0,-1
EndSplineSet
Validated: 1
EndChar

StartChar: plus
Encoding: 43 43 14
Width: 961
GlyphClass: 2
Flags: MW
LayerCount: 2
Fore
SplineSet
611 260 m 2,0,-1
 385 264 l 1,1,2
 358 268 358 268 358 306 c 2,3,-1
 358 312 l 1,4,-1
 378 527 l 1,5,6
 327 526 327 526 288 526 c 2,7,-1
 227 526 l 2,8,9
 108 526 108 526 108 554 c 0,10,11
 108 568 108 568 121 629 c 0,12,13
 141 726 141 726 154 789 c 0,14,15
 156 801 156 801 169.5 811 c 128,-1,16
 183 821 183 821 205 822 c 2,17,-1
 406 825 l 1,18,-1
 408 846 l 1,19,20
 413 914 413 914 415 963 c 0,21,22
 418 1012 418 1012 422 1043 c 0,23,24
 431 1103 431 1103 467 1103 c 1,25,-1
 477 1102 l 1,26,-1
 596 1105 l 1,27,-1
 691 1108 l 1,28,29
 719 1100 719 1100 719 1073 c 2,30,-1
 719 1070 l 2,31,32
 719 1069 719 1069 718.5 1063 c 128,-1,33
 718 1057 718 1057 717 1044 c 2,34,-1
 714 1005 l 2,35,36
 712 979 712 979 708.5 936.5 c 128,-1,37
 705 894 705 894 700 830 c 1,38,39
 802 836 802 836 936 836 c 0,40,41
 944 836 944 836 954 830 c 128,-1,42
 964 824 964 824 964 814 c 0,43,44
 963 803 963 803 948 667 c 2,45,-1
 937 570 l 1,46,47
 926 545 926 545 912 541 c 128,-1,48
 898 537 898 537 877.5 536.5 c 128,-1,49
 857 536 857 536 822 535 c 2,50,-1
 676 532 l 1,51,-1
 663 386 l 1,52,53
 654 282 654 282 630 266 c 0,54,55
 622 260 622 260 611 260 c 2,0,-1
EndSplineSet
Validated: 1
EndChar

StartChar: comma
Encoding: 44 44 15
Width: 587
GlyphClass: 2
Flags: MW
LayerCount: 2
Fore
SplineSet
136 340 m 1,0,-1
 423 342 l 1,1,-1
 515 342 l 2,2,3
 532 342 532 342 532 318 c 1,4,-1
 514 74 l 1,5,6
 505 9 505 9 494 -24.5 c 128,-1,7
 483 -58 483 -58 469 -80.5 c 128,-1,8
 455 -103 455 -103 437 -129 c 128,-1,9
 419 -155 419 -155 399.5 -181.5 c 128,-1,10
 380 -208 380 -208 363 -231.5 c 128,-1,11
 346 -255 346 -255 333 -272 c 128,-1,12
 320 -289 320 -289 316.5 -294 c 128,-1,13
 313 -299 313 -299 308.5 -305.5 c 128,-1,14
 304 -312 304 -312 298 -318 c 0,15,16
 283 -335 283 -335 274.5 -335 c 128,-1,17
 266 -335 266 -335 257.5 -330.5 c 128,-1,18
 249 -326 249 -326 242.5 -323.5 c 128,-1,19
 236 -321 236 -321 224 -315 c 0,20,21
 212 -310 212 -310 190 -298 c 0,22,23
 92.9898989899 -245.535353535 92.9898989899 -245.535353535 92.9898989899 -234.226507499 c 0,24,25
 92.9898989899 -234.111111111 92.9898989899 -234.111111111 93 -234 c 1,26,-1
 217 -31 l 1,27,-1
 132 -30 l 1,28,-1
 114 -30 l 2,29,30
 82 -30 82 -30 82 -20 c 2,31,-1
 82 -18 l 1,32,33
 86 25 86 25 88.5 49.5 c 128,-1,34
 91 74 91 74 92 87.5 c 128,-1,35
 93 101 93 101 93.5 107 c 128,-1,36
 94 113 94 113 94.5 118 c 128,-1,37
 95 123 95 123 95.5 130 c 128,-1,38
 96 137 96 137 97 154 c 128,-1,39
 98 171 98 171 100.5 200.5 c 128,-1,40
 103 230 103 230 106 271 c 128,-1,41
 109 312 109 312 113.5 325 c 128,-1,42
 118 338 118 338 136 340 c 1,0,-1
EndSplineSet
Validated: 1
EndChar

StartChar: hyphen
Encoding: 45 45 16
Width: 958
GlyphClass: 2
Flags: MW
LayerCount: 2
Fore
SplineSet
834 538 m 128,-1,1
 825 536 825 536 592.5 531 c 128,-1,2
 360 526 360 526 228 526 c 128,-1,3
 96 526 96 526 96 554 c 0,4,5
 96 577 96 577 154 655.5 c 128,-1,6
 212 734 212 734 237 763 c 0,7,8
 295 830 295 830 323 832 c 2,9,-1
 645 845 l 2,10,11
 696 847 696 847 744.5 848.5 c 128,-1,12
 793 850 793 850 833 851.5 c 128,-1,13
 873 853 873 853 902.5 854.5 c 128,-1,14
 932 856 932 856 942 856 c 0,15,16
 972 856 972 856 972 827 c 0,17,18
 972 811 972 811 928.5 713.5 c 128,-1,19
 885 616 885 616 873 588.5 c 128,-1,20
 861 561 861 561 857.5 555 c 128,-1,21
 854 549 854 549 848.5 544.5 c 128,-1,0
 843 540 843 540 834 538 c 128,-1,1
EndSplineSet
Validated: 1
EndChar

StartChar: period
Encoding: 46 46 17
Width: 573
GlyphClass: 2
Flags: MW
LayerCount: 2
Fore
SplineSet
101 -49 m 0,0,1
 90 -49 90 -49 90 -42 c 2,2,-1
 90 -38 l 1,3,4
 95 80 95 80 95 100 c 2,5,-1
 95 111 l 2,6,7
 95 117 95 117 95.5 125 c 128,-1,8
 96 133 96 133 97 151.5 c 128,-1,9
 98 170 98 170 100 202.5 c 128,-1,10
 102 235 102 235 104.5 278.5 c 128,-1,11
 107 322 107 322 111.5 334.5 c 128,-1,12
 116 347 116 347 134 350 c 1,13,14
 329 350 329 350 499 352 c 0,15,16
 520 352 520 352 520 328 c 1,17,-1
 492 14 l 1,18,19
 488 -19 488 -19 484.5 -31.5 c 128,-1,20
 481 -44 481 -44 462 -46 c 1,21,22
 207 -49 207 -49 101 -49 c 0,0,1
EndSplineSet
Validated: 1
EndChar

StartChar: slash
Encoding: 47 47 18
Width: 872
GlyphClass: 2
Flags: MW
LayerCount: 2
Fore
SplineSet
332 697.5 m 128,-1,1
 382 809 382 809 443.5 942 c 128,-1,2
 505 1075 505 1075 561 1207 c 128,-1,3
 617 1339 617 1339 653.5 1422 c 128,-1,4
 690 1505 690 1505 697 1516.5 c 128,-1,5
 704 1528 704 1528 718 1528 c 2,6,-1
 725 1528 l 1,7,8
 779 1506 779 1506 831.5 1480.5 c 128,-1,9
 884 1455 884 1455 914 1449 c 0,10,11
 952 1441 952 1441 952 1432 c 2,12,-1
 952 1429 l 1,13,-1
 311 15 l 2,14,15
 307 6 307 6 305 -2 c 0,16,17
 302 -10 302 -10 300 -16 c 0,18,19
 290 -39 290 -39 256 -22 c 1,20,-1
 155 20 l 2,21,22
 147 23 147 23 131 28 c 0,23,24
 114 34 114 34 98 42 c 0,25,26
 56 63 56 63 57 82 c 0,27,28
 57 91 57 91 82.5 144.5 c 128,-1,29
 108 198 108 198 150.5 291.5 c 128,-1,30
 193 385 193 385 237.5 485.5 c 128,-1,0
 282 586 282 586 332 697.5 c 128,-1,1
EndSplineSet
Validated: 1
EndChar

StartChar: zero
Encoding: 48 48 19
Width: 1629
GlyphClass: 2
Flags: MW
LayerCount: 2
Fore
SplineSet
138 680 m 0,0,1
 138 849 138 849 186 998 c 0,2,3
 236 1148 236 1148 332 1258 c 0,4,5
 538 1494 538 1494 910 1494 c 0,6,7
 1256 1494 1256 1494 1445 1266 c 0,8,9
 1616 1060 1616 1060 1616 752 c 0,10,11
 1616 378 1616 378 1406 160 c 0,12,13
 1201.95794393 -52.0046728972 1201.95794393 -52.0046728972 859.22124203 -52.0046728972 c 0,14,15
 857.612149533 -52.0046728972 857.612149533 -52.0046728972 856 -52 c 0,16,17
 536 -52 536 -52 339 146 c 0,18,19
 138 348 138 348 138 680 c 0,0,1
865 255 m 0,20,21
 1039 256 1039 256 1124 424 c 0,22,23
 1192 559 1192 559 1192 758 c 0,24,25
 1192 998 1192 998 1073 1126 c 0,26,27
 1004 1200 1004 1200 900 1200 c 0,28,29
 670 1200 670 1200 598 942 c 0,30,31
 570 842 570 842 570 739 c 0,32,33
 570 255 570 255 865 255 c 0,20,21
EndSplineSet
Validated: 1
EndChar

StartChar: one
Encoding: 49 49 20
Width: 690
GlyphClass: 2
Flags: MW
LayerCount: 2
Fore
SplineSet
208 -15 m 0,0,1
 165 -15 165 -15 165 30 c 2,2,-1
 165 33 l 2,3,4
 165 36 165 36 166 51.5 c 128,-1,5
 167 67 167 67 168.5 99.5 c 128,-1,6
 170 132 170 132 172.5 191.5 c 128,-1,7
 175 251 175 251 179.5 342 c 128,-1,8
 184 433 184 433 190 566 c 0,9,10
 202 817 202 817 214.5 1072 c 128,-1,11
 227 1327 227 1327 230.5 1341.5 c 128,-1,12
 234 1356 234 1356 254 1360 c 2,13,-1
 600 1443 l 2,14,15
 615 1447 615 1447 626 1447 c 0,16,17
 651 1447 651 1447 651 1404 c 1,18,-1
 592 167 l 2,19,20
 589 104 589 104 565 90 c 0,21,22
 556 84 556 84 544 80 c 2,23,-1
 231 -12 l 2,24,25
 219 -15 219 -15 208 -15 c 0,0,1
EndSplineSet
Validated: 1
EndChar

StartChar: two
Encoding: 50 50 21
Width: 1132
GlyphClass: 2
Flags: MW
LayerCount: 2
Fore
SplineSet
167 1033 m 0,0,1
 149 1033 149 1033 149 1065.5 c 128,-1,2
 149 1098 149 1098 159 1150 c 128,-1,3
 169 1202 169 1202 181.5 1250 c 128,-1,4
 194 1298 194 1298 204 1333 c 128,-1,5
 214 1368 214 1368 214 1373 c 1,6,7
 216 1373 216 1373 241 1391.5 c 128,-1,8
 266 1410 266 1410 319 1432 c 0,9,10
 462 1492 462 1492 663 1493 c 0,11,12
 816 1493 816 1493 938 1382 c 0,13,14
 1067.00763359 1265.89312977 1067.00763359 1265.89312977 1067.00763359 1110.3946157 c 0,15,16
 1067.00763359 1109.19847328 1067.00763359 1109.19847328 1067 1108 c 0,17,18
 1067 1009 1067 1009 1005 904 c 1,19,20
 973 837 973 837 851 644 c 0,21,22
 716 431 716 431 673 361 c 1,23,-1
 660 341 l 2,24,25
 660 340 660 340 670 340 c 128,-1,26
 680 340 680 340 707.5 342.5 c 128,-1,27
 735 345 735 345 771 348 c 128,-1,28
 807 351 807 351 848.5 355.5 c 128,-1,29
 890 360 890 360 930 363 c 0,30,31
 1038 371 1038 371 1077.5 371 c 128,-1,32
 1117 371 1117 371 1117 349 c 0,33,34
 1117 335 1117 335 1109.5 321 c 128,-1,35
 1102 307 1102 307 1102 305 c 2,36,-1
 953 27 l 1,37,38
 933 7 933 7 916 5 c 128,-1,39
 899 3 899 3 850.5 1.5 c 128,-1,40
 802 0 802 0 737 -1 c 128,-1,41
 672 -2 672 -2 619.5 -2.5 c 128,-1,42
 567 -3 567 -3 524.5 -3.5 c 128,-1,43
 482 -4 482 -4 441.5 -4.5 c 128,-1,44
 401 -5 401 -5 360 -5 c 2,45,-1
 270 -5 l 2,46,47
 99 -5 99 -5 99 54 c 0,48,49
 99 83 99 83 155 165 c 128,-1,50
 211 247 211 247 277 340.5 c 128,-1,51
 343 434 343 434 403 520 c 0,52,53
 530 702 530 702 576 774 c 0,54,55
 646 883 646 883 646 937 c 128,-1,56
 646 991 646 991 630 1022 c 0,57,58
 614 1052 614 1052 584 1074 c 0,59,60
 524 1118 524 1118 449 1118 c 0,61,62
 310 1118 310 1118 199 1046 c 0,63,64
 179 1033 179 1033 167 1033 c 0,0,1
EndSplineSet
Validated: 1
EndChar

StartChar: three
Encoding: 51 51 22
Width: 1109
GlyphClass: 2
Flags: MW
LayerCount: 2
Fore
SplineSet
878 788 m 1,0,1
 1076 676 1076 676 1076 428 c 0,2,3
 1076 254 1076 254 954 113 c 0,4,5
 829 -32 829 -32 650 -48 c 0,6,7
 608 -52 608 -52 561 -52 c 128,-1,8
 514 -52 514 -52 464.5 -45 c 128,-1,9
 415 -38 415 -38 367 -24 c 0,10,11
 300 -5 300 -5 225 25 c 128,-1,12
 150 55 150 55 143.5 64.5 c 128,-1,13
 137 74 137 74 134.5 86 c 128,-1,14
 132 98 132 98 131.5 110.5 c 128,-1,15
 131 123 131 123 129.5 134 c 128,-1,16
 128 145 128 145 124 177.5 c 128,-1,17
 120 210 120 210 115 246 c 0,18,19
 102 338 102 338 99 349.5 c 128,-1,20
 96 361 96 361 96 371 c 128,-1,21
 96 381 96 381 106.5 389.5 c 128,-1,22
 117 398 117 398 125 398 c 128,-1,23
 133 398 133 398 152.5 386 c 128,-1,24
 172 374 172 374 209 350 c 128,-1,25
 246 326 246 326 288 306 c 0,26,27
 384.946236559 260.494623656 384.946236559 260.494623656 471.127760435 260.494623656 c 0,28,29
 472.064516129 260.494623656 472.064516129 260.494623656 473 260.5 c 0,30,31
 560 261 560 261 598 292.5 c 128,-1,32
 636 324 636 324 636 400 c 0,33,34
 636 510 636 510 565 552 c 0,35,36
 536.578947368 569.052631579 536.578947368 569.052631579 491.105263158 569.052631579 c 0,37,38
 488.578947368 569.052631579 488.578947368 569.052631579 486 569 c 2,39,-1
 306 569 l 1,40,41
 306 577 306 577 313.5 631 c 128,-1,42
 321 685 321 685 326 722 c 0,43,44
 332 758 332 758 336 790 c 0,45,46
 344 857 344 857 350 881 c 0,47,48
 359 922 359 922 373 922 c 1,49,50
 399 912 399 912 458 912 c 128,-1,51
 517 912 517 912 556 949 c 128,-1,52
 595 986 595 986 595 1057 c 0,53,54
 594 1141 594 1141 526 1173 c 0,55,56
 502 1184 502 1184 468 1184 c 128,-1,57
 434 1184 434 1184 396 1180 c 128,-1,58
 358 1176 358 1176 322 1168 c 0,59,60
 239 1149 239 1149 190 1133 c 1,61,62
 193 1151 193 1151 193 1183 c 2,63,-1
 192 1246 l 1,64,65
 192 1422 192 1422 259 1442 c 1,66,67
 399 1487 399 1487 467.5 1490 c 128,-1,68
 536 1493 536 1493 599.5 1493 c 128,-1,69
 663 1493 663 1493 747.5 1471 c 128,-1,70
 832 1449 832 1449 900 1403 c 0,71,72
 1056 1299 1056 1299 1056 1112.5 c 128,-1,73
 1056 926 1056 926 878 788 c 1,0,1
EndSplineSet
Validated: 1
EndChar

StartChar: four
Encoding: 52 52 23
Width: 1352
GlyphClass: 2
Flags: MW
LayerCount: 2
Fore
SplineSet
1312 618 m 1,0,1
 1348 612 1348 612 1348 582 c 0,2,3
 1348 574 1348 574 1346.5 568.5 c 128,-1,4
 1345 563 1345 563 1341.5 548 c 128,-1,5
 1338 533 1338 533 1334.5 513.5 c 128,-1,6
 1331 494 1331 494 1326.5 471 c 128,-1,7
 1322 448 1322 448 1318 426 c 2,8,-1
 1295 312 l 2,9,10
 1292 298 1292 298 1287 290 c 0,11,12
 1278 276 1278 276 1213 276 c 2,13,-1
 1118 276 l 1,14,-1
 1100 93 l 2,15,16
 1097 68 1097 68 1086.5 63.5 c 128,-1,17
 1076 59 1076 59 1050.5 49 c 128,-1,18
 1025 39 1025 39 990 26 c 128,-1,19
 955 13 955 13 915 -1.5 c 128,-1,20
 875 -16 875 -16 839 -28 c 0,21,22
 755 -56 755 -56 737 -56 c 0,23,24
 702 -56 702 -56 702 -20 c 0,25,26
 702 66 702 66 719 272 c 1,27,28
 379 268 379 268 271 268 c 2,29,-1
 190 268 l 2,30,31
 102 268 102 268 63 274 c 128,-1,32
 24 280 24 280 24 302 c 0,33,34
 24 314 24 314 34 330 c 2,35,-1
 67 385 l 2,36,37
 91 425 91 425 124.5 480.5 c 128,-1,38
 158 536 158 536 197.5 601.5 c 128,-1,39
 237 667 237 667 277 733 c 2,40,-1
 485 1076 l 2,41,42
 523 1139 523 1139 552.5 1199.5 c 128,-1,43
 582 1260 582 1260 618 1310 c 0,44,45
 698 1423 698 1423 832 1450 c 1,46,-1
 1148 1533 l 2,47,48
 1163 1537 1163 1537 1175 1537 c 0,49,50
 1199 1537 1199 1537 1199 1505 c 2,51,-1
 1199 1494 l 1,52,-1
 1150 614 l 1,53,54
 1284 618 1284 618 1312 618 c 1,0,1
747 601 m 1,55,56
 785 819 785 819 801 1210 c 1,57,-1
 437 601 l 1,58,-1
 747 601 l 1,55,56
EndSplineSet
Validated: 1
EndChar

StartChar: five
Encoding: 53 53 24
Width: 1079
GlyphClass: 2
Flags: MW
LayerCount: 2
Fore
SplineSet
732 1113 m 2,0,-1
 603 1114 l 2,1,2
 553 1114 553 1114 539 1100 c 0,3,4
 515 1076 515 1076 515 1009 c 1,5,6
 894 990 894 990 1012 742 c 0,7,8
 1054 654 1054 654 1054 535.5 c 128,-1,9
 1054 417 1054 417 1022 329.5 c 128,-1,10
 990 242 990 242 935.5 177 c 128,-1,11
 881 112 881 112 807.5 68 c 128,-1,12
 734 24 734 24 650 -2 c 0,13,14
 494 -52 494 -52 304 -52 c 0,15,16
 146 -52 146 -52 77 -15 c 0,17,18
 72 -13 72 -13 66.5 -7 c 128,-1,19
 61 -1 61 -1 61 1 c 2,20,-1
 142 277 l 1,21,22
 149 294 149 294 171 294 c 2,23,-1
 177 294 l 1,24,25
 235 285 235 285 307.5 285 c 128,-1,26
 380 285 380 285 428.5 292 c 128,-1,27
 477 299 477 299 515 319 c 0,28,29
 599 363 599 363 599 472 c 0,30,31
 599 646 599 646 407 662 c 0,32,33
 355 666 355 666 304 667 c 2,34,-1
 240 666 l 2,35,36
 209 666 209 666 197.5 671 c 128,-1,37
 186 676 186 676 186 689 c 0,38,39
 186 708 186 708 190 732 c 1,40,41
 196 911 196 911 262 1274 c 0,42,43
 278 1364 278 1364 292 1454 c 1,44,45
 482 1476 482 1476 666 1496.5 c 128,-1,46
 850 1517 850 1517 1042 1542 c 1,47,48
 1055 1542 1055 1542 1055 1526 c 128,-1,49
 1055 1510 1055 1510 1053 1505 c 128,-1,50
 1051 1500 1051 1500 1046 1482.5 c 128,-1,51
 1041 1465 1041 1465 1034 1439 c 128,-1,52
 1027 1413 1027 1413 1018 1381 c 0,53,54
 1008 1350 1008 1350 1000 1318 c 0,55,56
 980 1243 980 1243 970 1210 c 128,-1,57
 960 1177 960 1177 936 1158 c 128,-1,58
 912 1139 912 1139 880 1129 c 0,59,60
 828 1113 828 1113 732 1113 c 2,0,-1
EndSplineSet
Validated: 1
EndChar

StartChar: six
Encoding: 54 54 25
Width: 1288
GlyphClass: 2
Flags: MW
LayerCount: 2
Fore
SplineSet
718 1010 m 1,0,1
 783 1028 783 1028 875 1028 c 128,-1,2
 967 1028 967 1028 1048.5 985 c 128,-1,3
 1130 942 1130 942 1184 874 c 0,4,5
 1290 738 1290 738 1290 549 c 0,6,7
 1290 272 1290 272 1131 114 c 0,8,9
 964 -51 964 -51 663 -51 c 0,10,11
 661.479768786 -51.0057803468 661.479768786 -51.0057803468 659.963379999 -51.0057803468 c 0,12,13
 399.144508671 -51.0057803468 399.144508671 -51.0057803468 252 120 c 0,14,15
 116 277 116 277 116 533 c 0,16,17
 116 776 116 776 298 1034 c 0,18,19
 390 1163 390 1163 487.5 1279 c 128,-1,20
 585 1395 585 1395 615 1435 c 128,-1,21
 645 1475 645 1475 653.5 1486.5 c 128,-1,22
 662 1498 662 1498 672 1508 c 0,23,24
 696 1530 696 1530 718 1530 c 2,25,-1
 969 1530 l 2,26,27
 1030 1530 1030 1530 1030 1501 c 0,28,29
 1030 1487 1030 1487 1014 1468 c 0,30,31
 852 1279 852 1279 718 1010 c 1,0,1
698 260 m 0,32,33
 866 260 866 260 866 580 c 0,34,35
 866 673 866 673 850 709 c 0,36,37
 818 783 818 783 752 783 c 128,-1,38
 686 783 686 783 652 752 c 128,-1,39
 618 721 618 721 600 675 c 0,40,41
 571 601 571 601 571 479 c 0,42,43
 570.984615385 476.923076923 570.984615385 476.923076923 570.984615385 474.863905325 c 0,44,45
 570.984615385 343.076923077 570.984615385 343.076923077 634 284 c 0,46,47
 658 260 658 260 698 260 c 0,32,33
EndSplineSet
Validated: 1
EndChar

StartChar: seven
Encoding: 55 55 26
Width: 1066
GlyphClass: 2
Flags: MW
LayerCount: 2
Fore
SplineSet
302.5 1444.5 m 128,-1,1
 319 1448 319 1448 655.5 1451 c 128,-1,2
 992 1454 992 1454 1014 1454 c 2,3,-1
 1129 1454 l 2,4,5
 1167 1454 1167 1454 1167 1422 c 0,6,7
 1167 1395 1167 1395 1136 1323 c 1,8,-1
 915 762 l 2,9,10
 871 651 871 651 827 539 c 128,-1,11
 783 427 783 427 744 328 c 0,12,13
 663 123 663 123 637 59 c 128,-1,14
 611 -5 611 -5 604 -24 c 0,15,16
 598 -44 598 -44 592 -54 c 0,17,18
 584 -67 584 -67 553 -74 c 128,-1,19
 522 -81 522 -81 481 -89.5 c 128,-1,20
 440 -98 440 -98 400 -105 c 0,21,22
 263 -129 263 -129 246 -129 c 0,23,24
 213 -129 213 -129 213 -94 c 256,25,26
 213 -79 213 -79 222.5 -57.5 c 128,-1,27
 232 -36 232 -36 257 23 c 128,-1,28
 282 82 282 82 316 164 c 0,29,30
 422 417 422 417 470 534 c 2,31,-1
 676 1034 l 1,32,-1
 473 1032 l 1,33,-1
 304 1031 l 1,34,-1
 163 1031 l 2,35,36
 102 1031 102 1031 102 1053 c 0,37,38
 102 1066 102 1066 108 1079 c 128,-1,39
 114 1092 114 1092 123.5 1114.5 c 128,-1,40
 133 1137 133 1137 152 1176 c 0,41,42
 172 1216 172 1216 190 1254 c 0,43,44
 236 1348 236 1348 251 1381.5 c 128,-1,45
 266 1415 266 1415 266.5 1417.5 c 128,-1,46
 267 1420 267 1420 276.5 1430.5 c 128,-1,0
 286 1441 286 1441 302.5 1444.5 c 128,-1,1
EndSplineSet
Validated: 1
EndChar

StartChar: eight
Encoding: 56 56 27
Width: 1280
GlyphClass: 2
Flags: MW
LayerCount: 2
Fore
SplineSet
1047 822 m 1,0,1
 1251 676 1251 676 1251 427 c 0,2,3
 1251 202 1251 202 1043 68 c 0,4,5
 857 -52 857 -52 626 -52 c 0,6,7
 424 -52 424 -52 278 47 c 0,8,9
 112 160 112 160 112 370 c 0,10,11
 112 550 112 550 256 700 c 0,12,13
 298 744 298 744 345 790 c 1,14,15
 202 889 202 889 202 1071 c 0,16,17
 202 1344 202 1344 500 1450 c 0,18,19
 626 1494 626 1494 737 1494 c 128,-1,20
 848 1494 848 1494 922 1470 c 0,21,22
 996 1445 996 1445 1056 1398 c 0,23,24
 1190 1293 1190 1293 1190 1132 c 0,25,26
 1190.00689655 1130.88965517 1190.00689655 1130.88965517 1190.00689655 1129.77988109 c 0,27,28
 1190.00689655 969.972413793 1190.00689655 969.972413793 1047 822 c 1,0,1
705 137 m 0,29,30
 794 137 794 137 822 319 c 0,31,32
 831 377 831 377 831 417.5 c 128,-1,33
 831 458 831 458 823 500 c 128,-1,34
 815 542 815 542 798 579 c 0,35,36
 758 666 758 666 690 666 c 0,37,38
 597 666 597 666 570 505 c 0,39,40
 562 457 562 457 562 408 c 0,41,42
 562 137 562 137 705 137 c 0,29,30
713 899 m 0,43,44
 816 899 816 899 816 1115 c 0,45,46
 816 1226 816 1226 754 1272 c 0,47,48
 731 1289 731 1289 696.5 1289 c 128,-1,49
 662 1289 662 1289 638 1270 c 0,50,51
 616 1250 616 1250 602 1220 c 0,52,53
 578 1169 578 1169 577 1094 c 256,54,55
 577 1024 577 1024 601 981 c 0,56,57
 647 899 647 899 713 899 c 0,43,44
EndSplineSet
Validated: 1
EndChar

StartChar: nine
Encoding: 57 57 28
Width: 1326
GlyphClass: 2
Flags: MW
LayerCount: 2
Fore
SplineSet
777 418 m 1,0,1
 665 385 665 385 567 385 c 128,-1,2
 469 385 469 385 385.5 425.5 c 128,-1,3
 302 466 302 466 240 534 c 0,4,5
 108.992481203 676.917293233 108.992481203 676.917293233 108.992481203 870.070552321 c 0,6,7
 108.992481203 871.533834586 108.992481203 871.533834586 109 873 c 0,8,9
 110 1148 110 1148 336 1327 c 0,10,11
 471 1434 471 1434 648 1474 c 0,12,13
 731.902439024 1493.51219512 731.902439024 1493.51219512 831.033908388 1493.51219512 c 0,14,15
 833.512195122 1493.51219512 833.512195122 1493.51219512 836 1493.5 c 0,16,17
 938 1493 938 1493 1032.5 1440.5 c 128,-1,18
 1127 1388 1127 1388 1194 1304 c 0,19,20
 1334 1128 1334 1128 1334 905 c 0,21,22
 1334 586 1334 586 1051 199 c 0,23,24
 994 121 994 121 935.5 48.5 c 128,-1,25
 877 -24 877 -24 848.5 -59.5 c 128,-1,26
 820 -95 820 -95 815.5 -98 c 128,-1,27
 811 -101 811 -101 804 -101 c 256,28,29
 797 -101 797 -101 780.5 -92 c 128,-1,30
 764 -83 764 -83 743 -72 c 128,-1,31
 722 -61 722 -61 702 -52 c 0,32,33
 657 -32 657 -32 622.5 -22.5 c 128,-1,34
 588 -13 588 -13 588 0.5 c 128,-1,35
 588 14 588 14 608 41.5 c 128,-1,36
 628 69 628 69 655 118 c 128,-1,37
 682 167 682 167 704 219 c 0,38,39
 750 323 750 323 777 418 c 1,0,1
555.5 1041.5 m 128,-1,41
 547 991 547 991 547 942.5 c 128,-1,42
 547 894 547 894 559 846 c 0,43,44
 570 797 570 797 596 760 c 0,45,46
 654 678 654 678 762 678 c 0,47,48
 796 678 796 678 842 694 c 1,49,50
 872 816 872 816 874.5 866 c 128,-1,51
 877 916 877 916 877 945.5 c 128,-1,52
 877 975 877 975 875.5 1004.5 c 128,-1,53
 874 1034 874 1034 869 1065 c 128,-1,54
 864 1096 864 1096 855 1126 c 128,-1,55
 846 1156 846 1156 830 1179 c 0,56,57
 795 1231 795 1231 738.5 1231 c 128,-1,58
 682 1231 682 1231 645 1203.5 c 128,-1,59
 608 1176 608 1176 586 1134 c 128,-1,40
 564 1092 564 1092 555.5 1041.5 c 128,-1,41
EndSplineSet
Validated: 1
EndChar

StartChar: colon
Encoding: 58 58 29
Width: 668
GlyphClass: 2
Flags: MW
LayerCount: 2
Fore
SplineSet
190 716 m 0,0,1
 179 716 179 716 179 723 c 2,2,-1
 179 727 l 1,3,4
 184 845 184 845 184 865 c 2,5,-1
 184 876 l 2,6,7
 184 882 184 882 184.5 890 c 128,-1,8
 185 898 185 898 186 916.5 c 128,-1,9
 187 935 187 935 189 967.5 c 128,-1,10
 191 1000 191 1000 193.5 1043.5 c 128,-1,11
 196 1087 196 1087 200.5 1099.5 c 128,-1,12
 205 1112 205 1112 223 1115 c 1,13,14
 418 1115 418 1115 588 1117 c 0,15,16
 609 1117 609 1117 609 1093 c 1,17,-1
 581 779 l 1,18,19
 577 746 577 746 573.5 733.5 c 128,-1,20
 570 721 570 721 551 719 c 1,21,22
 296 716 296 716 190 716 c 0,0,1
170 -49 m 0,23,24
 159 -49 159 -49 159 -42 c 2,25,-1
 159 -38 l 1,26,27
 164 80 164 80 164 100 c 2,28,-1
 164 111 l 2,29,30
 164 117 164 117 164.5 125 c 128,-1,31
 165 133 165 133 166 151.5 c 128,-1,32
 167 170 167 170 169 202.5 c 128,-1,33
 171 235 171 235 173.5 278.5 c 128,-1,34
 176 322 176 322 180.5 334.5 c 128,-1,35
 185 347 185 347 203 350 c 1,36,37
 398 350 398 350 568 352 c 0,38,39
 589 352 589 352 589 328 c 1,40,-1
 561 14 l 1,41,42
 557 -19 557 -19 553.5 -31.5 c 128,-1,43
 550 -44 550 -44 531 -46 c 1,44,45
 276 -49 276 -49 170 -49 c 0,23,24
EndSplineSet
Validated: 1
EndChar

StartChar: less
Encoding: 60 60 31
Width: 1076
GlyphClass: 2
Flags: MW
LayerCount: 2
Fore
SplineSet
136 421 m 0,0,1
 125 690 125 690 115 742 c 1,2,3
 118 761 118 761 128 761 c 1,4,5
 224 807 224 807 384.5 866.5 c 128,-1,6
 545 926 545 926 622.5 955 c 128,-1,7
 700 984 700 984 777 1012.5 c 128,-1,8
 854 1041 854 1041 924 1068 c 1,9,10
 955 1077 955 1077 968.5 1077 c 128,-1,11
 982 1077 982 1077 985 1061 c 1,12,13
 1003 826 1003 826 1024 740 c 1,14,15
 1024 718 1024 718 1012 717 c 1,16,-1
 572 555 l 1,17,18
 594 543 594 543 667 506.5 c 128,-1,19
 740 470 740 470 791 444 c 128,-1,20
 842 418 842 418 889 394 c 0,21,22
 994 341 994 341 1015 330 c 128,-1,23
 1036 319 1036 319 1036 313 c 256,24,25
 1036 307 1036 307 1034 301 c 1,26,27
 992 226 992 226 964.5 147 c 128,-1,28
 937 68 937 68 909 -10 c 0,29,30
 902 -29 902 -29 889 -29 c 0,31,32
 874 -29 874 -29 846 -17 c 1,33,-1
 190 365 l 1,34,35
 158 381 158 381 147 391 c 128,-1,36
 136 401 136 401 136 421 c 0,0,1
EndSplineSet
Validated: 1
EndChar

StartChar: equal
Encoding: 61 61 32
Width: 1062
GlyphClass: 2
Flags: MW
LayerCount: 2
Fore
SplineSet
878 636 m 0,0,1
 428 626 428 626 296 626 c 128,-1,2
 164 626 164 626 164 654 c 0,3,4
 164 706 164 706 220 849 c 1,5,6
 231 859 231 859 240 870 c 128,-1,7
 249 881 249 881 271 882 c 2,8,-1
 573 887 l 1,9,-1
 962 896 l 2,10,11
 970 896 970 896 980 890 c 128,-1,12
 990 884 990 884 990.5 872 c 128,-1,13
 991 860 991 860 981.5 830 c 128,-1,14
 972 800 972 800 957 749 c 2,15,-1
 933 670 l 1,16,17
 926 653 926 653 916.5 644.5 c 128,-1,18
 907 636 907 636 878 636 c 0,0,1
878 167 m 0,19,20
 428 157 428 157 296 157 c 128,-1,21
 164 157 164 157 164 185 c 0,22,23
 164 237 164 237 220 380 c 1,24,25
 231 389 231 389 240 400.5 c 128,-1,26
 249 412 249 412 271 413 c 2,27,-1
 573 418 l 1,28,-1
 962 427 l 2,29,30
 970 427 970 427 980 421 c 128,-1,31
 990 415 990 415 990.5 403 c 128,-1,32
 991 391 991 391 981.5 361 c 128,-1,33
 972 331 972 331 957 280 c 2,34,-1
 933 201 l 1,35,36
 926 184 926 184 916.5 175.5 c 128,-1,37
 907 167 907 167 878 167 c 0,19,20
EndSplineSet
Validated: 1
EndChar

StartChar: greater
Encoding: 62 62 33
Width: 1051
GlyphClass: 2
Flags: MW
LayerCount: 2
Fore
SplineSet
1053 742 m 1,0,1
 1043 690 1043 690 1032 421 c 0,2,3
 1032 401 1032 401 1021 391 c 128,-1,4
 1010 381 1010 381 978 365 c 1,5,-1
 322 -17 l 1,6,7
 294 -29 294 -29 284 -29 c 0,8,9
 267 -29 267 -29 259 -10 c 0,10,11
 230 68 230 68 201.5 147 c 128,-1,12
 173 226 173 226 152.5 266.5 c 128,-1,13
 132 307 132 307 132 312 c 0,14,15
 132 321 132 321 144.5 327 c 128,-1,16
 157 333 157 333 194.5 352 c 128,-1,17
 232 371 232 371 279 394.5 c 128,-1,18
 326 418 326 418 377 444 c 128,-1,19
 428 470 428 470 473 492 c 0,20,21
 574 542 574 542 596 555 c 1,22,-1
 156 717 l 1,23,24
 144 718 144 718 144 740 c 1,25,26
 165 826 165 826 183 1061 c 1,27,28
 186 1077 186 1077 199 1077 c 256,29,30
 212 1077 212 1077 244 1068 c 1,31,32
 314 1041 314 1041 391 1012.5 c 128,-1,33
 468 984 468 984 545.5 955 c 128,-1,34
 623 926 623 926 698 898 c 0,35,36
 772 872 772 872 837 846 c 0,37,38
 998 782 998 782 1040 761 c 1,39,40
 1050 761 1050 761 1053 742 c 1,0,1
EndSplineSet
Validated: 1
EndChar

StartChar: question
Encoding: 63 63 34
Width: 1166
GlyphClass: 2
Flags: MW
LayerCount: 2
Fore
SplineSet
423 575 m 1,0,1
 433 581 433 581 433 599 c 1,2,3
 572 674 572 674 674 810 c 128,-1,4
 776 946 776 946 776 1049 c 0,5,6
 776 1105 776 1105 745 1140 c 128,-1,7
 714 1175 714 1175 658.5 1175 c 128,-1,8
 603 1175 603 1175 577 1166 c 0,9,10
 552 1156 552 1156 536 1141 c 0,11,12
 508 1115 508 1115 508 1082 c 0,13,14
 508 1050 508 1050 515 1031 c 128,-1,15
 522 1012 522 1012 522 1005 c 128,-1,16
 522 998 522 998 508 995 c 128,-1,17
 494 992 494 992 462 987 c 0,18,19
 348 969 348 969 285 951 c 0,20,21
 200 928 200 928 185 928 c 128,-1,22
 170 928 170 928 162.5 943 c 128,-1,23
 155 958 155 958 151 978 c 0,24,25
 144 1014 144 1014 144 1057 c 0,26,27
 144 1232 144 1232 308 1344 c 0,28,29
 458 1447 458 1447 656 1447 c 0,30,31
 880 1446 880 1446 1036 1316 c 0,32,33
 1104 1258 1104 1258 1141.5 1187 c 128,-1,34
 1179 1116 1179 1116 1179 1053 c 128,-1,35
 1179 990 1179 990 1159.5 934.5 c 128,-1,36
 1140 879 1140 879 1106.5 826 c 128,-1,37
 1073 773 1073 773 1028.5 723 c 128,-1,38
 984 673 984 673 935 627 c 0,39,40
 856 553 856 553 796 505 c 128,-1,41
 736 457 736 457 730 454 c 128,-1,42
 724 451 724 451 720 451 c 0,43,44
 708 451 708 451 687.5 462 c 128,-1,45
 667 473 667 473 636.5 487 c 128,-1,46
 606 501 606 501 577 513 c 0,47,48
 519 537 519 537 477.5 546 c 128,-1,49
 436 555 436 555 429.5 561.5 c 128,-1,50
 423 568 423 568 423 575 c 1,0,1
846 352 m 0,51,52
 867 352 867 352 867 322 c 1,53,-1
 839 14 l 2,54,55
 835 -19 835 -19 831.5 -31.5 c 128,-1,56
 828 -44 828 -44 809 -46 c 1,57,58
 554 -49 554 -49 497 -49 c 128,-1,59
 440 -49 440 -49 438.5 -47.5 c 0,60,61
 437.9375 -46.9375 437.9375 -46.9375 437.9375 -37.7265625 c 0,62,63
 437.9375 -22.375 437.9375 -22.375 439.5 17 c 0,64,65
 442 80 442 80 442 100 c 2,66,-1
 442 111 l 2,67,68
 442 117 442 117 442.5 125 c 128,-1,69
 443 133 443 133 444 151.5 c 128,-1,70
 445 170 445 170 447 202.5 c 128,-1,71
 449 235 449 235 451.5 278.5 c 128,-1,72
 454 322 454 322 458.5 334.5 c 128,-1,73
 463 347 463 347 481 350 c 1,74,75
 676 350 676 350 846 352 c 0,51,52
EndSplineSet
Validated: 1
EndChar

StartChar: at
Encoding: 64 64 35
Width: 1780
GlyphClass: 2
Flags: MW
LayerCount: 2
Fore
SplineSet
1377 184 m 0,0,1
 1198 184 1198 184 1079 348 c 1,2,3
 986 242 986 242 882 242 c 0,4,5
 758 242 758 242 669 334 c 0,6,7
 575 431 575 431 575 585 c 0,8,9
 574.991869919 586.601626016 574.991869919 586.601626016 574.991869919 588.198823452 c 0,10,11
 574.991869919 783.056910569 574.991869919 783.056910569 696 912 c 0,12,13
 812.078740157 1037.00787402 812.078740157 1037.00787402 969.498666997 1037.00787402 c 0,14,15
 970.748031496 1037.00787402 970.748031496 1037.00787402 972 1037 c 0,16,17
 1052 1037 1052 1037 1125 971 c 1,18,19
 1129 990 1129 990 1130.5 1001 c 128,-1,20
 1132 1012 1132 1012 1134 1018 c 0,21,22
 1138 1027 1138 1027 1164 1029 c 1,23,24
 1229 1019 1229 1019 1382 1019 c 1,25,-1
 1316 537 l 2,26,27
 1315 532 1315 532 1315 525 c 2,28,-1
 1315 511 l 2,29,30
 1315 426 1315 426 1358 394 c 0,31,32
 1371 384 1371 384 1388 384 c 128,-1,33
 1405 384 1405 384 1428 402 c 0,34,35
 1452 418 1452 418 1472 460 c 0,36,37
 1520 561 1520 561 1520 738 c 0,38,39
 1520 927 1520 927 1400 1047 c 0,40,41
 1267 1181 1267 1181 1026 1181 c 0,42,43
 828 1181 828 1181 688 1068 c 0,44,45
 572 975 572 975 508 818 c 0,46,47
 454 687 454 687 454 566.5 c 128,-1,48
 454 446 454 446 493 359 c 128,-1,49
 532 272 532 272 609 216 c 0,50,51
 756 110 756 110 1066 110 c 0,52,53
 1083 110 1083 110 1092 102 c 0,54,55
 1102 94 1102 94 1102 70 c 0,56,57
 1102 3 1102 3 1082 -70 c 0,58,59
 1060 -142 1060 -142 1052 -156 c 0,60,61
 1041 -176 1041 -176 1008 -176 c 0,62,63
 364 -176 364 -176 182 201 c 0,64,65
 120.496 326.984 120.496 326.984 120.496 483.966016 c 0,66,67
 120.496 485.232 120.496 485.232 120.5 486.5 c 0,68,69
 121 645 121 645 157.5 774.5 c 128,-1,70
 194 904 194 904 259.5 1012.5 c 128,-1,71
 325 1121 325 1121 416.5 1207.5 c 128,-1,72
 508 1294 508 1294 618 1354 c 0,73,74
 846 1478 846 1478 1115 1478 c 0,75,76
 1424 1478 1424 1478 1612 1258 c 0,77,78
 1788 1052 1788 1052 1789 737 c 0,79,80
 1789 524 1789 524 1665 356 c 0,81,82
 1608 278 1608 278 1533.5 231 c 128,-1,83
 1459 184 1459 184 1377 184 c 0,0,1
870 605 m 0,84,85
 870 448 870 448 958 448 c 0,86,87
 991 448 991 448 1047 486 c 1,88,89
 1084 729 1084 729 1088 791 c 1,90,91
 1040 836 1040 836 1005 836 c 128,-1,92
 970 836 970 836 950.5 822.5 c 128,-1,93
 931 809 931 809 917 788 c 128,-1,94
 903 767 903 767 894 741 c 0,95,96
 886 716 886 716 880 690 c 0,97,98
 870 646 870 646 870 605 c 0,84,85
EndSplineSet
Validated: 1
EndChar

StartChar: A
Encoding: 65 65 36
Width: 1386
GlyphClass: 2
Flags: MW
LayerCount: 2
Fore
SplineSet
835 219 m 1,0,-1
 657 216 l 1,1,2
 592 216 592 216 542 218 c 2,3,-1
 485 220 l 1,4,5
 441 97 441 97 408 22 c 128,-1,6
 375 -53 375 -53 367.5 -58 c 128,-1,7
 360 -63 360 -63 353 -63 c 128,-1,8
 346 -63 346 -63 297 -45 c 0,9,10
 184 -4 184 -4 67 73 c 1,11,12
 100 140 100 140 120 202 c 1,13,-1
 147 268 l 1,14,15
 43 424 43 424 43 521 c 0,16,17
 43 530 43 530 238 530 c 1,18,-1
 254 531 l 1,19,20
 277 591 277 591 299 645 c 128,-1,21
 321 699 321 699 343 754 c 0,22,23
 399 894 399 894 436 1004 c 0,24,25
 477 1127 477 1127 588 1383 c 0,26,27
 600 1412 600 1412 660 1432 c 0,28,29
 664 1433 664 1433 690.5 1441 c 128,-1,30
 717 1449 717 1449 751 1458 c 0,31,32
 838 1481 838 1481 872 1481 c 2,33,-1
 890 1481 l 2,34,35
 932 1481 932 1481 940 1444 c 1,36,37
 1082 1079 1082 1079 1129.5 920 c 128,-1,38
 1177 761 1177 761 1204 677 c 128,-1,39
 1231 593 1231 593 1258 513 c 128,-1,40
 1285 433 1285 433 1312.5 353 c 128,-1,41
 1340 273 1340 273 1369 188 c 1,42,43
 1387 114 1387 114 1418 80 c 0,44,45
 1423 74 1423 74 1423 69 c 256,46,47
 1423 63 1423 63 1404 57 c 2,48,-1
 1189 -13 l 1,49,50
 1056 -63 1056 -63 1031 -63 c 2,51,-1
 1025 -63 l 2,52,53
 1003 -63 1003 -63 995 -34 c 128,-1,54
 987 -5 987 -5 977 22 c 0,55,56
 968 48 968 48 958 74 c 0,57,58
 934 135 934 135 920 202 c 1,59,60
 913 219 913 219 835 219 c 1,0,-1
741 972 m 1,61,62
 696 804 696 804 649.5 676.5 c 128,-1,63
 603 549 603 549 597 528 c 1,64,-1
 597 519 l 2,65,66
 597 513 597 513 596 511 c 1,67,-1
 836 511 l 1,68,69
 825 560 825 560 812.5 610 c 128,-1,70
 800 660 800 660 788 715 c 0,71,72
 759 848 759 848 741 972 c 1,61,62
EndSplineSet
Validated: 1
EndChar

StartChar: B
Encoding: 66 66 37
Width: 1431
GlyphClass: 2
Flags: MW
LayerCount: 2
Fore
SplineSet
1422 1093 m 0,0,1
 1422 963 1422 963 1225 824 c 1,2,3
 1273 789 1273 789 1311.5 760.5 c 128,-1,4
 1350 732 1350 732 1377 701 c 0,5,6
 1432 638 1432 638 1432 546 c 128,-1,7
 1432 454 1432 454 1402.5 377.5 c 128,-1,8
 1373 301 1373 301 1321.5 235.5 c 128,-1,9
 1270 170 1270 170 1200 117 c 0,10,11
 1128 64 1128 64 1046 26 c 0,12,13
 878 -52 878 -52 688 -52 c 0,14,15
 549 -52 549 -52 253 13 c 1,16,17
 219 21 219 21 219 52 c 1,18,-1
 238 286 l 2,19,20
 262 584 262 584 302 1009 c 1,21,-1
 301 1009 l 2,22,23
 297 1009 297 1009 278.5 1002.5 c 128,-1,24
 260 996 260 996 236 988 c 0,25,26
 176.487804878 968.487804878 176.487804878 968.487804878 151.716835217 968.487804878 c 0,27,28
 151.097560976 968.487804878 151.097560976 968.487804878 150.5 968.5 c 0,29,30
 126 969 126 969 126 1001 c 0,31,32
 126 1026 126 1026 170 1129 c 128,-1,33
 214 1232 214 1232 243 1304 c 1,34,35
 465 1424 465 1424 733 1458 c 0,36,37
 816 1468 816 1468 909.5 1468 c 128,-1,38
 1003 1468 1003 1468 1099.5 1445 c 128,-1,39
 1196 1422 1196 1422 1268 1376 c 0,40,41
 1422 1276 1422 1276 1422 1093 c 0,0,1
714 1110 m 1,42,43
 673 853 673 853 654.5 583.5 c 128,-1,44
 636 314 636 314 629 233 c 1,45,46
 778 234 778 234 898 282 c 0,47,48
 1047.00662252 341.602649007 1047.00662252 341.602649007 1047.00662252 466.334020438 c 0,49,50
 1047.00662252 467.165562914 1047.00662252 467.165562914 1047 468 c 0,51,52
 1047.0041841 468.451882845 1047.0041841 468.451882845 1047.0041841 468.902435181 c 0,53,54
 1047.0041841 576.133891213 1047.0041841 576.133891213 810 608 c 0,55,56
 784 612 784 612 770 613 c 0,57,58
 748 616 748 616 748.5 636 c 128,-1,59
 749 656 749 656 765 682 c 128,-1,60
 781 708 781 708 809 753 c 2,61,-1
 851 820 l 1,62,63
 1031 887 1031 887 1031 977 c 0,64,65
 1031 1059 1031 1059 995.5 1102.5 c 128,-1,66
 960 1146 960 1146 888.5 1146 c 128,-1,67
 817 1146 817 1146 714 1110 c 1,42,43
EndSplineSet
Validated: 1
EndChar

StartChar: C
Encoding: 67 67 38
Width: 1294
GlyphClass: 2
Flags: MW
LayerCount: 2
Fore
SplineSet
1224 42 m 1,0,1
 1075 -52 1075 -52 798 -52 c 0,2,3
 657 -52 657 -52 534 2 c 0,4,5
 410 55 410 55 320 151 c 0,6,7
 126 358 126 358 126 676 c 0,8,9
 126 894 126 894 228 1077 c 0,10,11
 328 1256 328 1256 502 1360 c 0,12,13
 682 1468 682 1468 900 1468 c 0,14,15
 1171 1468 1171 1468 1309 1349 c 1,16,17
 1308 1349 1308 1349 1308 1342 c 2,18,-1
 1325 1011 l 1,19,20
 1325 990 1325 990 1301 990 c 0,21,22
 1271 990 1271 990 1232.5 1016 c 128,-1,23
 1194 1042 1194 1042 1152 1066 c 0,24,25
 1043 1126 1043 1126 951.5 1126 c 128,-1,26
 860 1126 860 1126 793 1093.5 c 128,-1,27
 726 1061 726 1061 679 1004 c 0,28,29
 580 884 580 884 580 697 c 0,30,31
 580 521 580 521 652 410 c 0,32,33
 732 287 732 287 870 287 c 0,34,35
 1028 287 1028 287 1128 328 c 0,36,37
 1164 343 1164 343 1186 355 c 128,-1,38
 1208 367 1208 367 1218 367 c 128,-1,39
 1228 367 1228 367 1228 339 c 2,40,-1
 1228 219 l 2,41,42
 1228 42 1228 42 1224 42 c 1,0,1
EndSplineSet
Validated: 1
EndChar

StartChar: D
Encoding: 68 68 39
Width: 1544
GlyphClass: 2
Flags: MW
LayerCount: 2
Fore
SplineSet
139 1095 m 0,0,1
 117 1095 117 1095 117 1117 c 128,-1,2
 117 1139 117 1139 123 1145 c 2,3,-1
 377 1382 l 1,4,5
 439 1438 439 1438 497 1452 c 0,6,7
 585 1472 585 1472 763 1472 c 0,8,9
 1099 1472 1099 1472 1282 1341 c 1,10,11
 1422 1244 1422 1244 1484 1138 c 0,12,13
 1555 1017 1555 1017 1555 846 c 128,-1,14
 1555 675 1555 675 1504 542 c 128,-1,15
 1453 409 1453 409 1365 309.5 c 128,-1,16
 1277 210 1277 210 1159.5 141 c 128,-1,17
 1042 72 1042 72 908 29 c 0,18,19
 657 -52 657 -52 353 -52 c 2,20,-1
 171 -52 l 1,21,22
 150 -48 150 -48 150 -30 c 128,-1,23
 150 -12 150 -12 154 -5 c 2,24,-1
 277 230 l 1,25,26
 280 243 280 243 288 356 c 128,-1,27
 296 469 296 469 300 518 c 128,-1,28
 304 567 304 567 307.5 611.5 c 128,-1,29
 311 656 311 656 313 677 c 128,-1,30
 315 698 315 698 317 722.5 c 128,-1,31
 319 747 319 747 321 779 c 128,-1,32
 323 811 323 811 326 848 c 2,33,-1
 332 922 l 1,34,-1
 346 1131 l 1,35,36
 184 1095 184 1095 139 1095 c 0,0,1
801 1168 m 0,37,38
 781 1168 781 1168 752 1152 c 1,39,-1
 740 1031 l 2,40,41
 725 870 725 870 717 774 c 128,-1,42
 709 678 709 678 703 606.5 c 128,-1,43
 697 535 697 535 692 473 c 0,44,45
 679 317 679 317 676 284 c 2,46,-1
 673 254 l 1,47,48
 902 254 902 254 1013 400 c 0,49,50
 1112 530 1112 530 1112 759 c 0,51,52
 1112 909 1112 909 1030 1040 c 256,53,54
 950 1168 950 1168 801 1168 c 0,37,38
EndSplineSet
Validated: 1
EndChar

StartChar: E
Encoding: 69 69 40
Width: 1178
GlyphClass: 2
Flags: MW
LayerCount: 2
Fore
SplineSet
699 866 m 1,0,1
 979 877 979 877 993 877 c 0,2,3
 1026 877 1026 877 1026 848 c 0,4,5
 1026 829 1026 829 997 765 c 0,6,7
 937 632 937 632 925 604.5 c 128,-1,8
 913 577 913 577 908 570.5 c 128,-1,9
 903 564 903 564 892 561 c 128,-1,10
 881 558 881 558 861.5 557.5 c 128,-1,11
 842 557 842 557 807 556 c 2,12,-1
 668 553 l 1,13,-1
 640 247 l 1,14,-1
 1153 247 l 1,15,-1
 1153 208 l 1,16,17
 1148 203 1148 203 1115 146 c 0,18,19
 1057 47 1057 47 1034.5 14 c 128,-1,20
 1012 -19 1012 -19 999 -29.5 c 128,-1,21
 986 -40 986 -40 970 -45 c 0,22,23
 941.830985915 -53.8028169014 941.830985915 -53.8028169014 853.406070224 -53.8028169014 c 0,24,25
 690.704225352 -53.8028169014 690.704225352 -53.8028169014 324 -24 c 0,26,27
 232 -16 232 -16 153 -9 c 0,28,29
 135 -6 135 -6 135 15 c 1,30,31
 134 15 134 15 134 17.5 c 128,-1,32
 134 20 134 20 142 34.5 c 128,-1,33
 150 49 150 49 167 76 c 0,34,35
 210 144 210 144 244 207 c 1,36,-1
 260 432 l 2,37,38
 264 489 264 489 266.5 517 c 128,-1,39
 269 545 269 545 269 547 c 1,40,41
 209 548 209 548 179.5 553 c 128,-1,42
 150 558 150 558 150 575 c 0,43,44
 150 590 150 590 209 668 c 128,-1,45
 268 746 268 746 286 772 c 1,46,-1
 311 1112 l 1,47,-1
 308 1112 l 1,48,49
 264 1110 264 1110 235 1110 c 0,50,51
 146 1110 146 1110 146 1136 c 0,52,53
 146 1150 146 1150 196 1228.5 c 128,-1,54
 246 1307 246 1307 262 1334 c 2,55,-1
 322 1436 l 1,56,-1
 740 1436 l 1,57,-1
 1233 1472 l 1,58,59
 1262 1472 1262 1472 1262 1443 c 1,60,-1
 1247 1391 l 1,61,62
 1234 1351 1234 1351 1208 1294 c 1,63,-1
 1164 1178 l 2,64,65
 1157 1161 1157 1161 1148 1152 c 128,-1,66
 1139 1143 1139 1143 1086.5 1141.5 c 128,-1,67
 1034 1140 1034 1140 940.5 1135.5 c 128,-1,68
 847 1131 847 1131 726 1127 c 1,69,70
 722 1113 722 1113 722 1104.5 c 128,-1,71
 722 1096 722 1096 720 1072 c 2,72,-1
 715 1026 l 1,73,74
 713 989 713 989 699 866 c 1,0,1
EndSplineSet
Validated: 1
EndChar

StartChar: F
Encoding: 70 70 41
Width: 1204
GlyphClass: 2
Flags: MW
LayerCount: 2
Fore
SplineSet
716 856 m 1,0,-1
 1110 869 l 2,1,2
 1118 869 1118 869 1128 863 c 128,-1,3
 1138 857 1138 857 1138 844.5 c 128,-1,4
 1138 832 1138 832 1134.5 819.5 c 128,-1,5
 1131 807 1131 807 1120 779 c 128,-1,6
 1109 751 1109 751 1095 715.5 c 128,-1,7
 1081 680 1081 680 1064 640.5 c 128,-1,8
 1047 601 1047 601 1035.5 573.5 c 128,-1,9
 1024 546 1024 546 1014.5 538 c 128,-1,10
 1005 530 1005 530 976 529 c 2,11,-1
 684 524 l 1,12,-1
 648 80 l 2,13,14
 646 58 646 58 637 52.5 c 128,-1,15
 628 47 628 47 607.5 37.5 c 128,-1,16
 587 28 587 28 556 15 c 128,-1,17
 525 2 525 2 488 -13 c 128,-1,18
 451 -28 451 -28 415 -40 c 0,19,20
 330 -70 330 -70 302 -70 c 0,21,22
 249 -70 249 -70 249 -32 c 0,23,24
 249 -21 249 -21 249 5 c 128,-1,25
 249 31 249 31 252 85 c 128,-1,26
 255 139 255 139 260 201.5 c 128,-1,27
 265 264 265 264 271 324.5 c 128,-1,28
 277 385 277 385 281 435 c 2,29,-1
 288 519 l 1,30,31
 204 519 204 519 168 523.5 c 128,-1,32
 132 528 132 528 132 547 c 0,33,34
 132 560 132 560 150 585 c 128,-1,35
 168 610 168 610 194.5 651 c 128,-1,36
 221 692 221 692 245.5 731 c 128,-1,37
 270 770 270 770 288.5 800 c 128,-1,38
 307 830 307 830 312 837 c 1,39,-1
 331 1112 l 1,40,-1
 230 1109 l 1,41,42
 141 1109 141 1109 141 1135 c 0,43,44
 141 1152 141 1152 191 1229 c 128,-1,45
 241 1306 241 1306 257 1333 c 2,46,-1
 317 1435 l 1,47,-1
 772 1451 l 2,48,49
 1032 1460 1032 1460 1308 1473 c 1,50,51
 1337 1473 1337 1473 1337 1444 c 0,52,53
 1337 1438 1337 1438 1323 1404 c 128,-1,54
 1309 1370 1309 1370 1283 1303 c 2,55,-1
 1239 1187 l 2,56,57
 1232 1170 1232 1170 1223 1161 c 128,-1,58
 1214 1152 1214 1152 1182.5 1151 c 128,-1,59
 1151 1150 1151 1150 1116 1148 c 128,-1,60
 1081 1146 1081 1146 1044 1144 c 2,61,-1
 740 1129 l 1,62,63
 728 1051 728 1051 728 1026.5 c 128,-1,64
 728 1002 728 1002 727 979 c 128,-1,65
 726 956 726 956 724 943 c 0,66,67
 724 930 724 930 722 918 c 0,68,69
 720 904 720 904 716 856 c 1,0,-1
EndSplineSet
Validated: 1
EndChar

StartChar: G
Encoding: 71 71 42
Width: 1463
GlyphClass: 2
Flags: MW
LayerCount: 2
Fore
SplineSet
1324 1012 m 1,0,1
 1324 991 1324 991 1300 991 c 0,2,3
 1270 991 1270 991 1232 1017 c 0,4,5
 1192 1042 1192 1042 1150 1066 c 0,6,7
 1045 1126 1045 1126 950 1126 c 0,8,9
 947.436619718 1126.02816901 947.436619718 1126.02816901 944.892283277 1126.02816901 c 0,10,11
 857.112676056 1126.02816901 857.112676056 1126.02816901 792 1092.5 c 0,12,13
 725 1058 725 1058 678 996 c 0,14,15
 579 866 579 866 579 667 c 0,16,17
 579 382 579 382 724 285 c 0,18,19
 772 253 772 253 836 253 c 128,-1,20
 900 253 900 253 980 280 c 1,21,-1
 1003 421 l 1,22,-1
 812 421 l 1,23,24
 853 648 853 648 873.5 699 c 128,-1,25
 894 750 894 750 909 759 c 128,-1,26
 924 768 924 768 944 768 c 2,27,-1
 1470 768 l 2,28,29
 1493 768 1493 768 1503.5 765 c 128,-1,30
 1514 762 1514 762 1514 748 c 128,-1,31
 1514 734 1514 734 1507 692 c 1,32,-1
 1457 524 l 1,33,34
 1439 460 1439 460 1428 450 c 0,35,36
 1414 437 1414 437 1358 437 c 0,37,38
 1342 437 1342 437 1339 424 c 128,-1,39
 1336 411 1336 411 1332 382 c 2,40,-1
 1322 310 l 2,41,42
 1300 149 1300 149 1287 121 c 1,43,44
 1130 21 1130 21 1064 -4 c 0,45,46
 942 -52 942 -52 799 -52 c 128,-1,47
 656 -52 656 -52 533 -1 c 128,-1,48
 410 50 410 50 320 142 c 0,49,50
 126 341 126 341 125 646 c 0,51,52
 125 874 125 874 227 1064 c 0,53,54
 326 1250 326 1250 501 1358 c 0,55,56
 678.415929204 1469.00884956 678.415929204 1469.00884956 895.127026392 1469.00884956 c 0,57,58
 897.061946903 1469.00884956 897.061946903 1469.00884956 899 1469 c 0,59,60
 1170 1469 1170 1469 1308 1350 c 1,61,62
 1307 1350 1307 1350 1307 1343 c 2,63,-1
 1324 1012 l 1,0,1
EndSplineSet
Validated: 1
EndChar

StartChar: H
Encoding: 72 72 43
Width: 1490
GlyphClass: 2
Flags: MW
LayerCount: 2
Fore
SplineSet
230 -69 m 0,0,1
 195 -69 195 -69 195 -26.5 c 128,-1,2
 195 16 195 16 198 78 c 0,3,4
 202 138 202 138 207 206 c 0,5,6
 213 289 213 289 233 485 c 1,7,-1
 235 514 l 1,8,9
 154 514 154 514 117.5 518.5 c 128,-1,10
 81 523 81 523 81 542 c 0,11,12
 81 555 81 555 98.5 579.5 c 128,-1,13
 116 604 116 604 142 644 c 0,14,15
 170 684 170 684 194 722 c 0,16,17
 248 807 248 807 263 830 c 1,18,-1
 286 1071 l 1,19,20
 286 1124 286 1124 297 1238 c 128,-1,21
 308 1352 308 1352 311.5 1366 c 128,-1,22
 315 1380 315 1380 335 1385 c 2,23,-1
 675 1468 l 2,24,25
 688 1472 688 1472 702 1472 c 256,26,27
 716 1472 716 1472 721 1463.5 c 128,-1,28
 726 1455 726 1455 726 1429 c 1,29,30
 719 1357 719 1357 715 1298 c 0,31,32
 710 1239 710 1239 706 1188 c 0,33,34
 695 1064 695 1064 683 997 c 1,35,-1
 663 842 l 1,36,-1
 1026 846 l 1,37,38
 1035 979 1035 979 1046 1072 c 0,39,40
 1057 1166 1057 1166 1060 1218 c 0,41,42
 1065 1306 1065 1306 1065 1329 c 0,43,44
 1065 1377 1065 1377 1098 1385 c 2,45,-1
 1442 1468 l 2,46,47
 1455 1472 1455 1472 1469 1472 c 256,48,49
 1483 1472 1483 1472 1488 1463.5 c 128,-1,50
 1493 1455 1493 1455 1493 1429 c 1,51,-1
 1481 1272 l 2,52,53
 1467 1080 1467 1080 1452 1016 c 1,54,-1
 1434 874 l 2,55,56
 1422 783 1422 783 1404 573 c 1,57,-1
 1357 80 l 2,58,59
 1354 55 1354 55 1343.5 50.5 c 128,-1,60
 1333 46 1333 46 1307.5 36 c 128,-1,61
 1282 26 1282 26 1247 13 c 128,-1,62
 1212 0 1212 0 1172 -14.5 c 128,-1,63
 1132 -29 1132 -29 1096 -41 c 0,64,65
 1012 -69 1012 -69 994 -69 c 0,66,67
 959 -69 959 -69 959 -33 c 0,68,69
 959 88 959 88 973 214.5 c 128,-1,70
 987 341 987 341 993.5 410.5 c 0,71,72
 999.535714286 475.035714286 999.535714286 475.035714286 999.535714286 489.992346939 c 0,73,74
 999.535714286 491.142857143 999.535714286 491.142857143 999.5 492 c 0,75,76
 999 504 999 504 1001 518 c 1,77,-1
 635 518 l 1,78,-1
 594 80 l 2,79,80
 591 55 591 55 582 51 c 128,-1,81
 573 47 573 47 537.5 34.5 c 128,-1,82
 502 22 502 22 456 6 c 0,83,84
 359 -28 359 -28 318 -44 c 0,85,86
 253 -69 253 -69 230 -69 c 0,0,1
EndSplineSet
Validated: 1
EndChar

StartChar: I
Encoding: 73 73 44
Width: 668
GlyphClass: 2
Flags: MW
LayerCount: 2
Fore
SplineSet
139 -32 m 1,0,-1
 189 652 l 2,1,2
 214 996 214 996 226 1157 c 2,3,-1
 238 1317 l 1,4,5
 241 1370 241 1370 249 1376.5 c 128,-1,6
 257 1383 257 1383 267 1385 c 2,7,-1
 613 1468 l 2,8,9
 626 1472 626 1472 640 1472 c 256,10,11
 654 1472 654 1472 659 1463.5 c 128,-1,12
 664 1455 664 1455 664 1429 c 1,13,14
 651 1310 651 1310 645.5 1190 c 128,-1,15
 640 1070 640 1070 635.5 1023 c 128,-1,16
 631 976 631 976 626.5 927 c 128,-1,17
 622 878 622 878 618 826 c 0,18,19
 606 664 606 664 599 587 c 2,20,-1
 555 60 l 2,21,22
 552 35 552 35 538 29 c 0,23,24
 537 29 537 29 526 25 c 0,25,26
 515 20 515 20 497 14 c 0,27,28
 455 -1 455 -1 407 -11.5 c 128,-1,29
 359 -22 359 -22 325.5 -32 c 128,-1,30
 292 -42 292 -42 266 -50 c 0,31,32
 209 -69 209 -69 174 -69 c 128,-1,33
 139 -69 139 -69 139 -32 c 1,0,-1
EndSplineSet
Validated: 1
EndChar

StartChar: J
Encoding: 74 74 45
Width: 762
GlyphClass: 2
Flags: MW
LayerCount: 2
Fore
SplineSet
737 1472 m 0,0,1
 762 1472 762 1472 762 1429 c 1,2,-1
 714 916 l 2,3,4
 702 777 702 777 693 697 c 0,5,6
 679 557 679 557 675 508 c 2,7,-1
 673 479 l 2,8,9
 656 242 656 242 536 78 c 0,10,11
 408 -96 408 -96 218 -96 c 0,12,13
 128 -96 128 -96 113 -89.5 c 128,-1,14
 98 -83 98 -83 95.5 -75.5 c 128,-1,15
 93 -68 93 -68 87 -57 c 1,16,-1
 54 186 l 2,17,18
 54 188 54 188 60.5 194.5 c 128,-1,19
 67 201 67 201 87 209 c 128,-1,20
 107 217 107 217 142 235 c 0,21,22
 176 254 176 254 204 278 c 0,23,24
 265 332 265 332 269 414 c 1,25,-1
 336 1317 l 1,26,27
 339 1371 339 1371 346.5 1377 c 128,-1,28
 354 1383 354 1383 365 1385 c 2,29,-1
 711 1468 l 2,30,31
 724 1472 724 1472 737 1472 c 0,0,1
EndSplineSet
Validated: 1
EndChar

StartChar: K
Encoding: 75 75 46
Width: 1411
GlyphClass: 2
Flags: MW
LayerCount: 2
Fore
SplineSet
176 -69 m 0,0,1
 141 -69 141 -69 141 -32 c 1,2,3
 162 215 162 215 179.5 478 c 128,-1,4
 197 741 197 741 208 898 c 2,5,-1
 236 1319 l 2,6,7
 239 1374 239 1374 246 1379.5 c 128,-1,8
 253 1385 253 1385 263 1387 c 2,9,-1
 609 1470 l 2,10,11
 622 1474 622 1474 636 1474 c 256,12,13
 650 1474 650 1474 655 1465.5 c 128,-1,14
 660 1457 660 1457 659 1436.5 c 128,-1,15
 658 1416 658 1416 656 1383.5 c 128,-1,16
 654 1351 654 1351 650.5 1309 c 128,-1,17
 647 1267 647 1267 644 1219.5 c 128,-1,18
 641 1172 641 1172 637.5 1127.5 c 128,-1,19
 634 1083 634 1083 630.5 1046 c 128,-1,20
 627 1009 627 1009 625 987 c 1,21,-1
 676 1039 l 1,22,-1
 818 1215 l 2,23,24
 844 1248 844 1248 870 1279.5 c 128,-1,25
 896 1311 896 1311 916.5 1336.5 c 128,-1,26
 937 1362 937 1362 950 1379 c 128,-1,27
 963 1396 963 1396 965 1398 c 1,28,-1
 1409 1435 l 2,29,30
 1411 1436 1411 1436 1418 1436 c 2,31,-1
 1426 1436 l 2,32,33
 1449 1436 1449 1436 1449 1426 c 0,34,35
 1449 1412 1449 1412 1428 1388 c 128,-1,36
 1407 1364 1407 1364 1376.5 1328.5 c 128,-1,37
 1346 1293 1346 1293 1310 1250.5 c 128,-1,38
 1274 1208 1274 1208 1236 1162 c 0,39,40
 1197 1116 1197 1116 1164 1078 c 0,41,42
 1097 1001 1097 1001 1078 976 c 1,43,-1
 1015 916 l 2,44,45
 951 855 951 855 851 764 c 1,46,47
 895 719 895 719 956.5 653.5 c 128,-1,48
 1018 588 1018 588 1044.5 560 c 128,-1,49
 1071 532 1071 532 1084 518 c 2,50,-1
 1393 160 l 2,51,52
 1400 151 1400 151 1415 146 c 0,53,54
 1441 136 1441 136 1441 129 c 128,-1,55
 1441 122 1441 122 1430.5 111.5 c 128,-1,56
 1420 101 1420 101 1398 85.5 c 128,-1,57
 1376 70 1376 70 1346.5 52 c 128,-1,58
 1317 34 1317 34 1283 15 c 0,59,60
 1250 -4 1250 -4 1218 -20 c 0,61,62
 1146 -55 1146 -55 1122 -55 c 128,-1,63
 1098 -55 1098 -55 1075 -36.5 c 128,-1,64
 1052 -18 1052 -18 1020 19.5 c 128,-1,65
 988 57 988 57 944 115 c 128,-1,66
 900 173 900 173 851 234.5 c 128,-1,67
 802 296 802 296 768 340 c 128,-1,68
 734 384 734 384 704 422 c 0,69,70
 632 513 632 513 609 540 c 1,71,72
 601 532 601 532 592 524.5 c 128,-1,73
 583 517 583 517 575 509 c 1,74,-1
 540 80 l 2,75,76
 537 54 537 54 523 49 c 2,77,-1
 240 -53 l 2,78,79
 196 -69 196 -69 176 -69 c 0,0,1
EndSplineSet
Validated: 1
EndChar

StartChar: L
Encoding: 76 76 47
Width: 1022
GlyphClass: 2
Flags: MW
LayerCount: 2
Fore
SplineSet
671 1445 m 1,0,-1
 636 1054 l 1,1,2
 629 940 629 940 615.5 805.5 c 128,-1,3
 602 671 602 671 596 604 c 128,-1,4
 590 537 590 537 582.5 455 c 128,-1,5
 575 373 575 373 567 267 c 1,6,-1
 981 309 l 2,7,8
 1009 312 1009 312 1029 312 c 128,-1,9
 1049 312 1049 312 1054.5 305 c 128,-1,10
 1060 298 1060 298 1060 289.5 c 128,-1,11
 1060 281 1060 281 1059 277.5 c 128,-1,12
 1058 274 1058 274 1054 264 c 0,13,14
 1041 227 1041 227 1027 182 c 2,15,-1
 1005 116 l 2,16,17
 978 37 978 37 962 16 c 0,18,19
 932 -24 932 -24 872 -29 c 0,20,21
 840 -32 840 -32 762 -35 c 0,22,23
 601 -40 601 -40 532 -43 c 128,-1,24
 463 -46 463 -46 406 -46.5 c 128,-1,25
 349 -47 349 -47 298 -48 c 0,26,27
 180 -50 180 -50 132 -51 c 128,-1,28
 84 -52 84 -52 84 -35 c 0,29,30
 84 -5 84 -5 115.5 59 c 128,-1,31
 147 123 147 123 160 149 c 1,32,-1
 187 506 l 1,33,34
 209 758 209 758 217 873 c 2,35,-1
 234 1138 l 2,36,37
 244 1295 244 1295 245 1317 c 128,-1,38
 246 1339 246 1339 247 1351 c 128,-1,39
 248 1363 248 1363 250 1371 c 0,40,41
 254 1385 254 1385 273 1389 c 2,42,-1
 624 1472 l 1,43,44
 635 1476 635 1476 653 1476 c 128,-1,45
 671 1476 671 1476 671 1445 c 1,0,-1
EndSplineSet
Validated: 1
EndChar

StartChar: M
Encoding: 77 77 48
Width: 1729
GlyphClass: 2
Flags: MW
LayerCount: 2
Fore
SplineSet
1437 1472 m 2,0,1
 1447 1474 1447 1474 1460 1474 c 0,2,3
 1492 1474 1492 1474 1499 1422 c 1,4,5
 1507 1352 1507 1352 1520.5 1264 c 128,-1,6
 1534 1176 1534 1176 1539 1140.5 c 128,-1,7
 1544 1105 1544 1105 1548 1079.5 c 128,-1,8
 1552 1054 1552 1054 1563.5 962 c 128,-1,9
 1575 870 1575 870 1592 763 c 128,-1,10
 1609 656 1609 656 1616 605 c 2,11,-1
 1683 64 l 1,12,-1
 1673 33 l 2,13,14
 1668 14 1668 14 1571.5 -12.5 c 128,-1,15
 1475 -39 1475 -39 1441 -48 c 0,16,17
 1365 -68 1365 -68 1359 -68 c 0,18,19
 1304 -68 1304 -68 1284 174 c 0,20,21
 1278 238 1278 238 1271.5 292 c 128,-1,22
 1265 346 1265 346 1260 396 c 128,-1,23
 1255 446 1255 446 1249 498 c 2,24,-1
 1210 790 l 1,25,-1
 839 111 l 1,26,27
 807 66 807 66 779 66 c 0,28,29
 733 66 733 66 717.5 120 c 128,-1,30
 702 174 702 174 688.5 217.5 c 128,-1,31
 675 261 675 261 663.5 297 c 128,-1,32
 652 333 652 333 642 367 c 0,33,34
 632 402 632 402 620 446 c 0,35,36
 601 515 601 515 554 699 c 1,37,-1
 523 555 l 1,38,-1
 379 -56 l 2,39,40
 376 -68 376 -68 354.5 -68 c 128,-1,41
 333 -68 333 -68 296.5 -60 c 128,-1,42
 260 -52 260 -52 220 -40 c 0,43,44
 89 -2 89 -2 76.5 10.5 c 128,-1,45
 64 23 64 23 64 33 c 128,-1,46
 64 43 64 43 67 56 c 0,47,48
 70 68 70 68 74 86 c 0,49,50
 83 122 83 122 95.5 155 c 128,-1,51
 108 188 108 188 118.5 234 c 128,-1,52
 129 280 129 280 138 327 c 128,-1,53
 147 374 147 374 154.5 417 c 128,-1,54
 162 460 162 460 169 489 c 2,55,-1
 292 1063 l 1,56,-1
 329 1225 l 2,57,58
 365 1384 365 1384 365 1395 c 1,59,-1
 615 1472 l 1,60,61
 649 1472 649 1472 653 1453 c 1,62,-1
 852 813 l 1,63,-1
 1125 1388 l 1,64,-1
 1437 1472 l 2,0,1
EndSplineSet
Validated: 1
EndChar

StartChar: N
Encoding: 78 78 49
Width: 1379
GlyphClass: 2
Flags: MW
LayerCount: 2
Fore
SplineSet
457 1482 m 1,0,-1
 475 1484 l 1,1,2
 496 1484 496 1484 506 1466 c 2,3,-1
 991 591 l 1,4,-1
 991 1340 l 1,5,6
 999 1373 999 1373 1005 1388 c 128,-1,7
 1011 1403 1011 1403 1031 1408 c 2,8,-1
 1290 1469 l 1,9,10
 1302 1473 1302 1473 1316 1473 c 0,11,12
 1342 1473 1342 1473 1341 1430 c 1,13,14
 1321 1350 1321 1350 1321 1026 c 2,15,-1
 1321 971 l 2,16,17
 1321 755 1321 755 1310 403 c 1,18,-1
 1304 232 l 2,19,20
 1303 227 1303 227 1303 223 c 2,21,-1
 1303 200 l 1,22,-1
 1304 151 l 2,23,24
 1304 121 1304 121 1286 107.5 c 128,-1,25
 1268 94 1268 94 1254 84.5 c 128,-1,26
 1240 75 1240 75 1217 61.5 c 128,-1,27
 1194 48 1194 48 1166 31 c 128,-1,28
 1138 14 1138 14 1108 -4 c 2,29,-1
 997 -69 l 1,30,-1
 533 645 l 1,31,-1
 491 60 l 1,32,33
 488 35 488 35 476.5 30 c 128,-1,34
 465 25 465 25 443 16.5 c 128,-1,35
 421 8 421 8 391.5 -3 c 128,-1,36
 362 -14 362 -14 330 -26 c 0,37,38
 297 -36 297 -36 268 -46 c 0,39,40
 208 -67 208 -67 186 -68 c 0,41,42
 151 -68 151 -68 151 -31 c 1,43,44
 161 94 161 94 174 241.5 c 128,-1,45
 187 389 187 389 199 544 c 0,46,47
 227 900 227 900 239 1147 c 0,48,49
 239 1153 239 1153 211 1201 c 0,50,51
 158 1292 158 1292 158 1300 c 0,52,53
 158 1312 158 1312 190 1331 c 2,54,-1
 457 1482 l 1,0,-1
EndSplineSet
Validated: 1
EndChar

StartChar: O
Encoding: 79 79 50
Width: 1616
GlyphClass: 2
Flags: MW
LayerCount: 2
Fore
SplineSet
570 776 m 0,0,1
 562 726 562 726 561.5 668 c 0,2,3
 561.484375 666.1875 561.484375 666.1875 561.484375 664.360839844 c 0,4,5
 561.484375 607.734375 561.484375 607.734375 576.5 537.5 c 0,6,7
 592 465 592 465 628 407 c 0,8,9
 709 277 709 277 869 277 c 1,10,11
 1103 292 1103 292 1172 554 c 0,12,13
 1197 650 1197 650 1197 746 c 128,-1,14
 1197 842 1197 842 1178 908.5 c 128,-1,15
 1159 975 1159 975 1121 1026 c 0,16,17
 1037 1139 1037 1139 895 1139 c 0,18,19
 786 1138 786 1138 704 1058 c 0,20,21
 601 956 601 956 570 776 c 0,0,1
740 -52 m 0,22,23
 606 -52 606 -52 488 4 c 128,-1,24
 370 60 370 60 288 156 c 0,25,26
 120 353 120 353 120 642 c 0,27,28
 120 950 120 950 289 1166 c 0,29,30
 451 1374 451 1374 722 1444 c 1,31,32
 739 1444 739 1444 748 1486 c 128,-1,33
 757 1528 757 1528 764 1547 c 128,-1,34
 771 1566 771 1566 784 1566 c 1,35,36
 1199 1523 1199 1523 1396 1359 c 0,37,38
 1619 1173 1619 1173 1619 796 c 0,39,40
 1619 550 1619 550 1501 350 c 0,41,42
 1389 161 1389 161 1192 55 c 0,43,44
 994 -52 994 -52 740 -52 c 0,22,23
EndSplineSet
Validated: 1
EndChar

StartChar: P
Encoding: 80 80 51
Width: 1342
GlyphClass: 2
Flags: MW
LayerCount: 2
Fore
SplineSet
293 1104 m 1,0,1
 189 1081 189 1081 162.5 1081 c 128,-1,2
 136 1081 136 1081 136 1099 c 1,3,4
 150 1148 150 1148 162 1192 c 0,5,6
 208 1365 208 1365 215 1375.5 c 128,-1,7
 222 1386 222 1386 232.5 1391.5 c 128,-1,8
 243 1397 243 1397 259.5 1401.5 c 128,-1,9
 276 1406 276 1406 297.5 1413 c 128,-1,10
 319 1420 319 1420 353.5 1427.5 c 128,-1,11
 388 1435 388 1435 432.5 1442.5 c 128,-1,12
 477 1450 477 1450 529 1457 c 0,13,14
 580 1464 580 1464 634 1470 c 0,15,16
 756 1482 756 1482 854 1482 c 128,-1,17
 952 1482 952 1482 1054 1461 c 128,-1,18
 1156 1440 1156 1440 1233 1390 c 0,19,20
 1401 1280 1401 1280 1401 1039 c 1,21,22
 1398 800 1398 800 1272 664 c 0,23,24
 1149 532 1149 532 960 474 c 0,25,26
 841 438 841 438 721 438 c 0,27,28
 682 438 682 438 642 442 c 1,29,-1
 609 77 l 1,30,-1
 592 46 l 2,31,32
 588 39 588 39 478 2 c 2,33,-1
 415 -19 l 2,34,35
 385 -30 385 -30 362 -39 c 128,-1,36
 339 -48 339 -48 319 -55 c 0,37,38
 279 -69 279 -69 244.5 -69 c 128,-1,39
 210 -69 210 -69 210 -35 c 1,40,-1
 221 136 l 2,41,42
 224 187 224 187 228.5 238.5 c 128,-1,43
 233 290 233 290 237 356 c 1,44,-1
 256 595 l 2,45,46
 262 668 262 668 267 741 c 128,-1,47
 272 814 272 814 277 880 c 128,-1,48
 282 946 282 946 286 1003.5 c 128,-1,49
 290 1061 290 1061 293 1104 c 1,0,1
670 740 m 0,50,51
 669.958333333 739.041666667 669.958333333 739.041666667 669.958333333 738.116319444 c 0,52,53
 669.958333333 712.157894737 669.958333333 712.157894737 702.747922438 712.157894737 c 0,54,55
 724.894736842 712.157894737 724.894736842 712.157894737 762 724 c 0,56,57
 846 751 846 751 911 823 c 0,58,59
 977 897 977 897 977 1034 c 0,60,61
 977 1104 977 1104 928.5 1137 c 128,-1,62
 880 1170 880 1170 802 1170 c 0,63,64
 747 1170 747 1170 727 1159 c 128,-1,65
 707 1148 707 1148 706 1139 c 2,66,-1
 704 1117 l 2,67,68
 703 1104 703 1104 700 1074.5 c 128,-1,69
 697 1045 697 1045 693.5 1007 c 128,-1,70
 690 969 690 969 686 927 c 0,71,72
 684 885 684 885 680 847 c 0,73,74
 672 759 672 759 670 740 c 0,50,51
EndSplineSet
Validated: 1
EndChar

StartChar: Q
Encoding: 81 81 52
Width: 1616
GlyphClass: 2
Flags: MW
LayerCount: 2
Fore
SplineSet
1143 22 m 1,0,1
 963 -52 963 -52 780 -52 c 2,2,-1
 756 -52 l 2,3,4
 466 -52 466 -52 288 156 c 0,5,6
 120 353 120 353 120 642 c 0,7,8
 120 950 120 950 289 1166 c 0,9,10
 451 1374 451 1374 722 1444 c 1,11,12
 738 1444 738 1444 746 1480 c 128,-1,13
 754 1516 754 1516 758.5 1535 c 128,-1,14
 763 1554 763 1554 773 1562 c 1,15,16
 1125 1514 1125 1514 1244 1453 c 0,17,18
 1370 1389 1370 1389 1422 1337 c 128,-1,19
 1474 1285 1474 1285 1504 1237 c 0,20,21
 1599 1086 1599 1086 1611 936 c 1,22,23
 1622 852 1622 852 1622 764 c 0,24,25
 1622 432 1622 432 1409 206 c 1,26,27
 1536 70 1536 70 1536 45 c 0,28,29
 1536 9 1536 9 1359 -83 c 0,30,31
 1297 -115 1297 -115 1291 -115 c 0,32,33
 1280 -115 1280 -115 1266 -101 c 2,34,-1
 1143 22 l 1,0,1
1145 474 m 1,35,36
 1197 597 1197 597 1197 738 c 128,-1,37
 1197 879 1197 879 1158.5 963.5 c 128,-1,38
 1120 1048 1120 1048 1025 1105 c 0,39,40
 966 1140 966 1140 876 1140 c 256,41,42
 768 1140 768 1140 677 1032 c 0,43,44
 620 964 620 964 605 920.5 c 128,-1,45
 590 877 590 877 582 836 c 0,46,47
 566 761 566 761 566 687 c 0,48,49
 566 526 566 526 623 416 c 0,50,51
 624 415 624 415 624 414 c 0,52,53
 705 277 705 277 869 277 c 1,54,-1
 889 279 l 1,55,56
 824 355 824 355 824 371.5 c 128,-1,57
 824 388 824 388 852 403 c 2,58,-1
 1085 520 l 2,59,60
 1091 523 1091 523 1097 523 c 128,-1,61
 1103 523 1103 523 1114 509 c 128,-1,62
 1125 495 1125 495 1145 474 c 1,35,36
EndSplineSet
Validated: 1
EndChar

StartChar: R
Encoding: 82 82 53
Width: 1473
GlyphClass: 2
Flags: MW
LayerCount: 2
Fore
SplineSet
870 1472 m 1,0,1
 1417 1461 1417 1461 1417 1083 c 0,2,3
 1416 884 1416 884 1190 741 c 0,4,5
 1134 705 1134 705 1088 687 c 1,6,7
 1088 683 1088 683 1104 657 c 128,-1,8
 1120 631 1120 631 1135.5 605.5 c 128,-1,9
 1151 580 1151 580 1173 540 c 0,10,11
 1196 500 1196 500 1226 446 c 0,12,13
 1307 301 1307 301 1388 180 c 1,14,15
 1412 159 1412 159 1449.5 158 c 128,-1,16
 1487 157 1487 157 1500 155.5 c 128,-1,17
 1513 154 1513 154 1513 144.5 c 128,-1,18
 1513 135 1513 135 1496.5 124.5 c 128,-1,19
 1480 114 1480 114 1458 103 c 128,-1,20
 1436 92 1436 92 1413.5 82 c 128,-1,21
 1391 72 1391 72 1373 63 c 128,-1,22
 1355 54 1355 54 1329 43 c 128,-1,23
 1303 32 1303 32 1273 18 c 0,24,25
 1204 -13 1204 -13 1158 -38 c 0,26,27
 1103 -68 1103 -68 1083.5 -68 c 128,-1,28
 1064 -68 1064 -68 1051 -59.5 c 128,-1,29
 1038 -51 1038 -51 1029 -39 c 128,-1,30
 1020 -27 1020 -27 1014.5 -14.5 c 128,-1,31
 1009 -2 1009 -2 1005 6 c 2,32,-1
 707 634 l 1,33,-1
 658 80 l 2,34,35
 655 55 655 55 646 51 c 128,-1,36
 637 47 637 47 601.5 34.5 c 128,-1,37
 566 22 566 22 520 6 c 0,38,39
 418 -30 418 -30 382 -44 c 0,40,41
 318 -69 318 -69 294 -69 c 0,42,43
 259 -69 259 -69 259 -30.5 c 128,-1,44
 259 8 259 8 261.5 44.5 c 128,-1,45
 264 81 264 81 268 121 c 0,46,47
 280 241 280 241 285 327 c 128,-1,48
 290 413 290 413 296 494.5 c 128,-1,49
 302 576 302 576 308 664 c 1,50,-1
 322 835 l 2,51,52
 329 930 329 930 334 1010 c 1,53,-1
 345 1132 l 2,54,55
 345 1134 345 1134 339 1134 c 1,56,-1
 145 1101 l 1,57,58
 122 1101 122 1101 122 1113 c 0,59,60
 122 1117 122 1117 124 1119 c 2,61,-1
 286 1402 l 1,62,63
 607 1472 607 1472 870 1472 c 1,0,1
719 757 m 1,64,65
 823 757 823 757 925 850 c 0,66,67
 1028 944 1028 944 1028 1048 c 0,68,69
 1028 1193 1028 1193 854 1193 c 0,70,71
 821 1193 821 1193 799 1188.5 c 128,-1,72
 777 1184 777 1184 759 1182 c 1,73,-1
 719 757 l 1,64,65
EndSplineSet
Validated: 1
EndChar

StartChar: S
Encoding: 83 83 54
Width: 1099
GlyphClass: 2
Flags: MW
LayerCount: 2
Fore
SplineSet
730 1160 m 0,0,1
 578 1160 578 1160 578 1053 c 0,2,3
 578 1019 578 1019 586.5 994 c 128,-1,4
 595 969 595 969 629 947 c 2,5,-1
 869 784 l 1,6,7
 1042 662 1042 662 1072 508 c 0,8,9
 1080 464 1080 464 1080 407 c 128,-1,10
 1080 350 1080 350 1057 288 c 128,-1,11
 1034 226 1034 226 994 173.5 c 128,-1,12
 954 121 954 121 900.5 79.5 c 128,-1,13
 847 38 847 38 786 8 c 0,14,15
 661 -52 661 -52 531 -52 c 0,16,17
 347 -52 347 -52 280 -30.5 c 128,-1,18
 213 -9 213 -9 175 15 c 1,19,-1
 158 372 l 1,20,-1
 157 376 l 1,21,22
 157 393 157 393 175 393 c 0,23,24
 184 393 184 393 195 384 c 1,25,26
 313 273 313 273 459 273 c 0,27,28
 552 273 552 273 598 320 c 0,29,30
 614 336 614 336 615 364 c 0,31,32
 615 418 615 418 564 454 c 0,33,34
 522 482 522 482 432 557 c 128,-1,35
 342 632 342 632 333 640 c 1,36,37
 180 754 180 754 164 924 c 0,38,39
 159 976 159 976 159 1050 c 128,-1,40
 159 1124 159 1124 201 1203 c 0,41,42
 244 1282 244 1282 320 1340 c 0,43,44
 487 1468 487 1468 741 1468 c 0,45,46
 832 1468 832 1468 905 1442.5 c 128,-1,47
 978 1417 978 1417 1000 1402 c 128,-1,48
 1022 1387 1022 1387 1028.5 1379 c 128,-1,49
 1035 1371 1035 1371 1038.5 1322 c 128,-1,50
 1042 1273 1042 1273 1045 1194.5 c 128,-1,51
 1048 1116 1048 1116 1053 1028 c 1,52,53
 1053 1000 1053 1000 1028 1000 c 256,54,55
 1017 1000 1017 1000 999.5 1017.5 c 128,-1,56
 982 1035 982 1035 951 1063 c 0,57,58
 920 1090 920 1090 886 1112 c 0,59,60
 811 1160 811 1160 730 1160 c 0,0,1
EndSplineSet
Validated: 1
EndChar

StartChar: T
Encoding: 84 84 55
Width: 1159
GlyphClass: 2
Flags: MW
LayerCount: 2
Fore
SplineSet
393 -69 m 0,0,1
 358 -69 358 -69 358 -36 c 2,2,-1
 358 -32 l 1,3,4
 363 41 363 41 368 109 c 128,-1,5
 373 177 373 177 377 241 c 2,6,-1
 413 713 l 1,7,8
 426 826 426 826 440 1081 c 1,9,10
 407 1082 407 1082 370 1082 c 2,11,-1
 101 1082 l 2,12,13
 85 1082 85 1082 85 1106 c 2,14,-1
 85 1113 l 1,15,-1
 195 1402 l 1,16,-1
 194 1406 l 1,17,18
 194 1417 194 1417 230 1420 c 1,19,20
 626 1443 626 1443 753 1449 c 2,21,-1
 1006 1461 l 2,22,23
 1209.41176471 1470.94117647 1209.41176471 1470.94117647 1267.21453287 1470.94117647 c 0,24,25
 1285 1470.94117647 1285 1470.94117647 1289 1470 c 0,26,27
 1306 1466 1306 1466 1306 1447 c 1,28,-1
 1274 1361 l 2,29,30
 1260 1324 1260 1324 1248 1288 c 0,31,32
 1212 1188 1212 1188 1201.5 1162 c 128,-1,33
 1191 1136 1191 1136 1188 1128 c 0,34,35
 1185 1118 1185 1118 1179 1108 c 0,36,37
 1162 1080 1162 1080 1148 1080 c 0,38,39
 1133 1080 1133 1080 1128 1080 c 2,40,-1
 850 1080 l 1,41,42
 845 1029 845 1029 840.5 972 c 128,-1,43
 836 915 836 915 830 861 c 2,44,-1
 757 80 l 2,45,46
 754 54 754 54 740 49 c 2,47,-1
 457 -53 l 2,48,49
 413 -69 413 -69 393 -69 c 0,0,1
EndSplineSet
Validated: 1
EndChar

StartChar: U
Encoding: 85 85 56
Width: 1378
GlyphClass: 2
Flags: MW
LayerCount: 2
Fore
SplineSet
1354 1473 m 256,0,1
 1381 1473 1381 1473 1380 1438 c 128,-1,2
 1379 1403 1379 1403 1374 1350.5 c 128,-1,3
 1369 1298 1369 1298 1362.5 1231.5 c 128,-1,4
 1356 1165 1356 1165 1349 1092 c 0,5,6
 1342 1018 1342 1018 1336 952 c 0,7,8
 1321 801 1321 801 1317 751 c 1,9,10
 1275 328 1275 328 1113 136 c 0,11,12
 954 -52 954 -52 652 -52 c 0,13,14
 442 -52 442 -52 299 91 c 0,15,16
 152 238 152 238 152 467 c 0,17,18
 152 498 152 498 159 586 c 0,19,20
 171 742 171 742 183 902 c 2,21,-1
 195 1068 l 2,22,23
 201 1159 201 1159 204 1220 c 0,24,25
 206 1280 206 1280 210 1317 c 0,26,27
 217 1384 217 1384 243 1393 c 1,28,-1
 584 1469 l 1,29,30
 597 1473 597 1473 612 1473 c 128,-1,31
 627 1473 627 1473 632.5 1464 c 128,-1,32
 638 1455 638 1455 638 1430 c 1,33,-1
 562 642 l 1,34,35
 560 607 560 607 555 566 c 128,-1,36
 550 525 550 525 550 490.5 c 128,-1,37
 550 456 550 456 556.5 425 c 128,-1,38
 563 394 563 394 580 366 c 0,39,40
 620 302 620 302 690 302 c 128,-1,41
 760 302 760 302 795 326 c 0,42,43
 830 352 830 352 851 392 c 0,44,45
 882 451 882 451 892 551 c 0,46,47
 908 711 908 711 923 919 c 2,48,-1
 952 1318 l 2,49,50
 954 1336 954 1336 954.5 1348 c 128,-1,51
 955 1360 955 1360 957 1368 c 0,52,53
 961 1382 961 1382 986 1386 c 1,54,-1
 1327 1469 l 2,55,56
 1340 1473 1340 1473 1354 1473 c 256,0,1
EndSplineSet
Validated: 1
EndChar

StartChar: V
Encoding: 86 86 57
Width: 1305
GlyphClass: 2
Flags: MW
LayerCount: 2
Fore
SplineSet
879 88 m 2,0,1
 874 75 874 75 869.5 63 c 128,-1,2
 865 51 865 51 858 41 c 0,3,4
 843 19 843 19 797 4.5 c 128,-1,5
 751 -10 751 -10 689 -24 c 0,6,7
 628 -40 628 -40 590 -52 c 0,8,9
 539 -68 539 -68 524 -68 c 0,10,11
 497 -68 497 -68 488 -36 c 1,12,-1
 146 1324 l 1,13,14
 138 1350 138 1350 138 1369.5 c 128,-1,15
 138 1389 138 1389 152 1403.5 c 128,-1,16
 166 1418 166 1418 198 1428 c 0,17,18
 278 1452 278 1452 380.5 1462.5 c 128,-1,19
 483 1473 483 1473 506 1473 c 128,-1,20
 529 1473 529 1473 538.5 1463.5 c 128,-1,21
 548 1454 548 1454 556 1434 c 1,22,-1
 747 608 l 1,23,-1
 1016 1367 l 2,24,25
 1029 1402 1029 1402 1043 1410 c 0,26,27
 1092 1439 1092 1439 1210 1456 c 128,-1,28
 1328 1473 1328 1473 1362 1473 c 0,29,30
 1419 1473 1419 1473 1419 1438 c 1,31,32
 1420 1431 1420 1431 1416.5 1423.5 c 128,-1,33
 1413 1416 1413 1416 1409 1405 c 2,34,-1
 879 88 l 2,0,1
EndSplineSet
Validated: 1
EndChar

StartChar: W
Encoding: 87 87 58
Width: 1832
GlyphClass: 2
Flags: MW
LayerCount: 2
Fore
SplineSet
1894 1473 m 1,0,1
 1919 1473 1919 1473 1919 1438 c 0,2,3
 1919 1426 1919 1426 1917 1422 c 2,4,-1
 1503 164 l 1,5,6
 1469 76 1469 76 1457 57.5 c 128,-1,7
 1445 39 1445 39 1431.5 28 c 128,-1,8
 1418 17 1418 17 1395.5 6 c 128,-1,9
 1373 -5 1373 -5 1339 -19.5 c 128,-1,10
 1305 -34 1305 -34 1270 -51 c 128,-1,11
 1235 -68 1235 -68 1222 -68 c 0,12,13
 1201 -68 1201 -68 1188 -29 c 1,14,-1
 1017 580 l 1,15,-1
 803 139 l 1,16,17
 790 109 790 109 731 57.5 c 128,-1,18
 672 6 672 6 658.5 -5.5 c 128,-1,19
 645 -17 645 -17 630.5 -28 c 128,-1,20
 616 -39 616 -39 601 -48 c 0,21,22
 567.886597938 -67.9587628866 567.886597938 -67.9587628866 546.70730152 -67.9587628866 c 0,23,24
 521.195876289 -67.9587628866 521.195876289 -67.9587628866 513 -39 c 2,25,-1
 125 1329 l 2,26,27
 123 1337 123 1337 120.5 1345 c 128,-1,28
 118 1353 118 1353 118 1369 c 128,-1,29
 118 1385 118 1385 130 1402 c 128,-1,30
 142 1419 142 1419 172 1431 c 0,31,32
 227 1453 227 1453 379 1463 c 1,33,34
 444 1472 444 1472 477 1472 c 128,-1,35
 510 1472 510 1472 519 1463 c 128,-1,36
 528 1454 528 1454 535 1433 c 1,37,-1
 741 640 l 1,38,-1
 912 934 l 1,39,-1
 843 1235 l 2,40,41
 837 1259 837 1259 837.5 1276.5 c 128,-1,42
 838 1294 838 1294 850 1308 c 128,-1,43
 862 1322 862 1322 890 1331 c 0,44,45
 959 1353 959 1353 1052.5 1362 c 128,-1,46
 1146 1371 1146 1371 1168 1371 c 0,47,48
 1208 1371 1208 1371 1218 1333 c 1,49,-1
 1354 717 l 1,50,-1
 1551 1357 l 2,51,52
 1556 1375 1556 1375 1562 1386.5 c 128,-1,53
 1568 1398 1568 1398 1589 1403 c 2,54,-1
 1884 1471 l 1,55,-1
 1894 1473 l 1,0,1
EndSplineSet
Validated: 1
EndChar

StartChar: X
Encoding: 88 88 59
Width: 1244
GlyphClass: 2
Flags: MW
LayerCount: 2
Fore
SplineSet
103 -69 m 1,0,1
 82 -69 82 -69 82 -54 c 0,2,3
 82 -21 82 -21 223 230 c 0,4,5
 241 262 241 262 272 321 c 128,-1,6
 303 380 303 380 359 481 c 2,7,-1
 472 685 l 1,8,-1
 124 1306 l 2,9,10
 114 1323 114 1323 114 1337.5 c 128,-1,11
 114 1352 114 1352 122 1355 c 2,12,-1
 446 1442 l 1,13,-1
 454 1444 l 1,14,-1
 463 1444 l 2,15,16
 499 1444 499 1444 528 1393 c 0,17,18
 539 1373 539 1373 559.5 1334 c 128,-1,19
 580 1295 580 1295 604 1250 c 128,-1,20
 628 1205 628 1205 652 1159.5 c 128,-1,21
 676 1114 676 1114 694 1081 c 1,22,-1
 860 1367 l 1,23,-1
 1256 1447 l 2,24,25
 1266 1449 1266 1449 1275 1449 c 0,26,27
 1297 1449 1297 1449 1297 1432 c 0,28,29
 1297 1416 1297 1416 1286 1396 c 2,30,-1
 1105 1073 l 1,31,-1
 1033 950 l 2,32,33
 954 817 954 817 896 717 c 1,34,35
 944 637 944 637 965.5 594 c 128,-1,36
 987 551 987 551 992 542 c 2,37,-1
 1235 81 l 1,38,-1
 1232 44 l 2,39,40
 1232 32 1232 32 1170 5 c 128,-1,41
 1108 -22 1108 -22 1078 -32 c 2,42,-1
 1007 -56 l 1,43,-1
 946 -69 l 1,44,45
 915 -69 915 -69 893 -36 c 0,46,47
 836 49 836 49 783 145 c 1,48,-1
 673 339 l 1,49,-1
 515 72 l 1,50,-1
 484 42 l 1,51,52
 478 24 478 24 228 -44 c 0,53,54
 197 -52 197 -52 177 -57 c 1,55,-1
 103 -69 l 1,0,1
EndSplineSet
Validated: 1
EndChar

StartChar: Y
Encoding: 89 89 60
Width: 1115
GlyphClass: 2
Flags: MW
LayerCount: 2
Fore
SplineSet
325 -37 m 2,0,-1
 325 -33 l 1,1,2
 332 67 332 67 362 247 c 1,3,-1
 418 618 l 1,4,5
 386 686 386 686 338 790 c 128,-1,6
 290 894 290 894 258 963 c 0,7,8
 224 1032 224 1032 196 1094 c 0,9,10
 162 1170 162 1170 112 1271 c 1,11,12
 107 1286 107 1286 107 1298 c 0,13,14
 107 1325 107 1325 116 1330.5 c 128,-1,15
 125 1336 125 1336 139.5 1342.5 c 128,-1,16
 154 1349 154 1349 173.5 1357 c 128,-1,17
 193 1365 193 1365 215.5 1374.5 c 128,-1,18
 238 1384 238 1384 261 1393 c 2,19,-1
 377 1439 l 2,20,21
 390 1445 390 1445 400 1445 c 0,22,23
 420 1445 420 1445 440 1424 c 1,24,-1
 671 976 l 1,25,-1
 776 1174 l 2,26,27
 795 1208 795 1208 813.5 1241 c 128,-1,28
 832 1274 832 1274 846 1300 c 0,29,30
 878 1358 878 1358 883 1358 c 1,31,-1
 1226 1444 l 2,32,33
 1238 1447 1238 1447 1246 1447 c 0,34,35
 1269 1447 1269 1447 1269 1426 c 1,36,37
 1268 1421 1268 1421 1267 1412.5 c 128,-1,38
 1266 1404 1266 1404 1261 1394 c 2,39,-1
 967 849 l 2,40,41
 915 752 915 752 886 702 c 0,42,43
 841 624 841 624 815 574 c 1,44,-1
 752 166 l 1,45,46
 744 118 744 118 735.5 110.5 c 128,-1,47
 727 103 727 103 717 98 c 2,48,-1
 433 -51 l 2,49,50
 397 -69 397 -69 361 -69 c 128,-1,51
 325 -69 325 -69 325 -37 c 2,0,-1
EndSplineSet
Validated: 1
EndChar

StartChar: Z
Encoding: 90 90 61
Width: 1249
GlyphClass: 2
Flags: MW
LayerCount: 2
Fore
SplineSet
872 -2 m 2,0,-1
 205 0 l 2,1,2
 136 0 136 0 136 60 c 1,3,-1
 138 68 l 1,4,-1
 659 982 l 1,5,6
 659 993 659 993 527.5 995 c 128,-1,7
 396 997 396 997 367.5 997.5 c 128,-1,8
 339 998 339 998 329 998 c 2,9,-1
 130 995 l 2,10,11
 119 995 119 995 111 1002.5 c 128,-1,12
 103 1010 103 1010 103.5 1015.5 c 128,-1,13
 104 1021 104 1021 104 1023 c 128,-1,14
 104 1025 104 1025 105 1028 c 2,15,-1
 234 1337 l 2,16,17
 262 1406 262 1406 389 1406 c 128,-1,18
 516 1406 516 1406 622 1401.5 c 128,-1,19
 728 1397 728 1397 834 1392 c 0,20,21
 1129 1378 1129 1378 1258 1378 c 1,22,-1
 1258 1337 l 1,23,-1
 771 427 l 1,24,-1
 770 422 l 1,25,26
 770 408 770 408 798 408 c 2,27,-1
 996 408 l 1,28,-1
 1228 423 l 2,29,30
 1240 423 1240 423 1250 415.5 c 128,-1,31
 1260 408 1260 408 1260 397 c 1,32,-1
 1258 388 l 1,33,-1
 1097 68 l 1,34,35
 1077 7 1077 7 948 0 c 0,36,37
 911 -2 911 -2 872 -2 c 2,0,-1
EndSplineSet
Validated: 1
EndChar

StartChar: bracketleft
Encoding: 91 91 62
Width: 804
GlyphClass: 2
Flags: MW
LayerCount: 2
Fore
SplineSet
226 1322 m 1,0,1
 228 1381 228 1381 256 1389 c 0,2,3
 263 1391 263 1391 269 1392 c 2,4,-1
 880 1450 l 1,5,6
 909 1450 909 1450 909 1421 c 1,7,8
 902 1377 902 1377 855 1257 c 2,9,-1
 811 1141 l 2,10,11
 801 1113 801 1113 778 1108 c 0,12,13
 746 1100 746 1100 623 1090 c 1,14,15
 619 1062 619 1062 608 951 c 0,16,17
 590 760 590 760 572 592 c 1,18,-1
 538 177 l 1,19,-1
 731 179 l 2,20,21
 743 178 743 178 743 170 c 0,22,23
 743 157 743 157 736.5 146.5 c 128,-1,24
 730 136 730 136 720 110 c 0,25,26
 710 86 710 86 698 52 c 0,27,28
 681 3 681 3 650 -72 c 1,29,30
 628 -113 628 -113 573 -113 c 0,31,32
 544 -113 544 -113 501 -109.5 c 128,-1,33
 458 -106 458 -106 409.5 -104 c 128,-1,34
 361 -102 361 -102 314 -100 c 0,35,36
 200 -94 200 -94 165 -86 c 128,-1,37
 130 -78 130 -78 127.5 -67.5 c 128,-1,38
 125 -57 125 -57 125 -49 c 128,-1,39
 125 -41 125 -41 127.5 -3 c 128,-1,40
 130 35 130 35 134.5 96.5 c 128,-1,41
 139 158 139 158 144.5 237 c 128,-1,42
 150 316 150 316 156.5 402.5 c 128,-1,43
 163 489 163 489 170 579 c 128,-1,44
 177 669 177 669 183 751 c 2,45,-1
 226 1322 l 1,0,1
EndSplineSet
Validated: 1
EndChar

StartChar: backslash
Encoding: 92 92 63
Width: 1094
GlyphClass: 2
Flags: MW
LayerCount: 2
Fore
SplineSet
556 1207 m 128,-1,1
 612 1075 612 1075 673 942 c 128,-1,2
 734 809 734 809 784 697 c 128,-1,3
 834 585 834 585 879 485 c 0,4,5
 992 233 992 233 1026 160.5 c 128,-1,6
 1060 88 1060 88 1060 78.5 c 128,-1,7
 1060 69 1060 69 1047.5 59 c 128,-1,8
 1035 49 1035 49 1018.5 41.5 c 128,-1,9
 1002 34 1002 34 985.5 28.5 c 128,-1,10
 969 23 969 23 962 20 c 2,11,-1
 861 -22 l 2,12,13
 846 -29 846 -29 833 -29 c 128,-1,14
 820 -29 820 -29 816.5 -15.5 c 128,-1,15
 813 -2 813 -2 806 15 c 2,16,-1
 165 1429 l 2,17,18
 164 1430 164 1430 164 1434 c 0,19,20
 164 1440 164 1440 180 1445 c 1,21,22
 233 1455 233 1455 285.5 1480.5 c 128,-1,23
 338 1506 338 1506 392 1528 c 1,24,-1
 398 1528 l 2,25,26
 412 1528 412 1528 419.5 1516.5 c 128,-1,27
 427 1505 427 1505 463.5 1422 c 128,-1,0
 500 1339 500 1339 556 1207 c 128,-1,1
EndSplineSet
Validated: 1
EndChar

StartChar: bracketright
Encoding: 93 93 64
Width: 807
GlyphClass: 2
Flags: MW
LayerCount: 2
Fore
SplineSet
783 1423 m 2,0,1
 799 1423 799 1423 799 1390 c 0,2,3
 799 1318 799 1318 792 1245 c 128,-1,4
 785 1172 785 1172 781.5 1124.5 c 128,-1,5
 778 1077 778 1077 773 1018 c 128,-1,6
 768 959 768 959 762 894 c 0,7,8
 758 829 758 829 752 768 c 0,9,10
 746 704 746 704 736 573 c 2,11,-1
 693 2 l 2,12,13
 688 -57 688 -57 662 -65 c 0,14,15
 656 -67 656 -67 650 -68 c 2,16,-1
 380 -77 l 2,17,18
 328 -79 328 -79 276 -80.5 c 128,-1,19
 224 -82 224 -82 180 -84 c 0,20,21
 107 -86 107 -86 68.5 -86 c 128,-1,22
 30 -86 30 -86 30 -57 c 1,23,24
 29.6862745098 -56.137254902 29.6862745098 -56.137254902 29.6862745098 -54.5055747789 c 0,25,26
 29.6862745098 -35.3333333333 29.6862745098 -35.3333333333 73 90 c 2,27,-1
 108 193 l 2,28,29
 114 210 114 210 123.5 219 c 128,-1,30
 133 228 133 228 162 229 c 2,31,-1
 317 234 l 1,32,33
 319 256 319 256 323 312 c 128,-1,34
 327 368 327 368 330.5 415 c 128,-1,35
 334 462 334 462 338 514 c 0,36,37
 348 644 348 644 356 732 c 1,38,-1
 385 1147 l 1,39,-1
 192 1145 l 2,40,41
 176 1145 176 1145 176 1163 c 2,42,-1
 177 1186 l 1,43,-1
 180 1376 l 2,44,45
 180 1408 180 1408 195.5 1417 c 128,-1,46
 211 1426 211 1426 237 1426 c 1,47,-1
 312 1423 l 1,48,-1
 783 1423 l 2,0,1
EndSplineSet
Validated: 1
EndChar

StartChar: asciicircum
Encoding: 94 94 65
Width: 1190
GlyphClass: 2
Flags: MW
LayerCount: 2
Fore
SplineSet
510 985 m 1,0,1
 582 971 582 971 709.5 967.5 c 128,-1,2
 837 964 837 964 843.5 961.5 c 128,-1,3
 850 959 850 959 856 953 c 0,4,5
 863 945 863 945 876 910 c 2,6,-1
 1128 214 l 1,7,8
 1130 203 1130 203 1131.5 195.5 c 128,-1,9
 1133 188 1133 188 1133 173 c 128,-1,10
 1133 158 1133 158 1111 151 c 1,11,12
 861 110 861 110 812 97 c 128,-1,13
 763 84 763 84 756 84 c 128,-1,14
 749 84 749 84 745.5 96 c 128,-1,15
 742 108 742 108 732 144 c 128,-1,16
 722 180 722 180 709 225 c 128,-1,17
 696 270 696 270 682.5 319 c 128,-1,18
 669 368 669 368 657 411 c 128,-1,19
 645 454 645 454 636.5 485.5 c 128,-1,20
 628 517 628 517 625 528 c 1,21,-1
 394 88 l 1,22,23
 389 76 389 76 369 76 c 1,24,25
 281 98 281 98 186.5 105 c 128,-1,26
 92 112 92 112 55 115 c 1,27,28
 41 118 41 118 41 129 c 128,-1,29
 41 140 41 140 57 176 c 1,30,31
 95 246 95 246 135.5 323 c 128,-1,32
 176 400 176 400 217 477.5 c 128,-1,33
 258 555 258 555 297.5 630 c 128,-1,34
 337 705 337 705 372 770 c 0,35,36
 474 958 474 958 486 971 c 0,37,38
 498 983 498 983 510 985 c 1,0,1
EndSplineSet
Validated: 1
EndChar

StartChar: underscore
Encoding: 95 95 66
Width: 1041
GlyphClass: 2
Flags: MW
LayerCount: 2
Fore
SplineSet
699 -52 m 1,0,-1
 567 -53 l 1,1,-1
 512 -53 l 1,2,-1
 167 -58 l 1,3,4
 89 -58 89 -58 54.5 -53.5 c 128,-1,5
 20 -49 20 -49 20 -34 c 0,6,7
 20 -8 20 -8 52 40 c 0,8,9
 83 88 83 88 99 106 c 0,10,11
 135 146 135 146 163 148 c 1,12,-1
 515 158 l 1,13,-1
 943 164 l 1,14,15
 991 160 991 160 991 129 c 256,16,17
 991 103 991 103 981 38 c 1,18,-1
 972 -29 l 2,19,20
 970 -40 970 -40 962.5 -46 c 128,-1,21
 955 -52 955 -52 923 -52 c 2,22,-1
 699 -52 l 1,0,-1
EndSplineSet
Validated: 1
EndChar

StartChar: grave
Encoding: 96 96 67
Width: 561
GlyphClass: 2
Flags: MW
LayerCount: 2
Fore
SplineSet
232.5 1317.5 m 128,-1,1
 208 1363 208 1363 178.5 1416 c 128,-1,2
 149 1469 149 1469 133 1497 c 128,-1,3
 117 1525 117 1525 103 1550 c 128,-1,4
 89 1575 89 1575 73 1603.5 c 128,-1,5
 57 1632 57 1632 43 1658 c 0,6,7
 28 1686 28 1686 27 1705 c 0,8,9
 25 1732 25 1732 53.5 1747.5 c 128,-1,10
 82 1763 82 1763 122.5 1784.5 c 128,-1,11
 163 1806 163 1806 204 1828 c 0,12,13
 303 1882 303 1882 363 1925 c 1,14,15
 373 1930 373 1930 378 1930 c 128,-1,16
 383 1930 383 1930 385 1922 c 2,17,-1
 497 1337 l 2,18,19
 499 1324 499 1324 501 1316 c 0,20,21
 503 1306 503 1306 503 1298 c 0,22,23
 503 1276 503 1276 484.5 1268 c 128,-1,24
 466 1260 466 1260 448 1252 c 128,-1,25
 430 1244 430 1244 412 1236 c 0,26,27
 363 1212 363 1212 345.5 1200 c 128,-1,28
 328 1188 328 1188 320 1188 c 128,-1,29
 312 1188 312 1188 301 1201.5 c 128,-1,30
 290 1215 290 1215 273.5 1243.5 c 128,-1,0
 257 1272 257 1272 232.5 1317.5 c 128,-1,1
EndSplineSet
Validated: 1
EndChar

StartChar: a
Encoding: 97 97 68
Width: 1248
GlyphClass: 2
Flags: MW
LayerCount: 2
Fore
SplineSet
637 1116 m 0,0,1
 756 1116 756 1116 893 1007 c 1,2,3
 899 1037 899 1037 900 1055 c 0,4,5
 900 1073 900 1073 904 1083 c 0,6,7
 909 1098 909 1098 966 1105 c 0,8,9
 1163 1129 1163 1129 1244 1133 c 1,10,-1
 1141 201 l 2,11,12
 1140 197 1140 197 1140 193 c 2,13,-1
 1140 187 l 2,14,15
 1140 136 1140 136 1183 102 c 0,16,17
 1191 96 1191 96 1191 90 c 0,18,19
 1191 76 1191 76 1161 64 c 2,20,-1
 892 -51 l 2,21,22
 891 -52 891 -52 885 -52 c 0,23,24
 862 -52 862 -52 828 89 c 1,25,26
 706 -52 706 -52 547 -52 c 0,27,28
 370 -52 370 -52 241 90 c 0,29,30
 104 241 104 241 104 474 c 0,31,32
 104 754 104 754 258 938 c 0,33,34
 406 1116 406 1116 637 1116 c 0,0,1
501 523 m 0,35,36
 501 218 501 218 658 218 c 0,37,38
 719 218 719 218 800 282 c 1,39,-1
 842 578 l 1,40,41
 855 652 855 652 861 778 c 1,42,43
 761 853 761 853 699.5 853 c 128,-1,44
 638 853 638 853 602 818 c 0,45,46
 564 783 564 783 542 732 c 0,47,48
 500.976744186 637.255813953 500.976744186 637.255813953 500.976744186 528.201189832 c 0,49,50
 500.976744186 525.604651163 500.976744186 525.604651163 501 523 c 0,35,36
EndSplineSet
Validated: 1
EndChar

StartChar: b
Encoding: 98 98 69
Width: 1319
GlyphClass: 2
Flags: MW
LayerCount: 2
Fore
SplineSet
542 326 m 1,0,1
 579 252 579 252 667 220 c 0,2,3
 696 210 696 210 733 210 c 128,-1,4
 770 210 770 210 808 244 c 128,-1,5
 846 278 846 278 874 334 c 0,6,7
 934 454 934 454 935 613 c 0,8,9
 935.012048193 614.963855422 935.012048193 614.963855422 935.012048193 616.911888518 c 0,10,11
 935.012048193 776.65060241 935.012048193 776.65060241 854 830 c 0,12,13
 826 849 826 849 773 849 c 128,-1,14
 720 849 720 849 666 811 c 128,-1,15
 612 773 612 773 575 714 c 1,16,-1
 542 326 l 1,0,1
826 -52 m 0,17,18
 662 -52 662 -52 513 95 c 1,19,20
 511 71 511 71 510 57 c 0,21,22
 510 44 510 44 504 36 c 0,23,24
 495 24 495 24 469 17.5 c 128,-1,25
 443 11 443 11 415.5 4.5 c 128,-1,26
 388 -2 388 -2 350 -10 c 0,27,28
 162 -52 162 -52 148 -52 c 0,29,30
 116 -52 116 -52 116 -14 c 0,31,32
 116 -5 116 -5 118 7 c 1,33,-1
 234 1422 l 1,34,-1
 235 1433 l 1,35,-1
 234 1445 l 2,36,37
 234 1454 234 1454 240.5 1459.5 c 128,-1,38
 247 1465 247 1465 274 1472 c 2,39,-1
 555 1539 l 2,40,41
 566 1541 566 1541 584 1548 c 128,-1,42
 602 1555 602 1555 619 1555 c 0,43,44
 655 1555 655 1555 655 1526 c 1,45,46
 649 1474 649 1474 642 1399 c 128,-1,47
 635 1324 635 1324 629 1260 c 0,48,49
 623 1198 623 1198 618 1142 c 0,50,51
 607 1016 607 1016 604 1003 c 1,52,53
 776 1116 776 1116 895 1116 c 128,-1,54
 1014 1116 1014 1116 1089 1074 c 0,55,56
 1164 1030 1164 1030 1213 960 c 0,57,58
 1309 823 1309 823 1309 608 c 0,59,60
 1309.00787402 606 1309.00787402 606 1309.00787402 604.003720007 c 0,61,62
 1309.00787402 352.472440945 1309.00787402 352.472440945 1184 160 c 0,63,64
 1098 28 1098 28 969 -25 c 0,65,66
 903 -52 903 -52 826 -52 c 0,17,18
EndSplineSet
Validated: 1
EndChar

StartChar: c
Encoding: 99 99 70
Width: 1053
GlyphClass: 2
Flags: MW
LayerCount: 2
Fore
SplineSet
995 26 m 1,0,1
 878 -52 878 -52 654 -52 c 0,2,3
 416 -52 416 -52 260 97 c 0,4,5
 100 250 100 250 100 488 c 0,6,7
 100 752 100 752 282 933 c 0,8,9
 466 1116 466 1116 738 1116 c 0,10,11
 895 1116 895 1116 1005 1068 c 0,12,13
 1047 1050 1047 1050 1066.5 1034 c 128,-1,14
 1086 1018 1086 1018 1086 1017 c 0,15,16
 1086 1011 1086 1011 1082 984 c 0,17,18
 1078 956 1078 956 1072 920 c 0,19,20
 1058 838 1058 838 1057 778 c 0,21,22
 1057 761 1057 761 1038 761 c 0,23,24
 1026 761 1026 761 1003 769.5 c 128,-1,25
 980 778 980 778 946 788 c 0,26,27
 856 815 856 815 781.5 815 c 128,-1,28
 707 815 707 815 654 791.5 c 128,-1,29
 601 768 601 768 563 726 c 0,30,31
 484 640 484 640 484 505 c 0,32,33
 484 374 484 374 563 308 c 0,34,35
 632 250 632 250 745 250 c 0,36,37
 868 250 868 250 981 313 c 0,38,39
 983 314 983 314 991 314 c 128,-1,40
 999 314 999 314 999 290 c 2,41,-1
 999 212 l 2,42,43
 999 26 999 26 995 26 c 1,0,1
EndSplineSet
Validated: 1
EndChar

StartChar: d
Encoding: 100 100 71
Width: 1329
GlyphClass: 2
Flags: MW
LayerCount: 2
Fore
SplineSet
892 709 m 1,0,1
 840 844 840 844 722 844 c 0,2,3
 610 844 610 844 548 721 c 0,4,5
 499 623 499 623 499 510 c 0,6,7
 499 310 499 310 565 238 c 0,8,9
 589 212 589 212 625 211 c 1,10,11
 778 216 778 216 856 341 c 1,12,-1
 877 569 l 2,13,14
 885 659 885 659 892 709 c 1,0,1
1356 1526 m 1,15,-1
 1226 101 l 1,16,-1
 1225 92 l 1,17,-1
 1226 78 l 2,18,19
 1226 69 1226 69 1219.5 63.5 c 128,-1,20
 1213 58 1213 58 1186 51 c 1,21,-1
 918 -36 l 1,22,23
 874 -52 874 -52 854 -52 c 0,24,25
 819 -52 819 -52 819 -19 c 0,26,27
 819 25 819 25 821.5 43.5 c 128,-1,28
 824 62 824 62 826 80 c 1,29,30
 661 -52 661 -52 504 -52 c 0,31,32
 320 -52 320 -52 208 116 c 0,33,34
 104 272 104 272 104 496 c 0,35,36
 104 770 104 770 273 946 c 0,37,38
 436 1116 436 1116 676 1116 c 0,39,40
 789 1116 789 1116 905 998 c 1,41,-1
 935 1445 l 2,42,43
 935 1454 935 1454 941.5 1459.5 c 128,-1,44
 948 1465 948 1465 975 1472 c 2,45,-1
 1256 1539 l 2,46,47
 1267 1541 1267 1541 1285 1548 c 128,-1,48
 1303 1555 1303 1555 1320 1555 c 0,49,50
 1356 1555 1356 1555 1356 1526 c 1,15,-1
EndSplineSet
Validated: 1
EndChar

StartChar: e
Encoding: 101 101 72
Width: 1142
GlyphClass: 2
Flags: MW
LayerCount: 2
Fore
SplineSet
1079 100 m 1,0,1
 1084 92 1084 92 1084 81 c 128,-1,2
 1084 70 1084 70 1062 56 c 128,-1,3
 1040 42 1040 42 1004.5 27 c 128,-1,4
 969 12 969 12 923.5 -2 c 128,-1,5
 878 -16 878 -16 831 -28 c 0,6,7
 731 -52 731 -52 643 -52 c 128,-1,8
 555 -52 555 -52 453.5 -14.5 c 128,-1,9
 352 23 352 23 274 93 c 0,10,11
 102 247 102 247 101 488 c 0,12,13
 100.994219653 489.537572254 100.994219653 489.537572254 100.994219653 491.072237629 c 0,14,15
 100.994219653 755.034682081 100.994219653 755.034682081 272 933 c 0,16,17
 447 1116 447 1116 716 1116 c 0,18,19
 896 1116 896 1116 1022 988 c 0,20,21
 1137 871 1137 871 1137 722 c 0,22,23
 1137 660 1137 660 1099 598 c 0,24,25
 1060 535 1060 535 992 485 c 0,26,27
 840 373 840 373 617 373 c 0,28,29
 557 373 557 373 491 385 c 1,30,31
 499 304 499 304 569 260 c 0,32,33
 631 221 631 221 702 221 c 128,-1,34
 773 221 773 221 817.5 229.5 c 128,-1,35
 862 238 862 238 903 252 c 0,36,37
 969 275 969 275 1054 317 c 1,38,39
 1063 319 1063 319 1069.5 320.5 c 128,-1,40
 1076 322 1076 322 1082 322 c 1,41,-1
 1081 306 l 1,42,-1
 1081 261 l 2,43,44
 1081 200 1081 200 1079 100 c 1,0,1
482 604 m 1,45,46
 837 666 837 666 837 763 c 0,47,48
 837 797 837 797 790 825 c 0,49,50
 748 850 748 850 705.5 850 c 128,-1,51
 663 850 663 850 628 832 c 0,52,53
 594 814 594 814 566 782 c 0,54,55
 510 718 510 718 482 604 c 1,45,46
EndSplineSet
Validated: 1
EndChar

StartChar: f
Encoding: 102 102 73
Width: 910
GlyphClass: 2
Flags: MW
LayerCount: 2
Fore
SplineSet
267 -52 m 256,0,1
 232 -52 232 -52 232 -15 c 1,2,3
 275 458 275 458 305 768 c 1,4,-1
 172 768 l 2,5,6
 70 768 70 768 70 791 c 0,7,8
 70 806 70 806 130 895 c 128,-1,9
 190 984 190 984 202 1002 c 128,-1,10
 214 1020 214 1020 217 1024 c 1,11,-1
 339 1024 l 1,12,-1
 359 1183 l 1,13,14
 398 1535 398 1535 625 1610 c 0,15,16
 695 1633 695 1633 775 1633 c 256,17,18
 927 1633 927 1633 1116 1560 c 1,19,20
 1154 1544 1154 1544 1154 1534 c 128,-1,21
 1154 1524 1154 1524 1134.5 1486.5 c 128,-1,22
 1115 1449 1115 1449 1099.5 1411 c 128,-1,23
 1084 1373 1084 1373 1075 1351 c 128,-1,24
 1066 1329 1066 1329 1060 1321.5 c 128,-1,25
 1054 1314 1054 1314 1045 1314 c 128,-1,26
 1036 1314 1036 1314 1029.5 1317 c 128,-1,27
 1023 1320 1023 1320 1001 1328 c 0,28,29
 925 1358 925 1358 878 1358 c 128,-1,30
 831 1358 831 1358 798.5 1330 c 128,-1,31
 766 1302 766 1302 751 1240 c 0,32,33
 730 1152 730 1152 717 1024 c 1,34,-1
 978 1024 l 2,35,36
 1001 1024 1001 1024 1001 1000 c 0,37,38
 1001 988 1001 988 955 883 c 2,39,-1
 919 802 l 2,40,41
 912 787 912 787 904.5 780 c 128,-1,42
 897 773 897 773 874 771 c 1,43,-1
 701 771 l 1,44,45
 633 128 633 128 633 96 c 1,46,-1
 634 84 l 2,47,48
 634 75 634 75 627.5 69.5 c 128,-1,49
 621 64 621 64 594 57 c 1,50,-1
 331 -36 l 2,51,52
 287 -52 287 -52 267 -52 c 256,0,1
EndSplineSet
Validated: 1
EndChar

StartChar: g
Encoding: 103 103 74
Width: 1295
GlyphClass: 2
Flags: MW
LayerCount: 2
Fore
SplineSet
595 1116 m 0,0,1
 747 1116 747 1116 888 984 c 1,2,3
 890 1002 890 1002 891 1012.5 c 128,-1,4
 892 1023 892 1023 896 1029 c 0,5,6
 901 1037 901 1037 924.5 1042 c 128,-1,7
 948 1047 948 1047 977 1053.5 c 128,-1,8
 1006 1060 1006 1060 1046 1069 c 128,-1,9
 1086 1078 1086 1078 1134 1088 c 128,-1,10
 1182 1098 1182 1098 1212.5 1105 c 128,-1,11
 1243 1112 1243 1112 1253 1112 c 0,12,13
 1284 1112 1284 1112 1284 1072 c 2,14,-1
 1284 1062 l 2,15,16
 1284 1058 1284 1058 1283 1053 c 2,17,-1
 1180 109 l 1,18,19
 1150 -174 1150 -174 924 -362 c 0,20,21
 711.603399433 -537.501416431 711.603399433 -537.501416431 476.834097056 -537.501416431 c 0,22,23
 476.16713881 -537.501416431 476.16713881 -537.501416431 475.5 -537.5 c 0,24,25
 240 -537 240 -537 142 -459 c 1,26,-1
 142 -458 l 2,27,28
 142 -447 142 -447 171.5 -336.5 c 128,-1,29
 201 -226 201 -226 207 -204 c 0,30,31
 216 -172 216 -172 224 -171.5 c 128,-1,32
 232 -171 232 -171 247 -181 c 128,-1,33
 262 -191 262 -191 288 -204 c 0,34,35
 314 -216 314 -216 342 -224 c 0,36,37
 391 -238 391 -238 473 -238 c 0,38,39
 553 -237 553 -237 607 -210 c 128,-1,40
 661 -183 661 -183 700 -140 c 0,41,42
 775 -58 775 -58 795 56 c 1,43,44
 633 -52 633 -52 515 -52 c 128,-1,45
 397 -52 397 -52 322 -10.5 c 128,-1,46
 247 31 247 31 198 101 c 0,47,48
 102 238 102 238 102 451 c 0,49,50
 102 704 102 704 230 900 c 0,51,52
 317 1034 317 1034 449 1088 c 0,53,54
 516 1116 516 1116 595 1116 c 0,0,1
849 713 m 1,55,56
 812 798 812 798 731 836 c 0,57,58
 704 848 704 848 668.5 848.5 c 0,59,60
 667.985507246 848.507246377 667.985507246 848.507246377 667.470909473 848.507246377 c 0,61,62
 632.47826087 848.507246377 632.47826087 848.507246377 597 815 c 0,63,64
 561 780 561 780 534 724 c 0,65,66
 476 603 476 603 476 445 c 0,67,68
 476 283 476 283 558 229 c 0,69,70
 586 210 586 210 636 210 c 128,-1,71
 686 210 686 210 736 247.5 c 128,-1,72
 786 285 786 285 821 345 c 1,73,-1
 849 713 l 1,55,56
EndSplineSet
Validated: 1
EndChar

StartChar: h
Encoding: 104 104 75
Width: 1328
GlyphClass: 2
Flags: MW
LayerCount: 2
Fore
SplineSet
155 -52 m 0,0,1
 120 -52 120 -52 120 -15 c 1,2,-1
 234 1454 l 1,3,-1
 233 1475 l 2,4,5
 233 1493 233 1493 274 1504 c 2,6,-1
 555 1571 l 2,7,8
 566 1573 566 1573 584 1580 c 128,-1,9
 602 1587 602 1587 619 1587 c 0,10,11
 654 1587 654 1587 654 1555 c 0,12,13
 654 1470 654 1470 629 1237.5 c 128,-1,14
 604 1005 604 1005 601 991 c 1,15,16
 827 1116 827 1116 1004 1116 c 0,17,18
 1210 1116 1210 1116 1272 934 c 0,19,20
 1294 868 1294 868 1295 810 c 0,21,22
 1295 718 1295 718 1290 672 c 2,23,-1
 1247 263 l 2,24,25
 1240 204 1240 204 1240 82 c 1,26,-1
 1241 59 l 2,27,28
 1241 50 1241 50 1233.5 45 c 128,-1,29
 1226 40 1226 40 1200 32 c 2,30,-1
 955 -36 l 2,31,32
 944 -39 944 -39 926 -45.5 c 128,-1,33
 908 -52 908 -52 891 -52 c 256,34,35
 856 -52 856 -52 856 -15 c 1,36,37
 863 60 863 60 867.5 106 c 128,-1,38
 872 152 872 152 874.5 179.5 c 128,-1,39
 877 207 877 207 879 221.5 c 128,-1,40
 881 236 881 236 882 247.5 c 128,-1,41
 883 259 883 259 885 273.5 c 128,-1,42
 887 288 887 288 889.5 316 c 128,-1,43
 892 344 892 344 896.5 390 c 128,-1,44
 901 436 901 436 906.5 493.5 c 128,-1,45
 912 551 912 551 916.5 590.5 c 128,-1,46
 921 630 921 630 921 667.5 c 128,-1,47
 921 705 921 705 916.5 739.5 c 128,-1,48
 912 774 912 774 900 798 c 0,49,50
 875 851 875 851 818 851 c 0,51,52
 750 851 750 851 693.5 818 c 128,-1,53
 637 785 637 785 606.5 747.5 c 128,-1,54
 576 710 576 710 570 644 c 128,-1,55
 564 578 564 578 559.5 529 c 128,-1,56
 555 480 555 480 552 448 c 0,57,58
 547 396 547 396 545.5 376.5 c 128,-1,59
 544 357 544 357 542 337.5 c 128,-1,60
 540 318 540 318 537 291 c 128,-1,61
 534 264 534 264 531 233.5 c 128,-1,62
 528 203 528 203 526 176 c 0,63,64
 520 117 520 117 520 105 c 2,65,-1
 521 81 l 2,66,67
 521 66 521 66 480 55 c 1,68,-1
 219 -36 l 2,69,70
 175 -52 175 -52 155 -52 c 0,0,1
EndSplineSet
Validated: 1
EndChar

StartChar: i
Encoding: 105 105 76
Width: 612
GlyphClass: 2
Flags: MW
LayerCount: 2
Fore
SplineSet
107 -42 m 0,0,1
 107 25 107 25 146 427 c 128,-1,2
 185 829 185 829 191 916 c 128,-1,3
 197 1003 197 1003 201.5 1015.5 c 128,-1,4
 206 1028 206 1028 224 1032 c 0,5,6
 309 1049 309 1049 402 1067.5 c 128,-1,7
 495 1086 495 1086 540 1101 c 128,-1,8
 585 1116 585 1116 593.5 1116 c 128,-1,9
 602 1116 602 1116 602 1108 c 2,10,-1
 512 134 l 2,11,12
 509 101 509 101 505 88.5 c 128,-1,13
 501 76 501 76 483 72 c 1,14,15
 398 46 398 46 311 14 c 0,16,17
 132 -52 132 -52 119.5 -52 c 128,-1,18
 107 -52 107 -52 107 -42 c 0,0,1
637 1632 m 1,19,20
 639 1628 639 1628 648 1622 c 1,21,-1
 626 1348 l 2,22,23
 623 1315 623 1315 618.5 1302 c 128,-1,24
 614 1289 614 1289 597 1286 c 0,25,26
 512 1270 512 1270 425 1251 c 0,27,28
 246 1212 246 1212 233.5 1212 c 128,-1,29
 221 1212 221 1212 221 1222 c 0,30,31
 229 1337 229 1337 229 1338.5 c 128,-1,32
 229 1340 229 1340 229.5 1341.5 c 128,-1,33
 230 1343 230 1343 230.5 1347.5 c 128,-1,34
 231 1352 231 1352 232 1366 c 0,35,36
 242 1517 242 1517 247 1530.5 c 128,-1,37
 252 1544 252 1544 270 1548 c 0,38,39
 355 1565 355 1565 448 1583.5 c 128,-1,40
 541 1602 541 1602 586 1617 c 128,-1,41
 631 1632 631 1632 637 1632 c 1,19,20
EndSplineSet
Validated: 1
EndChar

StartChar: j
Encoding: 106 106 77
Width: 620
GlyphClass: 2
Flags: MW
LayerCount: 2
Fore
SplineSet
640 1632 m 1,0,1
 642 1628 642 1628 651 1622 c 1,2,-1
 629 1348 l 2,3,4
 626 1315 626 1315 621.5 1302 c 128,-1,5
 617 1289 617 1289 600 1286 c 0,6,7
 515 1270 515 1270 428 1251 c 0,8,9
 249 1212 249 1212 236.5 1212 c 128,-1,10
 224 1212 224 1212 224 1222 c 0,11,12
 232 1337 232 1337 232 1338.5 c 128,-1,13
 232 1340 232 1340 232.5 1341.5 c 128,-1,14
 233 1343 233 1343 233.5 1347.5 c 128,-1,15
 234 1352 234 1352 235 1366 c 0,16,17
 245 1517 245 1517 250 1530.5 c 128,-1,18
 255 1544 255 1544 273 1548 c 0,19,20
 358 1565 358 1565 451 1583.5 c 128,-1,21
 544 1602 544 1602 589 1617 c 128,-1,22
 634 1632 634 1632 640 1632 c 1,0,1
-6 -45 m 0,23,24
 96 -45 96 -45 113 89 c 1,25,26
 167 566 167 566 183.5 784.5 c 128,-1,27
 200 1003 200 1003 204.5 1015.5 c 128,-1,28
 209 1028 209 1028 227 1032 c 0,29,30
 312 1049 312 1049 405 1067.5 c 128,-1,31
 498 1086 498 1086 543 1101 c 128,-1,32
 588 1116 588 1116 596.5 1116 c 128,-1,33
 605 1116 605 1116 605 1108 c 2,34,-1
 531 289 l 1,35,-1
 511 130 l 1,36,37
 485 -102 485 -102 378.5 -215.5 c 128,-1,38
 272 -329 272 -329 69 -329 c 0,39,40
 -32 -329 -32 -329 -210 -263 c 0,41,42
 -284 -235 -284 -235 -284 -219 c 0,43,44
 -284 -211 -284 -211 -265.5 -175.5 c 128,-1,45
 -247 -140 -247 -140 -231.5 -102 c 128,-1,46
 -216 -64 -216 -64 -207 -41.5 c 128,-1,47
 -198 -19 -198 -19 -192.5 -10 c 128,-1,48
 -187 -1 -187 -1 -177 -1 c 128,-1,49
 -167 -1 -167 -1 -138 -13 c 0,50,51
 -61 -45 -61 -45 -6 -45 c 0,23,24
EndSplineSet
Validated: 1
EndChar

StartChar: k
Encoding: 107 107 78
Width: 1258
GlyphClass: 2
Flags: MW
LayerCount: 2
Fore
SplineSet
660 1526 m 1,0,-1
 623 1171 l 1,1,2
 597 911 597 911 571 677 c 1,3,-1
 640 753 l 1,4,-1
 752 884 l 2,5,6
 773 908 773 908 793 932 c 128,-1,7
 813 956 813 956 829 974.5 c 128,-1,8
 845 993 845 993 855 1005.5 c 128,-1,9
 865 1018 865 1018 867 1020 c 1,10,-1
 1269 1048 l 2,11,12
 1272 1049 1272 1049 1275 1049 c 2,13,-1
 1282 1049 l 2,14,15
 1299 1049 1299 1049 1299 1041 c 128,-1,16
 1299 1033 1299 1033 1278 1009 c 2,17,-1
 965 659 l 2,18,19
 924 615 924 615 852 538 c 1,20,-1
 998 364 l 1,21,-1
 1250 93 l 1,22,23
 1253 87 1253 87 1265 83 c 0,24,25
 1285 76 1285 76 1285 70 c 0,26,27
 1285 50 1285 50 1126 -26 c 0,28,29
 1001 -86 1001 -86 959 -87 c 0,30,31
 935 -87 935 -87 913 -62 c 128,-1,32
 891 -37 891 -37 862.5 -1.5 c 128,-1,33
 834 34 834 34 801 76.5 c 128,-1,34
 768 119 768 119 733.5 164.5 c 128,-1,35
 699 210 699 210 667.5 251.5 c 128,-1,36
 636 293 636 293 610.5 326.5 c 128,-1,37
 585 360 585 360 571 380 c 1,38,39
 566 375 566 375 561 372.5 c 128,-1,40
 556 370 556 370 552 366 c 0,41,42
 542 357 542 357 541 341 c 1,43,-1
 517 99 l 1,44,-1
 518 79 l 2,45,46
 518 68 518 68 510.5 62.5 c 128,-1,47
 503 57 503 57 474 49 c 1,48,-1
 212 -36 l 1,49,50
 168 -52 168 -52 148 -52 c 0,51,52
 113 -52 113 -52 113 -19 c 1,53,-1
 239 1422 l 1,54,-1
 237 1441 l 1,55,56
 237 1461 237 1461 279 1472 c 2,57,-1
 560 1539 l 2,58,59
 571 1541 571 1541 589 1548 c 128,-1,60
 607 1555 607 1555 624 1555 c 0,61,62
 660 1555 660 1555 660 1526 c 1,0,-1
EndSplineSet
Validated: 1
EndChar

StartChar: l
Encoding: 108 108 79
Width: 622
GlyphClass: 2
Flags: MW
LayerCount: 2
Fore
SplineSet
117 -27 m 2,0,-1
 117 -21 l 1,1,2
 125 80 125 80 132.5 176.5 c 128,-1,3
 140 273 140 273 148 376 c 0,4,5
 159 508 159 508 189 846 c 256,6,7
 201 983 201 983 208.5 1117 c 128,-1,8
 216 1251 216 1251 221.5 1338 c 128,-1,9
 227 1425 227 1425 231.5 1437.5 c 128,-1,10
 236 1450 236 1450 254 1454 c 0,11,12
 527 1504 527 1504 579 1520 c 128,-1,13
 631 1536 631 1536 639.5 1536 c 128,-1,14
 648 1536 648 1536 648 1526 c 2,15,-1
 518 98 l 1,16,-1
 518 81 l 2,17,18
 518 65 518 65 478 54 c 1,19,-1
 216 -42 l 1,20,21
 181 -58 181 -58 149 -58 c 128,-1,22
 117 -58 117 -58 117 -27 c 2,0,-1
EndSplineSet
Validated: 1
EndChar

StartChar: m
Encoding: 109 109 80
Width: 1950
GlyphClass: 2
Flags: MW
LayerCount: 2
Fore
SplineSet
1861 82 m 1,0,-1
 1862 59 l 2,1,2
 1862 50 1862 50 1854.5 45 c 128,-1,3
 1847 40 1847 40 1821 32 c 2,4,-1
 1575 -36 l 2,5,6
 1564 -39 1564 -39 1546 -45.5 c 128,-1,7
 1528 -52 1528 -52 1511 -52 c 0,8,9
 1476 -52 1476 -52 1476 -21 c 2,10,-1
 1476 -15 l 1,11,12
 1483 58 1483 58 1488 103.5 c 128,-1,13
 1493 149 1493 149 1496 177 c 128,-1,14
 1499 205 1499 205 1501 219.5 c 128,-1,15
 1503 234 1503 234 1505 246.5 c 128,-1,16
 1507 259 1507 259 1508 274 c 0,17,18
 1510 286 1510 286 1513 316 c 0,19,20
 1520 380 1520 380 1528 460 c 0,21,22
 1536 549 1536 549 1540.5 588.5 c 128,-1,23
 1545 628 1545 628 1545 665.5 c 128,-1,24
 1545 703 1545 703 1540.5 737.5 c 128,-1,25
 1536 772 1536 772 1524 796 c 0,26,27
 1499 849 1499 849 1442 849 c 0,28,29
 1386 848 1386 848 1343 820 c 0,30,31
 1255 762 1255 762 1243 674 c 1,32,-1
 1243 670 l 1,33,34
 1227 514 1227 514 1212.5 391.5 c 128,-1,35
 1198 269 1198 269 1194 229 c 0,36,37
 1189 190 1189 190 1186 162 c 0,38,39
 1180 106 1180 106 1180 82 c 1,40,-1
 1181 59 l 2,41,42
 1181 45 1181 45 1140 32 c 2,43,-1
 905 -36 l 2,44,45
 894 -39 894 -39 876 -45.5 c 128,-1,46
 858 -52 858 -52 841 -52 c 0,47,48
 806 -52 806 -52 806 -21 c 2,49,-1
 806 -15 l 1,50,51
 823 160 823 160 828 197 c 128,-1,52
 833 234 833 234 834.5 246.5 c 128,-1,53
 836 259 836 259 838 274 c 128,-1,54
 840 289 840 289 842.5 316.5 c 128,-1,55
 845 344 845 344 849.5 389.5 c 128,-1,56
 854 435 854 435 859.5 492 c 128,-1,57
 865 549 865 549 869.5 588.5 c 128,-1,58
 874 628 874 628 874 665.5 c 128,-1,59
 874 703 874 703 870 737.5 c 128,-1,60
 866 772 866 772 856 796 c 0,61,62
 834 848 834 848 781 849 c 0,63,64
 722 849 722 849 672 816 c 0,65,66
 573 750 573 750 566 653 c 1,67,68
 542 427 542 427 539.5 396.5 c 128,-1,69
 537 366 537 366 535 347.5 c 128,-1,70
 533 329 533 329 530.5 303.5 c 128,-1,71
 528 278 528 278 525.5 248.5 c 128,-1,72
 523 219 523 219 521 193.5 c 128,-1,73
 519 168 519 168 517.5 149.5 c 128,-1,74
 516 131 516 131 516 127 c 2,75,-1
 516 109 l 2,76,77
 516 79 516 79 500.5 71 c 128,-1,78
 485 63 485 63 468 57 c 2,79,-1
 206 -36 l 2,80,81
 162 -52 162 -52 142 -52 c 0,82,83
 107 -52 107 -52 107 -21 c 1,84,-1
 197 999 l 2,85,86
 200 1032 200 1032 204.5 1044.5 c 128,-1,87
 209 1057 209 1057 227 1061 c 0,88,89
 318 1079 318 1079 413 1097.5 c 128,-1,90
 508 1116 508 1116 599 1145 c 1,91,92
 610 1145 610 1145 610 1135 c 2,93,-1
 597 989 l 1,94,95
 844 1116 844 1116 989.5 1116 c 128,-1,96
 1135 1116 1135 1116 1206 980 c 1,97,98
 1415 1115 1415 1115 1613 1115 c 0,99,100
 1614.16216216 1115.00540541 1614.16216216 1115.00540541 1615.32 1115.00540541 c 0,101,102
 1828.36216216 1115.00540541 1828.36216216 1115.00540541 1895 932 c 0,103,104
 1919 866 1919 866 1919 807 c 0,105,106
 1919 715 1919 715 1914 670 c 2,107,-1
 1868 242 l 2,108,109
 1861 183 1861 183 1861 82 c 1,0,-1
EndSplineSet
Validated: 1
EndChar

StartChar: n
Encoding: 110 110 81
Width: 1322
GlyphClass: 2
Flags: MW
LayerCount: 2
Fore
SplineSet
1233 82 m 1,0,-1
 1234 59 l 2,1,2
 1234 50 1234 50 1226.5 45 c 128,-1,3
 1219 40 1219 40 1193 32 c 2,4,-1
 950 -36 l 2,5,6
 939 -39 939 -39 921 -45.5 c 128,-1,7
 903 -52 903 -52 886 -52 c 0,8,9
 851 -52 851 -52 851 -21 c 2,10,-1
 851 -15 l 1,11,12
 917 579 917 579 917 713 c 0,13,14
 917 815 917 815 865 841 c 0,15,16
 845 851 845 851 818 851 c 128,-1,17
 791 851 791 851 750.5 841 c 128,-1,18
 710 831 710 831 670 808 c 0,19,20
 571 751 571 751 564 655 c 0,21,22
 554 528 554 528 547 466 c 0,23,24
 535 358 535 358 534 347.5 c 128,-1,25
 533 337 533 337 531 319 c 128,-1,26
 529 301 529 301 526.5 276 c 128,-1,27
 524 251 524 251 522 223 c 0,28,29
 518 195 518 195 516 170 c 0,30,31
 511 106 511 106 511 105 c 2,32,-1
 512 81 l 2,33,34
 512 66 512 66 471 55 c 1,35,-1
 206 -36 l 2,36,37
 162 -52 162 -52 142 -52 c 0,38,39
 107 -52 107 -52 107 -21 c 1,40,-1
 198 1001 l 2,41,42
 201 1034 201 1034 205.5 1046.5 c 128,-1,43
 210 1059 210 1059 228 1063 c 0,44,45
 319 1081 319 1081 415 1099.5 c 128,-1,46
 511 1118 511 1118 602 1147 c 1,47,48
 613 1147 613 1147 613 1137 c 0,49,50
 613 1133 613 1133 610 1116 c 0,51,52
 607 1096 607 1096 590 991 c 1,53,54
 806 1116 806 1116 1022 1116 c 0,55,56
 1163 1116 1163 1116 1227 1030.5 c 128,-1,57
 1291 945 1291 945 1291 774 c 0,58,59
 1291 717 1291 717 1286 672 c 2,60,-1
 1240 242 l 2,61,62
 1233 183 1233 183 1233 82 c 1,0,-1
EndSplineSet
Validated: 1
EndChar

StartChar: o
Encoding: 111 111 82
Width: 1313
GlyphClass: 2
Flags: MW
LayerCount: 2
Fore
SplineSet
589 1117 m 1,0,1
 589 1136 589 1136 602 1136 c 0,2,3
 964 1136 964 1136 1145 974 c 0,4,5
 1305 831 1305 831 1305 578 c 0,6,7
 1304 289 1304 289 1118 114 c 0,8,9
 941 -52 941 -52 670 -52 c 0,10,11
 403 -52 403 -52 244 116 c 0,12,13
 100 269 100 269 100 499 c 256,14,15
 100 714 100 714 233 875.5 c 128,-1,16
 366 1037 366 1037 578 1073 c 1,17,18
 594 1074 594 1074 594 1080 c 2,19,-1
 589 1117 l 1,0,1
485 505 m 0,20,21
 485 456 485 456 496.5 403 c 128,-1,22
 508 350 508 350 534 307 c 0,23,24
 593 211 593 211 711 211 c 1,25,26
 868 218 868 218 918 422 c 0,27,28
 936 495 936 495 936 558 c 128,-1,29
 936 621 936 621 920.5 671 c 128,-1,30
 905 721 905 721 875 759 c 0,31,32
 808 844 808 844 698 844 c 0,33,34
 590 844 590 844 532 721 c 0,35,36
 486 622 486 622 485 505 c 0,20,21
EndSplineSet
Validated: 1
EndChar

StartChar: p
Encoding: 112 112 83
Width: 1325
GlyphClass: 2
Flags: MW
LayerCount: 2
Fore
SplineSet
570 713 m 1,0,1
 569 708 569 708 560.5 595 c 128,-1,2
 552 482 552 482 549 444.5 c 128,-1,3
 546 407 546 407 544 385.5 c 128,-1,4
 542 364 542 364 541 345 c 1,5,6
 564 285 564 285 609 247.5 c 128,-1,7
 654 210 654 210 713 210 c 128,-1,8
 772 210 772 210 814 244 c 0,9,10
 854 279 854 279 882 334 c 0,11,12
 938 444 938 444 938 592 c 0,13,14
 938 772 938 772 852 830 c 0,15,16
 824.682926829 849.512195122 824.682926829 849.512195122 790.227245687 849.512195122 c 0,17,18
 789.365853659 849.512195122 789.365853659 849.512195122 788.5 849.5 c 0,19,20
 753 849 753 849 721.5 836.5 c 128,-1,21
 690 824 690 824 661 804 c 0,22,23
 605 766 605 766 570 713 c 1,0,1
599 1147 m 1,24,25
 610 1147 610 1147 610 1137 c 0,26,27
 610 1133 610 1133 607 1116 c 0,28,29
 604 1096 604 1096 587 991 c 1,30,31
 771 1116 771 1116 955 1116 c 0,32,33
 1133 1116 1133 1116 1231 974 c 0,34,35
 1319 846 1319 846 1319 645 c 0,36,37
 1319 382 1319 382 1179 175 c 0,38,39
 1083 34 1083 34 941 -23 c 0,40,41
 868 -52 868 -52 783 -52 c 0,42,43
 646 -52 646 -52 511 56 c 1,44,-1
 475 -363 l 1,45,-1
 476 -387 l 2,46,47
 476 -402 476 -402 435 -413 c 2,48,-1
 172 -480 l 2,49,50
 161 -483 161 -483 143 -489.5 c 128,-1,51
 125 -496 125 -496 108 -496 c 0,52,53
 73 -496 73 -496 73 -463 c 1,54,-1
 195 1001 l 2,55,56
 198 1034 198 1034 202.5 1046.5 c 128,-1,57
 207 1059 207 1059 225 1063 c 0,58,59
 316 1081 316 1081 412 1099.5 c 128,-1,60
 508 1118 508 1118 599 1147 c 1,24,25
EndSplineSet
Validated: 1
EndChar

StartChar: q
Encoding: 113 113 84
Width: 1303
GlyphClass: 2
Flags: MW
LayerCount: 2
Fore
SplineSet
596 1116 m 0,0,1
 753 1116 753 1116 889 989 c 1,2,3
 891 1007 891 1007 892 1017.5 c 128,-1,4
 893 1028 893 1028 897 1034 c 0,5,6
 902 1042 902 1042 925.5 1047 c 128,-1,7
 949 1052 949 1052 978 1058.5 c 128,-1,8
 1007 1065 1007 1065 1047 1074 c 128,-1,9
 1087 1083 1087 1083 1135 1093 c 128,-1,10
 1183 1103 1183 1103 1213.5 1110 c 128,-1,11
 1244 1117 1244 1117 1254 1117 c 0,12,13
 1285 1117 1285 1117 1285 1078 c 2,14,-1
 1285 1068 l 2,15,16
 1285 1064 1285 1064 1284 1058 c 2,17,-1
 1155 -328 l 2,18,19
 1154 -331 1154 -331 1154 -339 c 2,20,-1
 1155 -351 l 2,21,22
 1155 -360 1155 -360 1148.5 -365.5 c 128,-1,23
 1142 -371 1142 -371 1115 -378 c 1,24,-1
 850 -475 l 2,25,26
 839 -478 839 -478 821 -484.5 c 128,-1,27
 803 -491 803 -491 786 -491 c 0,28,29
 750 -491 750 -491 750 -463 c 0,30,31
 750 -457 750 -457 751 -453.5 c 128,-1,32
 752 -450 752 -450 754 -426.5 c 128,-1,33
 756 -403 756 -403 759 -367.5 c 128,-1,34
 762 -332 762 -332 766 -287.5 c 128,-1,35
 770 -243 770 -243 773.5 -196.5 c 128,-1,36
 777 -150 777 -150 781 -106 c 128,-1,37
 785 -62 785 -62 788 -26 c 0,38,39
 795 55 795 55 796 61 c 1,40,41
 626 -52 626 -52 512 -52 c 128,-1,42
 398 -52 398 -52 323 -10 c 128,-1,43
 248 32 248 32 199 102 c 0,44,45
 103 240 103 240 103 455 c 0,46,47
 103 709 103 709 231 904 c 0,48,49
 317 1036 317 1036 450 1089 c 0,50,51
 517 1116 517 1116 596 1116 c 0,0,1
850 718 m 1,52,53
 813 804 813 804 732 842 c 0,54,55
 705 854 705 854 669.5 854 c 128,-1,56
 634 854 634 854 598 820 c 128,-1,57
 562 786 562 786 535 730 c 0,58,59
 477 609 477 609 477 450 c 0,60,61
 476.987951807 448.048192771 476.987951807 448.048192771 476.987951807 446.112062709 c 0,62,63
 476.987951807 287.34939759 476.987951807 287.34939759 558 234 c 0,64,65
 586 215 586 215 636.5 215 c 128,-1,66
 687 215 687 215 737 252.5 c 128,-1,67
 787 290 787 290 822 350 c 1,68,-1
 850 718 l 1,52,53
EndSplineSet
Validated: 1
EndChar

StartChar: r
Encoding: 114 114 85
Width: 904
GlyphClass: 2
Flags: MW
LayerCount: 2
Fore
SplineSet
600 1116 m 1,0,1
 611 1116 611 1116 611 1106 c 0,2,3
 611 1102 611 1102 608 1085 c 0,4,5
 605 1065 605 1065 588 960 c 1,6,7
 725 1068 725 1068 909 1112 c 0,8,9
 961 1124 961 1124 1000 1124 c 1,10,-1
 938 814 l 1,11,12
 865 821 865 821 828.5 821 c 128,-1,13
 792 821 792 821 746.5 813.5 c 128,-1,14
 701 806 701 806 662 784 c 0,15,16
 573 734 573 734 559 624 c 1,17,18
 552 550 552 550 547.5 502.5 c 128,-1,19
 543 455 543 455 541 424.5 c 128,-1,20
 539 394 539 394 537.5 375.5 c 128,-1,21
 536 357 536 357 535 341 c 2,22,-1
 512 109 l 1,23,-1
 513 85 l 2,24,25
 513 70 513 70 472 59 c 1,26,-1
 207 -36 l 2,27,28
 163 -52 163 -52 143 -52 c 0,29,30
 108 -52 108 -52 108 -21 c 1,31,-1
 194 970 l 2,32,33
 197 1003 197 1003 201.5 1015.5 c 128,-1,34
 206 1028 206 1028 224 1032 c 0,35,36
 315 1050 315 1050 412 1068.5 c 128,-1,37
 509 1087 509 1087 600 1116 c 1,0,1
EndSplineSet
Validated: 1
EndChar

StartChar: s
Encoding: 115 115 86
Width: 861
GlyphClass: 2
Flags: MW
LayerCount: 2
Fore
SplineSet
567 878 m 0,0,1
 449 878 449 878 449 795 c 0,2,3
 449 766 449 766 456 745 c 128,-1,4
 463 724 463 724 489 704 c 1,5,-1
 675 578 l 2,6,7
 810 486 810 486 832 378 c 0,8,9
 838 346 838 346 838 313 c 0,10,11
 838 142 838 142 689 40 c 0,12,13
 556.425531915 -52.0106382979 556.425531915 -52.0106382979 375.888071526 -52.0106382979 c 0,14,15
 373.946808511 -52.0106382979 373.946808511 -52.0106382979 372 -52 c 0,16,17
 238 -52 238 -52 138 3 c 1,18,-1
 125 276 l 1,19,-1
 124 279 l 1,20,21
 124 292 124 292 135.5 292 c 128,-1,22
 147 292 147 292 170.5 269.5 c 128,-1,23
 194 247 194 247 245.5 223 c 128,-1,24
 297 199 297 199 335 199 c 128,-1,25
 373 199 373 199 394 202.5 c 128,-1,26
 415 206 415 206 434 214 c 0,27,28
 478 233 478 233 478 262 c 0,29,30
 478 314 478 314 438 340 c 2,31,-1
 403 364 l 2,32,33
 378 382 378 382 350 402 c 0,34,35
 273 456 273 456 244 478 c 128,-1,36
 215 500 215 500 188.5 535 c 128,-1,37
 162 570 162 570 148 608 c 0,38,39
 126 667 126 667 126 755 c 128,-1,40
 126 843 126 843 163 905 c 128,-1,41
 200 967 200 967 260 1014 c 0,42,43
 391 1116 391 1116 555 1116 c 0,44,45
 703 1116 703 1116 804 1028 c 1,46,47
 809 965 809 965 811 904 c 128,-1,48
 813 843 813 843 817 776 c 1,49,50
 817 754 817 754 797 754 c 0,51,52
 790 754 790 754 776 767.5 c 128,-1,53
 762 781 762 781 738 802.5 c 128,-1,54
 714 824 714 824 688 840 c 0,55,56
 628 878 628 878 567 878 c 0,0,1
EndSplineSet
Validated: 1
EndChar

StartChar: t
Encoding: 116 116 87
Width: 934
GlyphClass: 2
Flags: MW
LayerCount: 2
Fore
SplineSet
949 1024 m 2,0,1
 972 1024 972 1024 972 1000 c 0,2,3
 972 988 972 988 926 883 c 2,4,-1
 890 802 l 2,5,6
 883 787 883 787 875.5 780 c 128,-1,7
 868 773 868 773 845 771 c 1,8,-1
 659 771 l 1,9,10
 621 486 621 486 619 406.5 c 0,11,12
 618.5 386.625 618.5 386.625 618.5 370.09375 c 0,13,14
 618.5 320.5 618.5 320.5 623 301 c 0,15,16
 628 275 628 275 640 260 c 0,17,18
 661.411290323 231.927419355 661.411290323 231.927419355 709.989594173 231.927419355 c 0,19,20
 763.508064516 231.927419355 763.508064516 231.927419355 850 266 c 0,21,22
 874 276 874 276 884.5 276 c 128,-1,23
 895 276 895 276 898.5 267 c 128,-1,24
 902 258 902 258 906 236 c 0,25,26
 919 156 919 156 929 115 c 0,27,28
 941 71 941 71 941 60 c 0,29,30
 941 45 941 45 898 30.5 c 128,-1,31
 855 16 855 16 809.5 1.5 c 128,-1,32
 764 -13 764 -13 720 -25 c 0,33,34
 620 -52 620 -52 562 -52 c 0,35,36
 395 -52 395 -52 318.5 31 c 128,-1,37
 242 114 242 114 242 284 c 0,38,39
 242 358 242 358 282 768 c 1,40,-1
 177 768 l 2,41,42
 75 768 75 768 75 791 c 0,43,44
 75 806 75 806 135 895 c 128,-1,45
 195 984 195 984 207 1002 c 128,-1,46
 219 1020 219 1020 222 1024 c 1,47,-1
 293 1024 l 1,48,49
 305 1126 305 1126 312.5 1198.5 c 128,-1,50
 320 1271 320 1271 323 1289.5 c 128,-1,51
 326 1308 326 1308 330 1317 c 0,52,53
 335 1329 335 1329 366.5 1335.5 c 128,-1,54
 398 1342 398 1342 440 1349.5 c 128,-1,55
 482 1357 482 1357 524 1365 c 1,56,-1
 708 1409 l 1,57,58
 720 1409 720 1409 720 1401 c 2,59,-1
 720 1399 l 1,60,61
 718 1376 718 1376 681 1024 c 1,62,-1
 949 1024 l 2,0,1
EndSplineSet
Validated: 1
EndChar

StartChar: u
Encoding: 117 117 88
Width: 1280
GlyphClass: 2
Flags: MW
LayerCount: 2
Fore
SplineSet
1260 1116 m 1,0,1
 1271 1116 1271 1116 1271 1106 c 2,2,-1
 1177 124 l 2,3,4
 1174 91 1174 91 1169 78.5 c 128,-1,5
 1164 66 1164 66 1147 62 c 0,6,7
 1062 38 1062 38 969.5 13.5 c 128,-1,8
 877 -11 877 -11 832 -31.5 c 128,-1,9
 787 -52 787 -52 778.5 -52 c 128,-1,10
 770 -52 770 -52 770 -39 c 0,11,12
 770 -34 770 -34 772.5 -17 c 128,-1,13
 775 0 775 0 778.5 24 c 128,-1,14
 782 48 782 48 788 88 c 1,15,16
 573 -52 573 -52 421 -52 c 0,17,18
 116 -52 116 -52 116 269 c 0,19,20
 116 346 116 346 125 427.5 c 128,-1,21
 134 509 134 509 142 593.5 c 128,-1,22
 150 678 150 678 155 737 c 128,-1,23
 160 796 160 796 163.5 833.5 c 128,-1,24
 167 871 167 871 169.5 896 c 128,-1,25
 172 921 172 921 173.5 937.5 c 128,-1,26
 175 954 175 954 178 978 c 128,-1,27
 181 1002 181 1002 184.5 1015 c 128,-1,28
 188 1028 188 1028 221 1034.5 c 128,-1,29
 254 1041 254 1041 296 1048 c 0,30,31
 338 1056 338 1056 380 1064 c 1,32,-1
 564 1108 l 1,33,34
 576 1108 576 1108 576 1100 c 2,35,-1
 576 1098 l 1,36,37
 570 1051 570 1051 565 996 c 128,-1,38
 560 941 560 941 556 905 c 0,39,40
 553 870 553 870 548 822 c 0,41,42
 536 708 536 708 524 607 c 0,43,44
 501 404 501 404 501 357 c 128,-1,45
 501 310 501 310 505 286 c 0,46,47
 510 262 510 262 520 246 c 0,48,49
 541.388888889 211.972222222 541.388888889 211.972222222 588.298611111 211.972222222 c 0,50,51
 589.638888889 211.972222222 589.638888889 211.972222222 591 212 c 0,52,53
 655 212 655 212 705.5 245 c 128,-1,54
 756 278 756 278 783.5 316.5 c 128,-1,55
 811 355 811 355 816.5 434 c 128,-1,56
 822 513 822 513 827.5 579.5 c 128,-1,57
 833 646 833 646 837 691.5 c 128,-1,58
 841 737 841 737 844 768 c 0,59,60
 848 800 848 800 850 828 c 0,61,62
 855 885 855 885 858 944 c 128,-1,63
 861 1003 861 1003 865.5 1015.5 c 128,-1,64
 870 1028 870 1028 888 1032 c 0,65,66
 979 1050 979 1050 1074 1068.5 c 128,-1,67
 1169 1087 1169 1087 1260 1116 c 1,0,1
EndSplineSet
Validated: 1
EndChar

StartChar: v
Encoding: 118 118 89
Width: 1120
GlyphClass: 2
Flags: MW
LayerCount: 2
Fore
SplineSet
574 -2 m 1,0,-1
 407 -52 l 1,1,-1
 400 -52 l 2,2,3
 391 -52 391 -52 382 -25.5 c 128,-1,4
 373 1 373 1 353.5 69 c 128,-1,5
 334 137 334 137 311 221 c 128,-1,6
 288 305 288 305 263 400 c 128,-1,7
 238 495 238 495 212 593 c 128,-1,8
 186 691 186 691 160.5 787.5 c 128,-1,9
 135 884 135 884 118.5 942.5 c 128,-1,10
 102 1001 102 1001 102 1014.5 c 128,-1,11
 102 1028 102 1028 118 1032 c 0,12,13
 196 1049 196 1049 280 1067.5 c 128,-1,14
 364 1086 364 1086 403 1101 c 128,-1,15
 442 1116 442 1116 451.5 1116 c 128,-1,16
 461 1116 461 1116 462 1106 c 2,17,-1
 594 434 l 1,18,19
 599 446 599 446 611 477.5 c 128,-1,20
 623 509 623 509 640 553 c 128,-1,21
 657 597 657 597 677.5 650 c 128,-1,22
 698 703 698 703 719.5 758 c 128,-1,23
 741 813 741 813 762 867.5 c 128,-1,24
 783 922 783 922 801.5 969 c 128,-1,25
 820 1016 820 1016 834 1052 c 2,26,-1
 855 1106 l 2,27,28
 859 1116 859 1116 870 1116 c 1,29,-1
 878 1115 l 1,30,31
 968 1080 968 1080 1189 1032 c 0,32,33
 1208 1028 1208 1028 1208 1012.5 c 128,-1,34
 1208 997 1208 997 1196 970 c 2,35,-1
 784 94 l 1,36,37
 762 44 762 44 750 39 c 128,-1,38
 738 34 738 34 695 26 c 128,-1,39
 652 18 652 18 574 -2 c 1,0,-1
EndSplineSet
Validated: 1
EndChar

StartChar: w
Encoding: 119 119 90
Width: 1691
GlyphClass: 2
Flags: MW
LayerCount: 2
Fore
SplineSet
381 -52 m 2,0,1
 369 -52 369 -52 362 -25 c 128,-1,2
 355 2 355 2 337 69.5 c 128,-1,3
 319 137 319 137 298.5 220.5 c 128,-1,4
 278 304 278 304 256 399 c 128,-1,5
 234 494 234 494 211 592 c 128,-1,6
 188 690 188 690 165.5 786.5 c 128,-1,7
 143 883 143 883 122 970 c 1,8,9
 113 991 113 991 113 1009.5 c 128,-1,10
 113 1028 113 1028 129 1032 c 0,11,12
 207 1049 207 1049 291 1067.5 c 128,-1,13
 375 1086 375 1086 414 1101 c 128,-1,14
 453 1116 453 1116 462.5 1116 c 128,-1,15
 472 1116 472 1116 473 1106 c 2,16,-1
 585 414 l 1,17,-1
 742 1018 l 2,18,19
 745 1029 745 1029 759 1032 c 0,20,21
 1008 1087 1008 1087 1088 1116 c 1,22,23
 1102 1116 1102 1116 1102 1106 c 1,24,-1
 1204 424 l 1,25,-1
 1395 1106 l 1,26,27
 1399 1116 1399 1116 1410 1116 c 1,28,-1
 1418 1115 l 1,29,30
 1508 1080 1508 1080 1729 1032 c 0,31,32
 1748 1028 1748 1028 1748 1012.5 c 128,-1,33
 1748 997 1748 997 1736 970 c 1,34,-1
 1414 78 l 1,35,36
 1391 30 1391 30 1379.5 24 c 128,-1,37
 1368 18 1368 18 1325 9 c 0,38,39
 1165 -24 1165 -24 1042 -67 c 1,40,-1
 1037 -68 l 1,41,-1
 1030 -68 l 2,42,43
 1021 -68 1021 -68 1018 -58 c 0,44,45
 995 34 995 34 892 541 c 1,46,-1
 765 94 l 2,47,48
 752 46 752 46 727 37 c 0,49,50
 719 34 719 34 676 26 c 0,51,52
 532 -2 532 -2 393 -51 c 1,53,-1
 388 -52 l 1,54,-1
 381 -52 l 2,0,1
EndSplineSet
Validated: 1
EndChar

StartChar: x
Encoding: 120 120 91
Width: 1070
GlyphClass: 2
Flags: MW
LayerCount: 2
Fore
SplineSet
1025 16 m 0,0,1
 800 -35 800 -35 761.5 -51.5 c 128,-1,2
 723 -68 723 -68 714.5 -68 c 128,-1,3
 706 -68 706 -68 702.5 -62.5 c 128,-1,4
 699 -57 699 -57 685.5 -31.5 c 128,-1,5
 672 -6 672 -6 650 34 c 0,6,7
 607 115 607 115 549 226 c 1,8,9
 450 93 450 93 414 43 c 0,10,11
 346 -52 346 -52 339.5 -60 c 128,-1,12
 333 -68 333 -68 324 -68 c 128,-1,13
 315 -68 315 -68 299 -60 c 128,-1,14
 283 -52 283 -52 248 -40.5 c 128,-1,15
 213 -29 213 -29 176.5 -19.5 c 128,-1,16
 140 -10 140 -10 103 -1.5 c 128,-1,17
 66 7 66 7 44 12.5 c 128,-1,18
 22 18 22 18 22 26 c 128,-1,19
 22 34 22 34 55 78 c 2,20,-1
 386 531 l 1,21,22
 326 642 326 642 267.5 749 c 128,-1,23
 209 856 209 856 172.5 923 c 128,-1,24
 136 990 136 990 130 1001 c 128,-1,25
 124 1012 124 1012 124 1020.5 c 128,-1,26
 124 1029 124 1029 137 1032 c 0,27,28
 212 1049 212 1049 290.5 1067.5 c 128,-1,29
 369 1086 369 1086 404 1101 c 128,-1,30
 439 1116 439 1116 448.5 1116 c 128,-1,31
 458 1116 458 1116 462 1106 c 1,32,-1
 612 834 l 1,33,-1
 821 1106 l 2,34,35
 828 1116 828 1116 837 1116 c 128,-1,36
 846 1116 846 1116 878 1101 c 0,37,38
 911 1085 911 1085 1130 1032 c 0,39,40
 1140 1029 1140 1029 1140 1021.5 c 128,-1,41
 1140 1014 1140 1014 1132 1003.5 c 128,-1,42
 1124 993 1124 993 1072 924.5 c 128,-1,43
 1020 856 1020 856 938 749.5 c 128,-1,44
 856 643 856 643 775 531 c 1,45,-1
 1015 78 l 2,46,47
 1025 59 1025 59 1031 48 c 128,-1,48
 1037 37 1037 37 1037 28 c 128,-1,49
 1037 19 1037 19 1025 16 c 0,0,1
EndSplineSet
Validated: 1
EndChar

StartChar: y
Encoding: 121 121 92
Width: 1125
GlyphClass: 2
Flags: MW
LayerCount: 2
Fore
SplineSet
852 1116 m 1,0,-1
 860 1115 l 1,1,2
 950 1080 950 1080 1171 1032 c 0,3,4
 1190 1028 1190 1028 1190 1012.5 c 128,-1,5
 1190 997 1190 997 1178 970 c 2,6,-1
 546 -456 l 2,7,8
 542 -465 542 -465 533 -465 c 256,9,10
 527 -465 527 -465 507.5 -458 c 128,-1,11
 488 -451 488 -451 456 -442 c 128,-1,12
 424 -433 424 -433 392.5 -425.5 c 128,-1,13
 361 -418 361 -418 328 -411.5 c 128,-1,14
 295 -405 295 -405 271.5 -400 c 128,-1,15
 248 -395 248 -395 242.5 -390.5 c 128,-1,16
 237 -386 237 -386 237 -368.5 c 128,-1,17
 237 -351 237 -351 381 -29 c 1,18,19
 337 117 337 117 288 314 c 0,20,21
 240 512 240 512 216 606 c 0,22,23
 154 848 154 848 140 898 c 0,24,25
 114 993 114 993 114 1010.5 c 128,-1,26
 114 1028 114 1028 130 1032 c 0,27,28
 208 1049 208 1049 292 1067.5 c 128,-1,29
 376 1086 376 1086 415 1101 c 128,-1,30
 454 1116 454 1116 463.5 1116 c 128,-1,31
 473 1116 473 1116 474 1106 c 2,32,-1
 596 434 l 1,33,34
 600 446 600 446 611.5 477.5 c 128,-1,35
 623 509 623 509 638.5 553 c 128,-1,36
 654 597 654 597 673 650 c 128,-1,37
 692 703 692 703 712 758 c 128,-1,38
 732 813 732 813 751.5 867.5 c 128,-1,39
 771 922 771 922 788 969 c 128,-1,40
 805 1016 805 1016 817.5 1052 c 128,-1,41
 830 1088 830 1088 835.5 1102 c 128,-1,42
 841 1116 841 1116 852 1116 c 1,0,-1
EndSplineSet
Validated: 1
EndChar

StartChar: z
Encoding: 122 122 93
Width: 992
GlyphClass: 2
Flags: MW
LayerCount: 2
Fore
SplineSet
956 345 m 2,0,1
 983 345 983 345 983 320 c 0,2,3
 983 318 983 318 981 318 c 1,4,-1
 855 55 l 2,5,6
 839 20 839 20 786 12 c 0,7,8
 716 0 716 0 610 0 c 2,9,-1
 255 0 l 2,10,11
 128 0 128 0 128 48 c 1,12,-1
 483 779 l 1,13,-1
 104 771 l 2,14,15
 84 771 84 771 84 792 c 2,16,-1
 84 796 l 1,17,-1
 185 1037 l 1,18,19
 198 1080 198 1080 259 1080 c 1,20,-1
 949 1068 l 2,21,22
 960 1068 960 1068 971.5 1061 c 128,-1,23
 983 1054 983 1054 983 1048.5 c 128,-1,24
 983 1043 983 1043 981 1037 c 2,25,-1
 664 345 l 1,26,27
 664 339 664 339 700 339 c 2,28,-1
 715 339 l 1,29,-1
 956 345 l 2,0,1
EndSplineSet
Validated: 1
EndChar

StartChar: braceleft
Encoding: 123 123 94
Width: 842
GlyphClass: 2
Flags: MW
LayerCount: 2
Fore
SplineSet
226 393 m 1,0,-1
 227 449 l 1,1,2
 227 556 227 556 141 598 c 0,3,4
 115 610 115 610 93.5 614 c 128,-1,5
 72 618 72 618 65 622.5 c 128,-1,6
 58 627 58 627 58 644.5 c 128,-1,7
 58 662 58 662 61 687.5 c 128,-1,8
 64 713 64 713 68 741 c 128,-1,9
 72 769 72 769 78 796 c 0,10,11
 94 870 94 870 98 885 c 0,12,13
 105 916 105 916 120.5 920.5 c 128,-1,14
 136 925 136 925 179.5 931.5 c 128,-1,15
 223 938 223 938 263 969 c 128,-1,16
 303 1000 303 1000 334 1045 c 128,-1,17
 365 1090 365 1090 391 1144.5 c 128,-1,18
 417 1199 417 1199 446 1255.5 c 128,-1,19
 475 1312 475 1312 512 1366 c 0,20,21
 548 1420 548 1420 600 1464 c 0,22,23
 714 1561 714 1561 898 1574 c 1,24,-1
 902 1574 l 2,25,26
 920 1574 920 1574 920 1556 c 1,27,28
 912 1500 912 1500 908 1457 c 128,-1,29
 904 1414 904 1414 900 1374 c 0,30,31
 890 1278 890 1278 879.5 1221 c 128,-1,32
 869 1164 869 1164 859 1154 c 128,-1,33
 849 1144 849 1144 839 1143 c 0,34,35
 789 1137 789 1137 761.5 1106.5 c 128,-1,36
 734 1076 734 1076 716 1033 c 128,-1,37
 698 990 698 990 684 940 c 0,38,39
 668 891 668 891 644 847 c 0,40,41
 588 744 588 744 466 727 c 1,42,43
 647 629 647 629 647 487 c 1,44,-1
 646 434 l 1,45,46
 646 238 646 238 757 182 c 1,47,48
 775 177 775 177 775 162 c 0,49,50
 775 130 775 130 753 48 c 0,51,52
 717 -88 717 -88 709 -120 c 128,-1,53
 701 -152 701 -152 695.5 -156 c 128,-1,54
 690 -160 690 -160 682 -160 c 1,55,56
 378 -108 378 -108 266 164 c 0,57,58
 226 262 226 262 226 393 c 1,0,-1
EndSplineSet
Validated: 1
EndChar

StartChar: bar
Encoding: 124 124 95
Width: 595
GlyphClass: 2
Flags: MW
LayerCount: 2
Fore
SplineSet
156 -108 m 0,0,1
 121 -108 121 -108 121 -77 c 2,2,-1
 121 -71 l 1,3,4
 145 300 145 300 176.5 646 c 128,-1,5
 208 992 208 992 218 1137 c 128,-1,6
 228 1282 228 1282 234.5 1373.5 c 128,-1,7
 241 1465 241 1465 245.5 1477.5 c 128,-1,8
 250 1490 250 1490 268 1494 c 1,9,10
 459 1508 459 1508 601 1526 c 1,11,12
 612 1526 612 1526 612 1516 c 2,13,-1
 482 14 l 1,14,-1
 482 -9 l 2,15,16
 482 -18 482 -18 475.5 -23.5 c 128,-1,17
 469 -29 469 -29 442 -36 c 2,18,-1
 220 -92 l 1,19,20
 176 -108 176 -108 156 -108 c 0,0,1
EndSplineSet
Validated: 1
EndChar

StartChar: braceright
Encoding: 125 125 96
Width: 842
GlyphClass: 2
Flags: MW
LayerCount: 2
Fore
SplineSet
66 -69 m 1,0,-1
 65 46 l 1,1,2
 65 174 65 174 99 182 c 1,3,4
 174 228 174 228 209 278 c 0,5,6
 272 366 272 366 298 496 c 1,7,8
 334 643 334 643 496 737 c 1,9,10
 352 756 352 756 327 886 c 0,11,12
 319 928 319 928 314 999 c 0,13,14
 308 1070 308 1070 298 1100 c 0,15,16
 275 1165 275 1165 204 1173 c 1,17,18
 183 1178 183 1178 183 1205 c 0,19,20
 183 1212 183 1212 185.5 1242.5 c 128,-1,21
 188 1273 188 1273 193 1312.5 c 128,-1,22
 198 1352 198 1352 204.5 1389 c 128,-1,23
 211 1426 211 1426 218.5 1465.5 c 128,-1,24
 226 1505 226 1505 231 1536 c 128,-1,25
 236 1567 236 1567 242 1570.5 c 128,-1,26
 248 1574 248 1574 256 1574 c 2,27,-1
 261 1574 l 1,28,29
 528 1556 528 1556 610 1360 c 0,30,31
 646 1275 646 1275 666 1174.5 c 128,-1,32
 686 1074 686 1074 706 1028 c 0,33,34
 751 924 751 924 850 909 c 0,35,36
 879 905 879 905 893.5 900.5 c 128,-1,37
 908 896 908 896 908 876 c 1,38,-1
 904 821 l 2,39,40
 895 671 895 671 882 620.5 c 128,-1,41
 869 570 869 570 860.5 563.5 c 128,-1,42
 852 557 852 557 836 556 c 1,43,44
 713 521 713 521 667 307 c 1,45,46
 614 32 614 32 324 -96 c 0,47,48
 211 -146 211 -146 88 -159 c 1,49,-1
 82 -160 l 1,50,51
 65 -160 65 -160 65 -141 c 2,52,-1
 66 -69 l 1,0,-1
EndSplineSet
Validated: 1
EndChar

StartChar: asciitilde
Encoding: 126 126 97
Width: 1084
GlyphClass: 2
Flags: MW
LayerCount: 2
Fore
SplineSet
144 559 m 2,0,1
 114 559 114 559 114 576 c 0,2,3
 114 761 114 761 214 880 c 0,4,5
 312 996 312 996 456 996 c 0,6,7
 549 996 549 996 589 981 c 0,8,9
 664 953 664 953 723 871 c 0,10,11
 758 823 758 823 793 823 c 128,-1,12
 828 823 828 823 841.5 839.5 c 128,-1,13
 855 856 855 856 860.5 876.5 c 128,-1,14
 866 897 866 897 869 913.5 c 128,-1,15
 872 930 872 930 881 930 c 2,16,-1
 1085 939 l 1,17,18
 1111 939 1111 939 1111 920 c 0,19,20
 1111.01010101 918.454545455 1111.01010101 918.454545455 1111.01010101 916.91184573 c 0,21,22
 1111.01010101 765.727272727 1111.01010101 765.727272727 1014 641 c 0,23,24
 909 506 909 506 758 506 c 0,25,26
 686 506 686 506 643 528 c 0,27,28
 563 570 563 570 503 658 c 0,29,30
 477 695 477 695 423 695 c 0,31,32
 344 695 344 695 344 585 c 0,33,34
 344 577 344 577 336 569.5 c 128,-1,35
 328 562 328 562 315 562 c 2,36,-1
 144 559 l 2,0,1
EndSplineSet
Validated: 1
EndChar

StartChar: exclamdown
Encoding: 161 161 98
Width: 550
GlyphClass: 2
Flags: MW
LayerCount: 2
Fore
SplineSet
455 1086 m 1,0,1
 466 1086 466 1086 466 1076 c 2,2,-1
 476 88 l 1,3,4
 473 54 473 54 469 42 c 128,-1,5
 465 30 465 30 447 26 c 0,6,7
 362 6 362 6 275 -18 c 0,8,9
 99 -68 99 -68 85 -68 c 128,-1,10
 71 -68 71 -68 71 -62.5 c 128,-1,11
 71 -57 71 -57 75 -33.5 c 128,-1,12
 79 -10 79 -10 85.5 27 c 128,-1,13
 92 64 92 64 100 110 c 128,-1,14
 108 156 108 156 117 202 c 0,15,16
 140 320 140 320 161 420 c 0,17,18
 227 732 227 732 269 990 c 1,19,20
 271 1022 271 1022 275.5 1035.5 c 128,-1,21
 280 1049 280 1049 308 1054 c 0,22,23
 382 1067 382 1067 455 1086 c 1,0,1
601 1602 m 1,24,25
 603 1598 603 1598 612 1592 c 1,26,-1
 590 1318 l 2,27,28
 587 1285 587 1285 582.5 1272 c 128,-1,29
 578 1259 578 1259 561 1256 c 0,30,31
 476 1240 476 1240 389 1221 c 0,32,33
 210 1182 210 1182 197.5 1182 c 128,-1,34
 185 1182 185 1182 185 1192 c 0,35,36
 193 1307 193 1307 193 1308.5 c 128,-1,37
 193 1310 193 1310 193.5 1311.5 c 128,-1,38
 194 1313 194 1313 194.5 1317.5 c 128,-1,39
 195 1322 195 1322 196 1336 c 0,40,41
 206 1487 206 1487 211 1500.5 c 128,-1,42
 216 1514 216 1514 234 1518 c 0,43,44
 319 1535 319 1535 412 1553.5 c 128,-1,45
 505 1572 505 1572 550 1587 c 128,-1,46
 595 1602 595 1602 601 1602 c 1,24,25
EndSplineSet
Validated: 1
EndChar

StartChar: cent
Encoding: 162 162 99
Width: 1087
GlyphClass: 2
Flags: MW
LayerCount: 2
Fore
SplineSet
569 -222 m 1,0,-1
 579 -83 l 1,1,2
 370 -58 370 -58 237 98 c 0,3,4
 101 256 101 256 101 488 c 0,5,6
 102 739 102 739 264 920 c 0,7,8
 427 1101 427 1101 676 1125 c 1,9,-1
 685 1239 l 2,10,11
 687 1272 687 1272 689.5 1285 c 128,-1,12
 692 1298 692 1298 704 1302 c 1,13,-1
 863 1305 l 2,14,15
 892 1305 892 1305 892 1264 c 1,16,-1
 879 1116 l 1,17,18
 1012 1092 1012 1092 1075 1039 c 0,19,20
 1087 1029 1087 1029 1087 1025.5 c 128,-1,21
 1087 1022 1087 1022 1082 994 c 0,22,23
 1078 966 1078 966 1072 930 c 0,24,25
 1058 846 1058 846 1058 789 c 0,26,27
 1058 772 1058 772 1039 772 c 0,28,29
 1028 772 1028 772 989 786 c 0,30,31
 911 813 911 813 854 820 c 1,32,-1
 803 215 l 1,33,34
 890 226 890 226 982 277 c 0,35,36
 984 278 984 278 992 278 c 128,-1,37
 1000 278 1000 278 1000 254 c 2,38,-1
 1000 176 l 2,39,40
 1000 -10 1000 -10 996 -10 c 1,41,42
 913 -65 913 -65 778 -81 c 1,43,-1
 769 -195 l 2,44,45
 768 -207 768 -207 768 -214 c 0,46,47
 768 -220 768 -220 766 -226 c 0,48,49
 763 -236 763 -236 745 -245 c 1,50,-1
 663 -252 l 1,51,-1
 588 -252 l 2,52,53
 569 -252 569 -252 569 -222 c 1,0,-1
653 800 m 1,54,55
 574 764 574 764 530 686 c 0,56,57
 485 606 485 606 485 512 c 0,58,59
 485 313 485 313 606 240 c 1,60,61
 611 311 611 311 618.5 399 c 128,-1,62
 626 487 626 487 630.5 541.5 c 128,-1,63
 635 596 635 596 640 647 c 2,64,-1
 653 800 l 1,54,55
EndSplineSet
Validated: 1
EndChar

StartChar: sterling
Encoding: 163 163 100
Width: 1113
GlyphClass: 2
Flags: MW
LayerCount: 2
Fore
SplineSet
911 -48 m 2,0,-1
 286 -58 l 2,1,2
 246 -58 246 -58 206 -58 c 0,3,4
 87 -58 87 -58 87 -30 c 0,5,6
 87 -5 87 -5 211 119 c 0,7,8
 243 151 243 151 270 175 c 1,9,10
 289 380 289 380 320 658 c 1,11,-1
 217 658 l 2,12,13
 115 658 115 658 115 681 c 0,14,15
 115 693 115 693 163 784 c 0,16,17
 228 907 228 907 232 914 c 1,18,-1
 354 914 l 1,19,-1
 368 1123 l 1,20,21
 406 1450 406 1450 618 1546 c 0,22,23
 698 1582 698 1582 788.5 1582 c 128,-1,24
 879 1582 879 1582 943 1567.5 c 128,-1,25
 1007 1553 1007 1553 1055.5 1534.5 c 128,-1,26
 1104 1516 1104 1516 1133.5 1497.5 c 128,-1,27
 1163 1479 1163 1479 1163 1473 c 128,-1,28
 1163 1467 1163 1467 1161 1462.5 c 128,-1,29
 1159 1458 1159 1458 1144 1428 c 128,-1,30
 1129 1398 1129 1398 1113 1360 c 0,31,32
 1098 1321 1098 1321 1088 1296 c 0,33,34
 1069 1248 1069 1248 1059 1248 c 1,35,-1
 970 1284 l 1,36,37
 928 1298 928 1298 884 1298 c 128,-1,38
 840 1298 840 1298 807.5 1270 c 128,-1,39
 775 1242 775 1242 756 1164 c 1,40,41
 739 1027 739 1027 732 914 c 1,42,-1
 993 914 l 2,43,44
 1016 914 1016 914 1016 890 c 0,45,46
 1016 878 1016 878 970 773 c 2,47,-1
 934 692 l 2,48,49
 927 677 927 677 919.5 669 c 128,-1,50
 912 661 912 661 889 661 c 2,51,-1
 716 661 l 1,52,53
 692 467 692 467 667 223 c 1,54,55
 868 232 868 232 1045 232 c 0,56,57
 1053 232 1053 232 1063 226 c 128,-1,58
 1073 220 1073 220 1073 207.5 c 128,-1,59
 1073 195 1073 195 1064 174.5 c 128,-1,60
 1055 154 1055 154 1040 125 c 0,61,62
 1019 85 1019 85 989 27 c 128,-1,63
 959 -31 959 -31 949.5 -39.5 c 128,-1,64
 940 -48 940 -48 911 -48 c 2,0,-1
EndSplineSet
Validated: 1
EndChar

StartChar: currency
Encoding: 164 164 101
Width: 1277
GlyphClass: 2
Flags: MW
LayerCount: 2
Fore
SplineSet
271 518 m 1,0,1
 175 644 175 644 175 817.5 c 128,-1,2
 175 991 175 991 290 1125 c 1,3,-1
 253 1165 l 2,4,5
 215.493506494 1207.44155844 215.493506494 1207.44155844 215.493506494 1220.65727779 c 0,6,7
 215.493506494 1220.83116883 215.493506494 1220.83116883 215.5 1221 c 0,8,9
 216 1234 216 1234 223.5 1239 c 128,-1,10
 231 1244 231 1244 250 1260 c 0,11,12
 270 1274 270 1274 292 1294 c 0,13,14
 310 1311 310 1311 358 1351 c 0,15,16
 371 1362 371 1362 381 1362 c 0,17,18
 390 1362 390 1362 402 1354 c 1,19,-1
 482 1267 l 1,20,21
 604 1324 604 1324 732 1324 c 128,-1,22
 860 1324 860 1324 962 1273 c 1,23,-1
 1037 1354 l 2,24,25
 1045 1362 1045 1362 1056.5 1362 c 128,-1,26
 1068 1362 1068 1362 1076 1355 c 128,-1,27
 1084 1348 1084 1348 1104 1331 c 0,28,29
 1126 1314 1126 1314 1148 1294 c 0,30,31
 1189 1256 1189 1256 1211 1242 c 0,32,33
 1223 1234 1223 1234 1223 1219 c 128,-1,34
 1223 1204 1223 1204 1199 1179 c 2,35,-1
 1183 1162 l 2,36,37
 1166 1145 1166 1145 1141 1117 c 1,38,39
 1223 998 1223 998 1223 839.5 c 128,-1,40
 1223 681 1223 681 1133 555 c 1,41,-1
 1212 468 l 2,42,43
 1228 450 1228 450 1228 433 c 128,-1,44
 1228 416 1228 416 1215 401 c 128,-1,45
 1202 386 1202 386 1180 366 c 128,-1,46
 1158 346 1158 346 1139 331 c 0,47,48
 1097 298 1097 298 1093 298 c 0,49,50
 1067 298 1067 298 963 408 c 1,51,52
 833 338 833 338 691 338 c 128,-1,53
 549 338 549 338 448 380 c 1,54,55
 374 300 374 300 346 298 c 0,56,57
 339 298 339 298 333.5 302 c 128,-1,58
 328 306 328 306 308.5 322 c 128,-1,59
 289 338 289 338 267 358 c 0,60,61
 211 409 211 409 211 424 c 0,62,63
 211 450 211 450 227 468 c 2,64,-1
 271 518 l 1,0,1
712 1069 m 256,65,66
 618 1069 618 1069 557 988 c 0,67,68
 502 915 502 915 502 815 c 0,69,70
 502 670 502 670 613 616 c 0,71,72
 651 598 651 598 702 597 c 256,73,74
 798 597 798 597 856 675 c 0,75,76
 909 746 909 746 909 844 c 0,77,78
 909 994 909 994 799 1050 c 0,79,80
 762 1069 762 1069 712 1069 c 256,65,66
EndSplineSet
Validated: 1
EndChar

StartChar: yen
Encoding: 165 165 102
Width: 1263
GlyphClass: 2
Flags: MW
LayerCount: 2
Fore
SplineSet
388 517 m 2,0,1
 241 517 241 517 241 541 c 0,2,3
 241 567 241 567 272.5 615.5 c 128,-1,4
 304 664 304 664 320 682 c 0,5,6
 356 722 356 722 384 723 c 1,7,-1
 437 724 l 1,8,9
 373 864 373 864 344.5 925 c 128,-1,10
 316 986 316 986 291 1040 c 0,11,12
 266 1092 266 1092 244 1138 c 2,13,-1
 178 1278 l 2,14,15
 177 1281 177 1281 177 1292 c 0,16,17
 177 1315 177 1315 187 1332 c 1,18,19
 201 1340 201 1340 231.5 1352.5 c 128,-1,20
 262 1365 262 1365 284.5 1374.5 c 128,-1,21
 307 1384 307 1384 330 1393 c 2,22,-1
 445 1439 l 2,23,24
 458 1445 458 1445 468 1445 c 0,25,26
 488 1445 488 1445 508 1424 c 1,27,-1
 739 976 l 1,28,-1
 844 1174 l 2,29,30
 863 1208 863 1208 881.5 1241 c 128,-1,31
 900 1274 900 1274 914 1300 c 0,32,33
 946 1358 946 1358 951 1358 c 1,34,-1
 1294 1444 l 2,35,36
 1306 1447 1306 1447 1314 1447 c 0,37,38
 1337 1447 1337 1447 1337 1426 c 1,39,40
 1336 1421 1336 1421 1335 1412.5 c 128,-1,41
 1334 1404 1334 1404 1329 1394 c 2,42,-1
 974 737 l 1,43,44
 1009 738 1009 738 1036.25 738 c 128,-1,45
 1063.5 738 1063.5 738 1083 737 c 0,46,47
 1122 735 1122 735 1122 704 c 256,48,49
 1122 678 1122 678 1112 613 c 1,50,-1
 1103 546 l 2,51,52
 1099 523 1099 523 1060.5 522 c 128,-1,53
 1022 521 1022 521 978 521 c 2,54,-1
 872 521 l 1,55,-1
 858 436 l 1,56,57
 939.333333333 438.666666667 939.333333333 438.666666667 987.333333333 438.666666667 c 0,58,59
 1011.33333333 438.666666667 1011.33333333 438.666666667 1027 438 c 0,60,61
 1074 436 1074 436 1074 405 c 256,62,63
 1074 379 1074 379 1064 314 c 1,64,-1
 1055 247 l 2,65,66
 1051 224 1051 224 1012.5 223 c 128,-1,67
 974 222 974 222 929 222 c 2,68,-1
 820 222 l 1,69,-1
 800 104 l 2,70,71
 792 57 792 57 783 49 c 128,-1,72
 774 41 774 41 765 36 c 1,73,-1
 501 -33 l 1,74,75
 465 -51 465 -51 429 -51 c 128,-1,76
 393 -51 393 -51 393 -19 c 2,77,-1
 393 -15 l 1,78,79
 398 68 398 68 422 218 c 1,80,-1
 340 218 l 2,81,82
 193 218 193 218 193 242 c 0,83,84
 193 268 193 268 224 316 c 0,85,86
 256 364 256 364 272 382 c 0,87,88
 308 422 308 422 336 424 c 1,89,-1
 457 426 l 1,90,91
 457 432 457 432 459 434 c 1,92,-1
 471 517 l 1,93,-1
 388 517 l 2,0,1
EndSplineSet
Validated: 1
EndChar

StartChar: brokenbar
Encoding: 166 166 103
Width: 571
GlyphClass: 2
Flags: MW
LayerCount: 2
Fore
SplineSet
215 797 m 0,0,1
 180 797 180 797 180 828 c 2,2,-1
 180 834 l 1,3,4
 186 926 186 926 190 979.5 c 128,-1,5
 194 1033 194 1033 196 1062 c 128,-1,6
 198 1091 198 1091 199 1102.5 c 128,-1,7
 200 1114 200 1114 201 1122.5 c 128,-1,8
 202 1131 202 1131 203.5 1143.5 c 128,-1,9
 205 1156 205 1156 207.5 1187.5 c 128,-1,10
 210 1219 210 1219 214.5 1276.5 c 128,-1,11
 219 1334 219 1334 224 1399 c 128,-1,12
 229 1464 229 1464 233.5 1477.5 c 128,-1,13
 238 1491 238 1491 256 1494 c 0,14,15
 340 1508 340 1508 422 1521.5 c 128,-1,16
 504 1535 504 1535 589 1556 c 1,17,-1
 600 1546 l 1,18,-1
 541 909 l 1,19,-1
 541 886 l 2,20,21
 541 868 541 868 501 859 c 2,22,-1
 283 809 l 1,23,24
 272 808 272 808 252 802.5 c 128,-1,25
 232 797 232 797 215 797 c 0,0,1
141 -121 m 0,26,27
 103 -121 103 -121 103 -90 c 2,28,-1
 103 -84 l 1,29,30
 109 8 109 8 113 61.5 c 128,-1,31
 117 115 117 115 119 144 c 128,-1,32
 121 173 121 173 122 184.5 c 128,-1,33
 123 196 123 196 124 204.5 c 128,-1,34
 125 213 125 213 126.5 225.5 c 128,-1,35
 128 238 128 238 130.5 269.5 c 128,-1,36
 133 301 133 301 137.5 358.5 c 128,-1,37
 142 416 142 416 147 481.5 c 128,-1,38
 152 547 152 547 156.5 559.5 c 128,-1,39
 161 572 161 572 179 576 c 0,40,41
 263 592 263 592 345 607.5 c 128,-1,42
 427 623 427 623 512 648 c 1,43,-1
 523 638 l 1,44,-1
 464 11 l 1,45,-1
 464 -12 l 2,46,47
 464 -22 464 -22 457.5 -26.5 c 128,-1,48
 451 -31 451 -31 424 -39 c 2,49,-1
 202 -105 l 2,50,51
 191 -108 191 -108 174.5 -114.5 c 128,-1,52
 158 -121 158 -121 141 -121 c 0,26,27
EndSplineSet
Validated: 1
EndChar

StartChar: section
Encoding: 167 167 104
Width: 1061
GlyphClass: 2
Flags: MW
LayerCount: 2
Fore
SplineSet
854 294 m 1,0,1
 912 207 912 207 912 124.5 c 128,-1,2
 912 42 912 42 882 -12.5 c 128,-1,3
 852 -67 852 -67 804 -106 c 0,4,5
 703 -187 703 -187 564 -187 c 0,6,7
 487 -187 487 -187 416 -179.5 c 128,-1,8
 345 -172 345 -172 278 -136 c 1,9,-1
 201 141 l 1,10,-1
 198 147 l 1,11,12
 198 157 198 157 208 157 c 128,-1,13
 218 157 218 157 250.5 134.5 c 128,-1,14
 283 112 283 112 347 88 c 128,-1,15
 411 64 411 64 453 64 c 128,-1,16
 495 64 495 64 513.5 67 c 128,-1,17
 532 70 532 70 548 76 c 0,18,19
 586 92 586 92 585 119 c 0,20,21
 585 172 585 172 528 205 c 1,22,23
 457 244 457 244 384 286 c 0,24,25
 312 328 312 328 254 382 c 0,26,27
 122 505 122 505 121 669 c 0,28,29
 121 772 121 772 171.5 848 c 128,-1,30
 222 924 222 924 316 955 c 1,31,32
 259 1069 259 1069 259 1146 c 128,-1,33
 259 1223 259 1223 285 1272.5 c 128,-1,34
 311 1322 311 1322 360 1359 c 0,35,36
 465 1438 465 1438 639 1438 c 0,37,38
 731 1438 731 1438 787 1416.5 c 128,-1,39
 843 1395 843 1395 862 1381.5 c 128,-1,40
 881 1368 881 1368 887 1350 c 0,41,42
 906 1287 906 1287 922 1226 c 128,-1,43
 938 1165 938 1165 948.5 1130.5 c 128,-1,44
 959 1096 959 1096 959 1086 c 128,-1,45
 959 1076 959 1076 947 1076 c 128,-1,46
 935 1076 935 1076 918.5 1089.5 c 128,-1,47
 902 1103 902 1103 873 1124.5 c 128,-1,48
 844 1146 844 1146 814 1162 c 0,49,50
 745 1200 745 1200 684 1200 c 0,51,52
 583 1200 583 1200 583 1136 c 128,-1,53
 583 1072 583 1072 644 1035 c 0,54,55
 908 870 908 870 991 754 c 0,56,57
 1040 685 1040 685 1045.5 643 c 128,-1,58
 1051 601 1051 601 1051 562 c 128,-1,59
 1051 523 1051 523 1035.5 477.5 c 128,-1,60
 1020 432 1020 432 993 396 c 0,61,62
 939 324 939 324 854 294 c 1,0,1
505 734 m 0,63,64
 404 734 404 734 404 672 c 0,65,66
 404 630 404 630 428 599 c 1,67,68
 525 530 525 530 628 530 c 0,69,70
 694 530 694 530 723 560 c 0,71,72
 734 572 734 572 734 590 c 0,73,74
 734 623 734 623 699 655 c 1,75,-1
 624 703 l 1,76,77
 560 734 560 734 505 734 c 0,63,64
EndSplineSet
Validated: 1
EndChar

StartChar: dieresis
Encoding: 168 168 105
Width: 1189
GlyphClass: 2
Flags: MW
LayerCount: 2
Fore
SplineSet
99 1218 m 0,0,1
 89 1218 89 1218 89 1225 c 2,2,-1
 89 1228 l 1,3,4
 95 1342 95 1342 95 1354 c 128,-1,5
 95 1366 95 1366 95.5 1380 c 128,-1,6
 96 1394 96 1394 97.5 1425 c 128,-1,7
 99 1456 99 1456 101.5 1503.5 c 128,-1,8
 104 1551 104 1551 109 1562.5 c 128,-1,9
 114 1574 114 1574 129 1576 c 1,10,11
 457 1578 l 2,12,13
 475 1578 475 1578 475 1552 c 1,14,-1
 450 1274 l 2,15,16
 447 1245 447 1245 443 1233.5 c 128,-1,17
 439 1222 439 1222 424 1220 c 1,18,19
 272 1218 272 1218 99 1218 c 0,0,1
720 1216 m 0,20,21
 715 1216 715 1216 715 1222 c 2,22,-1
 715 1226 l 1,23,24
 718 1289 718 1289 719.5 1319.5 c 128,-1,25
 721 1350 721 1350 721.5 1363 c 128,-1,26
 722 1376 722 1376 722 1380 c 128,-1,27
 722 1384 722 1384 722 1396 c 0,28,29
 722 1523 722 1523 734 1556 c 0,30,31
 739 1572 739 1572 754 1574 c 1,32,33
 932 1574 932 1574 1082 1576 c 0,34,35
 1101 1576 1101 1576 1101 1556 c 1,36,-1
 1077 1273 l 1,37,38
 1073 1243 1073 1243 1069.5 1232 c 128,-1,39
 1066 1221 1066 1221 1049 1219 c 1,40,41
 818 1216 818 1216 720 1216 c 0,20,21
EndSplineSet
Validated: 1
EndChar

StartChar: copyright
Encoding: 169 169 106
Width: 1640
GlyphClass: 2
Flags: MW
LayerCount: 2
Fore
SplineSet
1154 253 m 1,0,1
 1058 192 1058 192 877 192 c 0,2,3
 691 192 691 192 567 318 c 0,4,5
 441 446 441 446 441 646 c 0,6,7
 440.993103448 647.517241379 440.993103448 647.517241379 440.993103448 649.031153389 c 0,8,9
 440.993103448 867.034482759 440.993103448 867.034482759 584 1016 c 0,10,11
 728.052287582 1167.00653595 728.052287582 1167.00653595 941.192532787 1167.00653595 c 0,12,13
 942.594771242 1167.00653595 942.594771242 1167.00653595 944 1167 c 0,14,15
 1119 1167 1119 1167 1209 1090 c 1,16,-1
 1209 1085 l 1,17,-1
 1220 870 l 2,18,19
 1220 857 1220 857 1203.5 857 c 128,-1,20
 1187 857 1187 857 1166.5 870.5 c 128,-1,21
 1146 884 1146 884 1118 900 c 0,22,23
 1041 945 1041 945 979.5 945 c 128,-1,24
 918 945 918 945 874.5 923.5 c 128,-1,25
 831 902 831 902 800 864 c 0,26,27
 736 786 736 786 736 659 c 0,28,29
 736 493 736 493 842 432 c 0,30,31
 877 412 877 412 919 412 c 128,-1,32
 961 412 961 412 989.5 414.5 c 128,-1,33
 1018 417 1018 417 1042 423 c 0,34,35
 1088 434 1088 434 1142 464 c 1,36,37
 1150 464 1150 464 1153.5 462 c 128,-1,38
 1157 460 1157 460 1157 446 c 2,39,-1
 1157 389 l 2,40,41
 1157 253 1157 253 1154 253 c 1,0,1
613 147.5 m 128,-1,43
 706 103 706 103 809.5 103 c 128,-1,44
 913 103 913 103 995.5 123.5 c 128,-1,45
 1078 144 1078 144 1149.5 182 c 128,-1,46
 1221 220 1221 220 1280 275 c 128,-1,47
 1339 330 1339 330 1381 400 c 0,48,49
 1469 546 1469 546 1469 728 c 0,50,51
 1468 950 1468 950 1326 1100 c 0,52,53
 1181 1253 1181 1253 959 1253 c 0,54,55
 693 1253 693 1253 511 1088 c 0,56,57
 321 915 321 915 321 652 c 0,58,59
 321 424 321 424 455 268 c 0,60,42
 520 192 520 192 613 147.5 c 128,-1,43
770 -63 m 0,61,62
 636 -63 636 -63 514 -5 c 0,63,64
 393 54 393 54 308 152 c 0,65,66
 133 354 133 354 133 653 c 0,67,68
 133 830 133 830 200 974 c 128,-1,69
 267 1118 267 1118 381 1221 c 128,-1,70
 495 1324 495 1324 646 1380 c 128,-1,71
 797 1436 797 1436 954.5 1436 c 128,-1,72
 1112 1436 1112 1436 1234 1382 c 128,-1,73
 1356 1328 1356 1328 1444 1236 c 0,74,75
 1630 1042 1630 1042 1630 752 c 0,76,77
 1630 390 1630 390 1384 160 c 1,78,79
 1147 -63 1147 -63 770 -63 c 0,61,62
EndSplineSet
Validated: 1
EndChar

StartChar: ordfeminine
Encoding: 170 170 107
Width: 987
GlyphClass: 2
Flags: MW
LayerCount: 2
Fore
SplineSet
549 1457 m 0,0,1
 641 1457 641 1457 749 1373 c 1,2,3
 753 1397 753 1397 754 1411 c 0,4,5
 755 1424 755 1424 758 1432 c 0,6,7
 762 1443 762 1443 807 1449 c 0,8,9
 946 1467 946 1467 1023 1471 c 1,10,-1
 942 745 l 1,11,12
 942 698 942 698 975 668 c 0,13,14
 981 662 981 662 981 659 c 0,15,16
 981 648 981 648 958 639 c 2,17,-1
 750 549 l 2,18,19
 749 548 749 548 745 548 c 0,20,21
 725 548 725 548 699 658 c 1,22,23
 605 549 605 549 480 549 c 0,24,25
 341 550 341 550 242 660 c 0,26,27
 136 778 136 778 136 958 c 0,28,29
 136 1176 136 1176 256 1318 c 0,30,31
 374 1456 374 1456 549 1457 c 0,0,1
444 996 m 0,32,33
 444 759 444 759 567 759 c 0,34,35
 613 759 613 759 677 808 c 1,36,-1
 710 1039 l 2,37,38
 721 1114 721 1114 722 1144 c 2,39,-1
 725 1194 l 1,40,41
 653 1253 653 1253 602 1253 c 128,-1,42
 551 1253 551 1253 522.5 1225.5 c 128,-1,43
 494 1198 494 1198 476 1158 c 0,44,45
 444 1084 444 1084 444 996 c 0,32,33
EndSplineSet
Validated: 1
EndChar

StartChar: guillemotleft
Encoding: 171 171 108
Width: 2032
GlyphClass: 2
Flags: MW
LayerCount: 2
Fore
SplineSet
116 421 m 0,0,1
 116 702 116 702 108 742 c 1,2,3
 113 761 113 761 122 761 c 1,4,5
 222 808 222 808 463 895 c 0,6,7
 781 1010 781 1010 931 1068 c 1,8,9
 962 1077 962 1077 975.5 1077 c 128,-1,10
 989 1077 989 1077 992 1061 c 1,11,12
 998 829 998 829 1017 740 c 1,13,14
 1017 719 1017 719 1004 717 c 1,15,-1
 558 555 l 1,16,17
 637 512 637 512 730 465 c 128,-1,18
 823 418 823 418 869 394 c 128,-1,19
 915 370 915 370 951 352 c 0,20,21
 1012 321 1012 321 1012 314.5 c 128,-1,22
 1012 308 1012 308 988.5 267 c 128,-1,23
 965 226 965 226 934.5 146.5 c 128,-1,24
 904 67 904 67 872 -10 c 0,25,26
 866 -29 866 -29 852 -29 c 0,27,28
 836 -29 836 -29 808 -17 c 1,29,-1
 168 365 l 1,30,31
 136 381 136 381 126 391 c 128,-1,32
 116 401 116 401 116 421 c 0,0,1
1106 421 m 0,33,34
 1106 702 1106 702 1098 742 c 1,35,36
 1103 761 1103 761 1112 761 c 1,37,38
 1212 808 1212 808 1453 895 c 0,39,40
 1771 1010 1771 1010 1921 1068 c 1,41,42
 1952 1077 1952 1077 1965.5 1077 c 128,-1,43
 1979 1077 1979 1077 1982 1061 c 1,44,45
 1988 829 1988 829 2007 740 c 1,46,47
 2007 719 2007 719 1994 717 c 1,48,-1
 1548 555 l 1,49,50
 1627 512 1627 512 1720 465 c 128,-1,51
 1813 418 1813 418 1859 394 c 128,-1,52
 1905 370 1905 370 1941 352 c 0,53,54
 2002 321 2002 321 2002 314.5 c 128,-1,55
 2002 308 2002 308 1978.5 267 c 128,-1,56
 1955 226 1955 226 1924.5 146.5 c 128,-1,57
 1894 67 1894 67 1862 -10 c 0,58,59
 1856 -29 1856 -29 1842 -29 c 0,60,61
 1826 -29 1826 -29 1798 -17 c 1,62,-1
 1158 365 l 1,63,64
 1126 381 1126 381 1116 391 c 128,-1,65
 1106 401 1106 401 1106 421 c 0,33,34
EndSplineSet
Validated: 1
EndChar

StartChar: logicalnot
Encoding: 172 172 109
Width: 1059
GlyphClass: 2
Flags: MW
LayerCount: 2
Fore
SplineSet
984 569 m 1,0,-1
 964 231 l 1,1,2
 957 183 957 183 926 183 c 0,3,4
 874 183 874 183 816.5 193.5 c 128,-1,5
 759 204 759 204 754 209 c 128,-1,6
 749 214 749 214 748.5 237 c 128,-1,7
 748 260 748 260 751.5 288.5 c 128,-1,8
 755 317 755 317 757 345 c 2,9,-1
 770 523 l 1,10,-1
 679 523 l 2,11,12
 634 523 634 523 601 522 c 2,13,-1
 256 517 l 1,14,15
 178 517 178 517 143.5 521.5 c 128,-1,16
 109 526 109 526 109 541 c 0,17,18
 109 567 109 567 140.5 615.5 c 128,-1,19
 172 664 172 664 188 682 c 0,20,21
 224 722 224 722 252 723 c 1,22,-1
 604 733 l 2,23,24
 658 734 658 734 708 735.5 c 128,-1,25
 758 737 758 737 799 738 c 128,-1,26
 840 739 840 739 870 740 c 128,-1,27
 900 741 900 741 928 741 c 128,-1,28
 956 741 956 741 973 736.5 c 128,-1,29
 990 732 990 732 990 706 c 1,30,-1
 984 569 l 1,0,-1
EndSplineSet
Validated: 1
EndChar

StartChar: registered
Encoding: 174 174 110
Width: 1640
GlyphClass: 2
Flags: MW
LayerCount: 2
Fore
SplineSet
633 944 m 0,0,1
 633 945 633 945 628 945 c 128,-1,2
 623 945 623 945 517 926 c 1,3,4
 504 926 504 926 504 930.5 c 128,-1,5
 504 935 504 935 505 936 c 2,6,-1
 599 1100 l 1,7,8
 792 1141 792 1141 894.5 1141 c 128,-1,9
 997 1141 997 1141 1054.5 1129 c 128,-1,10
 1112 1117 1112 1117 1156 1090 c 0,11,12
 1254 1030 1254 1030 1254 909 c 0,13,14
 1254 803 1254 803 1122 721 c 0,15,16
 1101 708 1101 708 1085 700 c 128,-1,17
 1069 692 1069 692 1064 689 c 1,18,19
 1064 687 1064 687 1083.5 655 c 128,-1,20
 1103 623 1103 623 1122 590.5 c 128,-1,21
 1141 558 1141 558 1169 510 c 128,-1,22
 1197 462 1197 462 1237 394 c 1,23,24
 1251 383 1251 383 1272 382 c 0,25,26
 1310 380 1310 380 1310 374 c 128,-1,27
 1310 368 1310 368 1300.5 362 c 128,-1,28
 1291 356 1291 356 1278 350 c 0,29,30
 1253 337 1253 337 1235.5 329.5 c 128,-1,31
 1218 322 1218 322 1204 316 c 0,32,33
 1190 309 1190 309 1172 301 c 0,34,35
 1140 287 1140 287 1105 268 c 0,36,37
 1073 251 1073 251 1061 251 c 128,-1,38
 1049 251 1049 251 1042 256 c 0,39,40
 1034 262 1034 262 1029 268 c 128,-1,41
 1024 274 1024 274 1016 293 c 1,42,-1
 843 658 l 1,43,-1
 815 357 l 1,44,45
 812 341 812 341 804.5 338 c 128,-1,46
 797 335 797 335 779.5 328.5 c 128,-1,47
 762 322 762 322 740 314.5 c 128,-1,48
 718 307 718 307 694 299 c 0,49,50
 671 290 671 290 651 284 c 0,51,52
 604 270 604 270 604 270 c 0,53,54
 583 270 583 270 583 289 c 0,55,56
 583 364 583 364 633 944 c 0,0,1
850 729 m 1,57,58
 851.054545455 728.981818182 851.054545455 728.981818182 852.110413223 728.981818182 c 0,59,60
 909.127272727 728.981818182 909.127272727 728.981818182 970 782 c 0,61,62
 1029 833 1029 833 1029 879 c 0,63,64
 1029 979 1029 979 928 979 c 0,65,66
 907 979 907 979 873 973 c 1,67,-1
 850 729 l 1,57,58
613 147.5 m 128,-1,69
 706 103 706 103 809.5 103 c 128,-1,70
 913 103 913 103 995.5 123.5 c 128,-1,71
 1078 144 1078 144 1149.5 182 c 128,-1,72
 1221 220 1221 220 1280 275 c 128,-1,73
 1339 330 1339 330 1381 400 c 0,74,75
 1469 546 1469 546 1469 728 c 0,76,77
 1468 950 1468 950 1326 1100 c 0,78,79
 1181 1253 1181 1253 959 1253 c 0,80,81
 693 1253 693 1253 511 1088 c 0,82,83
 321 915 321 915 321 652 c 0,84,85
 321 424 321 424 455 268 c 0,86,68
 520 192 520 192 613 147.5 c 128,-1,69
770 -63 m 0,87,88
 636 -63 636 -63 514 -5 c 0,89,90
 393 54 393 54 308 152 c 0,91,92
 133 354 133 354 133 653 c 0,93,94
 133 830 133 830 200 974 c 128,-1,95
 267 1118 267 1118 381 1221 c 128,-1,96
 495 1324 495 1324 646 1380 c 128,-1,97
 797 1436 797 1436 954.5 1436 c 128,-1,98
 1112 1436 1112 1436 1234 1382 c 128,-1,99
 1356 1328 1356 1328 1444 1236 c 0,100,101
 1630 1042 1630 1042 1630 752 c 0,102,103
 1630 390 1630 390 1384 160 c 0,104,105
 1147 -63 1147 -63 770 -63 c 0,87,88
EndSplineSet
Validated: 1
EndChar

StartChar: degree
Encoding: 176 176 111
Width: 1007
GlyphClass: 2
Flags: MW
LayerCount: 2
Fore
SplineSet
780 599 m 128,-1,1
 694 558 694 558 592.5 558 c 128,-1,2
 491 558 491 558 407.5 587 c 128,-1,3
 324 616 324 616 262 672 c 0,4,5
 130.992481203 790.105263158 130.992481203 790.105263158 130.992481203 987.012041382 c 0,6,7
 130.992481203 988.503759398 130.992481203 988.503759398 131 990 c 0,8,9
 131 1178 131 1178 270 1312 c 0,10,11
 411 1448 411 1448 616 1448 c 0,12,13
 802 1448 802 1448 924 1335 c 0,14,15
 1050 1219 1050 1219 1050 1035 c 0,16,17
 1050 848 1050 848 926 708 c 0,18,0
 866 640 866 640 780 599 c 128,-1,1
758 1031 m 128,-1,20
 758 1056 758 1056 751 1090 c 0,21,22
 744 1122 744 1122 728 1150 c 0,23,24
 691 1214 691 1214 628.5 1214 c 128,-1,25
 566 1214 566 1214 527 1194 c 0,26,27
 488 1176 488 1176 462 1144 c 0,28,29
 410.981132075 1081.20754717 410.981132075 1081.20754717 410.981132075 997.23745105 c 0,30,31
 410.981132075 995.622641509 410.981132075 995.622641509 411 994 c 0,32,33
 411 868 411 868 485 816 c 0,34,35
 513 796 513 796 559 796 c 128,-1,36
 605 796 605 796 640.5 813.5 c 128,-1,37
 676 831 676 831 700 859 c 0,38,39
 745 911 745 911 751.5 958.5 c 128,-1,19
 758 1006 758 1006 758 1031 c 128,-1,20
EndSplineSet
Validated: 1
EndChar

StartChar: plusminus
Encoding: 177 177 112
Width: 1045
GlyphClass: 2
Flags: MW
LayerCount: 2
Fore
SplineSet
656 393 m 2,0,-1
 430 397 l 1,1,2
 403 401 403 401 403 439 c 2,3,-1
 403 445 l 1,4,-1
 423 660 l 1,5,6
 372 659 372 659 333 659 c 2,7,-1
 272 659 l 2,8,9
 153 659 153 659 153 687 c 0,10,11
 153 701 153 701 166 762 c 0,12,13
 186 859 186 859 199 922 c 0,14,15
 201 934 201 934 214.5 944 c 128,-1,16
 228 954 228 954 250 955 c 2,17,-1
 451 958 l 1,18,-1
 453 979 l 1,19,20
 458 1047 458 1047 460 1096 c 128,-1,21
 462 1145 462 1145 466 1176 c 0,22,23
 475 1236 475 1236 512 1236 c 1,24,-1
 522 1235 l 1,25,-1
 641 1238 l 1,26,-1
 736 1241 l 1,27,28
 764 1233 764 1233 764 1206 c 2,29,-1
 764 1203 l 2,30,31
 764 1202 764 1202 763.5 1196 c 128,-1,32
 763 1190 763 1190 762 1177 c 2,33,-1
 759 1138 l 2,34,35
 757 1112 757 1112 753.5 1069.5 c 128,-1,36
 750 1027 750 1027 745 963 c 1,37,38
 847 969 847 969 981 969 c 0,39,40
 989 969 989 969 999 963 c 0,41,42
 1008 958 1008 958 1008 948 c 0,43,44
 1007 937 1007 937 993 800 c 2,45,-1
 982 703 l 1,46,47
 971 678 971 678 957 674 c 128,-1,48
 943 670 943 670 922.5 669.5 c 128,-1,49
 902 669 902 669 867 668 c 2,50,-1
 721 665 l 1,51,-1
 708 519 l 1,52,53
 700 414 700 414 676 398 c 0,54,55
 668 392 668 392 656 393 c 2,0,-1
731 13 m 1,56,-1
 627 12 l 1,57,-1
 584 12 l 1,58,-1
 239 7 l 1,59,60
 161 7 161 7 126.5 11.5 c 128,-1,61
 92 16 92 16 92 31 c 0,62,63
 92 57 92 57 123.5 105.5 c 128,-1,64
 155 154 155 154 171 172 c 0,65,66
 207 212 207 212 235 213 c 1,67,-1
 587 223 l 1,68,-1
 925 229 l 1,69,70
 973 225 973 225 973 194 c 256,71,72
 973 168 973 168 963 103 c 1,73,-1
 954 36 l 2,74,75
 950 13 950 13 905 13 c 2,76,-1
 731 13 l 1,56,-1
EndSplineSet
Validated: 1
EndChar

StartChar: twosuperior
Encoding: 178 178 113
Width: 734
GlyphClass: 2
Flags: MW
LayerCount: 2
Fore
SplineSet
171.5 1206 m 128,-1,1
 163 1206 163 1206 163 1226.5 c 128,-1,2
 163 1247 163 1247 169.5 1279.5 c 128,-1,3
 176 1312 176 1312 183.5 1341.5 c 128,-1,4
 191 1371 191 1371 197.5 1393 c 128,-1,5
 204 1415 204 1415 204 1418 c 1,6,7
 205 1418 205 1418 220 1430 c 128,-1,8
 235 1442 235 1442 268 1456 c 0,9,10
 354.717948718 1493.02564103 354.717948718 1493.02564103 476.56278764 1493.02564103 c 0,11,12
 479.769230769 1493.02564103 479.769230769 1493.02564103 483 1493 c 0,13,14
 484.323943662 1493.01408451 484.323943662 1493.01408451 485.644514977 1493.01408451 c 0,15,16
 578.084507042 1493.01408451 578.084507042 1493.01408451 654 1424 c 0,17,18
 735 1351 735 1351 735 1253 c 0,19,20
 735 1190 735 1190 696 1126 c 1,21,22
 678 1086 678 1086 579 930 c 2,23,-1
 481 775 l 1,24,-1
 482 774 l 1,25,-1
 484 774 l 1,26,-1
 734 794 l 1,27,28
 766 794 766 794 766 780 c 1,29,-1
 757 753 l 1,30,-1
 667 585 l 1,31,-1
 664 580 l 1,32,33
 652 568 652 568 623 564 c 1,34,35
 544 563 544 563 491 562 c 0,36,37
 385 560 385 560 320 560 c 2,38,-1
 239 560 l 2,39,40
 132 560 132 560 132 597 c 0,41,42
 132 614 132 614 162 660 c 1,43,-1
 280 827 l 1,44,45
 370 950 370 950 421.5 1030 c 128,-1,46
 473 1110 473 1110 473 1145 c 128,-1,47
 473 1180 473 1180 462.5 1199 c 128,-1,48
 452 1218 452 1218 434 1232 c 0,49,50
 397.649122807 1259.50877193 397.649122807 1259.50877193 332.824253616 1259.50877193 c 0,51,52
 331.666666667 1259.50877193 331.666666667 1259.50877193 330.5 1259.5 c 0,53,54
 264 1259 264 1259 222 1232.5 c 128,-1,0
 180 1206 180 1206 171.5 1206 c 128,-1,1
EndSplineSet
Validated: 1
EndChar

StartChar: threesuperior
Encoding: 179 179 114
Width: 747
GlyphClass: 2
Flags: MW
LayerCount: 2
Fore
SplineSet
622 1024 m 1,0,1
 742 970 742 970 742 830 c 0,2,3
 742 724 742 724 668 639 c 0,4,5
 591 550 591 550 484 542 c 1,6,7
 458 539 458 539 429.5 539 c 128,-1,8
 401 539 401 539 371.5 543.5 c 128,-1,9
 342 548 342 548 312 556 c 0,10,11
 277 565 277 565 189 602 c 1,12,13
 173 606 173 606 167 652.5 c 128,-1,14
 161 699 161 699 158 730.5 c 128,-1,15
 155 762 155 762 149 788 c 1,16,17
 149 811 149 811 168 811 c 0,18,19
 172 811 172 811 206 790 c 0,20,21
 238 768 238 768 264 756 c 0,22,23
 322 729 322 729 375 729 c 0,24,25
 429 729 429 729 452 748 c 128,-1,26
 475 767 475 767 475 813 c 0,27,28
 475 892 475 892 385 892 c 2,29,-1
 276 892 l 1,30,-1
 301 1072 l 1,31,32
 308 1106 308 1106 316 1106 c 2,33,-1
 370 1100 l 1,34,35
 408 1100 408 1100 429 1124 c 128,-1,36
 450 1148 450 1148 450 1182 c 0,37,38
 450 1264 450 1264 375 1264 c 0,39,40
 304 1264 304 1264 205 1233 c 1,41,42
 207 1243 207 1243 207 1263 c 258,43,-1
 206 1304 l 1,44,45
 206 1408 206 1408 243.5 1419 c 128,-1,46
 281 1430 281 1430 305.5 1436 c 128,-1,47
 330 1442 330 1442 352 1446 c 0,48,49
 383.384615385 1451.53846154 383.384615385 1451.53846154 430.958579882 1451.53846154 c 0,50,51
 434.923076923 1451.53846154 434.923076923 1451.53846154 439 1451.5 c 0,52,53
 492 1451 492 1451 543 1437.5 c 128,-1,54
 594 1424 594 1424 636 1396 c 0,55,56
 729.502645503 1334.32804233 729.502645503 1334.32804233 729.502645503 1223.67850844 c 0,57,58
 729.502645503 1223.08994709 729.502645503 1223.08994709 729.5 1222.5 c 0,59,60
 729 1111 729 1111 622 1024 c 1,0,1
EndSplineSet
Validated: 1
EndChar

StartChar: acute
Encoding: 180 180 115
Width: 635
GlyphClass: 2
Flags: MW
LayerCount: 2
Fore
SplineSet
376 1392 m 1,0,1
 252 1220 252 1220 232.5 1204 c 128,-1,2
 213 1188 213 1188 206.5 1188 c 128,-1,3
 200 1188 200 1188 187.5 1197 c 128,-1,4
 175 1206 175 1206 158 1216.5 c 0,5,6
 141 1228 141 1228 126 1236 c 0,7,8
 97 1253 97 1253 61 1269 c 1,9,10
 48 1278 48 1278 48 1288 c 0,11,12
 49 1308 49 1308 59 1337 c 2,13,-1
 244 1874 l 2,14,15
 253 1898 253 1898 265 1898 c 0,16,17
 272 1898 272 1898 317.5 1867.5 c 128,-1,18
 363 1837 363 1837 440.5 1799.5 c 128,-1,19
 518 1762 518 1762 594 1722 c 1,20,21
 612 1711 612 1711 612 1695 c 256,22,23
 612 1679 612 1679 595 1654 c 1,24,25
 483 1525 483 1525 447.5 1480.5 c 128,-1,26
 412 1436 412 1436 376 1392 c 1,0,1
EndSplineSet
Validated: 1
EndChar

StartChar: mu
Encoding: 181 181 116
AltUni2: 0003bc.ffffffff.0
Width: 1310
GlyphClass: 2
Flags: MW
LayerCount: 2
Fore
SplineSet
81 -304 m 0,0,1
 81 -294 81 -294 111.5 -59 c 128,-1,2
 142 176 142 176 166 411 c 0,3,4
 196 706 196 706 209 854 c 128,-1,5
 222 1002 222 1002 226.5 1015 c 128,-1,6
 231 1028 231 1028 264 1034 c 0,7,8
 296 1040 296 1040 338 1048 c 128,-1,9
 380 1056 380 1056 422 1064 c 1,10,-1
 606 1108 l 1,11,12
 618 1108 618 1108 618 1098 c 1,13,14
 602 958 602 958 597.5 913.5 c 128,-1,15
 593 869 593 869 588 821.5 c 128,-1,16
 583 774 583 774 576.5 712 c 128,-1,17
 570 650 570 650 562 584 c 0,18,19
 546 440 546 440 544.5 365 c 0,20,21
 544.426229508 361.31147541 544.426229508 361.31147541 544.426229508 357.725745767 c 0,22,23
 544.426229508 288.401639344 544.426229508 288.401639344 572 257.5 c 0,24,25
 601 225 601 225 640.5 225 c 128,-1,26
 680 225 680 225 716 240.5 c 128,-1,27
 752 256 752 256 782 282 c 0,28,29
 851 341 851 341 857.5 427 c 128,-1,30
 864 513 864 513 869.5 579.5 c 128,-1,31
 875 646 875 646 879 691.5 c 128,-1,32
 883 737 883 737 886 768 c 0,33,34
 890 800 890 800 892 828 c 0,35,36
 897 885 897 885 900 944 c 128,-1,37
 903 1003 903 1003 907.5 1015.5 c 128,-1,38
 912 1028 912 1028 930 1032 c 0,39,40
 1021 1050 1021 1050 1116 1068.5 c 128,-1,41
 1211 1087 1211 1087 1302 1116 c 1,42,43
 1313 1116 1313 1116 1313 1106 c 2,44,-1
 1219 108 l 1,45,46
 1213 60 1213 60 1205.5 54.5 c 128,-1,47
 1198 49 1198 49 1172.5 41.5 c 128,-1,48
 1147 34 1147 34 1102 22 c 128,-1,49
 1057 10 1057 10 1011 -3 c 0,50,51
 905 -33 905 -33 867.5 -50.5 c 128,-1,52
 830 -68 830 -68 821 -68 c 128,-1,53
 812 -68 812 -68 812 -57 c 2,54,-1
 812 -51 l 2,55,56
 812 -35 812 -35 830 88 c 1,57,58
 766 22 766 22 650 -2 c 0,59,60
 616 -9 616 -9 585 -9 c 0,61,62
 496 -9 496 -9 481 44 c 1,63,-1
 445 -248 l 2,64,65
 444 -251 444 -251 444 -261 c 2,66,-1
 444 -270 l 2,67,68
 444 -279 444 -279 438 -284 c 128,-1,69
 432 -289 432 -289 405 -296 c 1,70,-1
 174 -327 l 1,71,72
 146 -332 146 -332 113.5 -332 c 128,-1,73
 81 -332 81 -332 81 -304 c 0,0,1
EndSplineSet
Validated: 1
EndChar

StartChar: paragraph
Encoding: 182 182 117
Width: 1321
GlyphClass: 2
Flags: MW
LayerCount: 2
Fore
SplineSet
851 662 m 1,0,1
 811 658 811 658 771 658 c 2,2,-1
 750 658 l 1,3,4
 731 557 731 557 714 439 c 128,-1,5
 697 321 697 321 689.5 272.5 c 128,-1,6
 682 224 682 224 674 178 c 0,7,8
 654 53 654 53 650.5 27.5 c 128,-1,9
 647 2 647 2 634 -6 c 128,-1,10
 621 -14 621 -14 603 -18.5 c 128,-1,11
 585 -23 585 -23 569.5 -24.5 c 128,-1,12
 554 -26 554 -26 532 -28.5 c 128,-1,13
 510 -31 510 -31 484.5 -33.5 c 128,-1,14
 459 -36 459 -36 436.5 -38 c 128,-1,15
 414 -40 414 -40 397.5 -41.5 c 128,-1,16
 381 -43 381 -43 376 -43 c 0,17,18
 337 -43 337 -43 337 -12 c 0,19,20
 337 -6 337 -6 338 -4 c 2,21,-1
 451 707 l 1,22,23
 233 780 233 780 171 936 c 0,24,25
 150 989 150 989 150 1057.5 c 128,-1,26
 150 1126 150 1126 175 1184.5 c 128,-1,27
 200 1243 200 1243 243 1286.5 c 128,-1,28
 286 1330 286 1330 344 1360.5 c 128,-1,29
 402 1391 402 1391 468 1410 c 0,30,31
 593 1446 593 1446 745 1446 c 256,32,33
 930 1446 930 1446 1085 1425 c 128,-1,34
 1240 1404 1240 1404 1264.5 1397.5 c 128,-1,35
 1289 1391 1289 1391 1304.5 1386.5 c 128,-1,36
 1320 1382 1320 1382 1330 1376 c 0,37,38
 1347 1365 1347 1365 1348 1339.5 c 128,-1,39
 1349 1314 1349 1314 1350 1288 c 128,-1,40
 1351 1262 1351 1262 1351.5 1234 c 128,-1,41
 1352 1206 1352 1206 1353 1179 c 0,42,43
 1355 1125 1355 1125 1355 1096 c 1,44,-1
 1356 1083 l 1,45,46
 1351 1065 1351 1065 1325 1065 c 128,-1,47
 1299 1065 1299 1065 1200 1068 c 1,48,49
 1161 832 1161 832 1133.5 654 c 128,-1,50
 1106 476 1106 476 1095.5 398.5 c 128,-1,51
 1085 321 1085 321 1078 272.5 c 0,52,53
 1070 224 1070 224 1064 178 c 0,54,55
 1056 124 1056 124 1043 20 c 0,56,57
 1039 -16 1039 -16 947 -26 c 0,58,59
 806 -43 806 -43 785 -43 c 0,60,61
 741 -43 741 -43 741 -9 c 1,62,-1
 851 662 l 1,0,1
EndSplineSet
Validated: 1
EndChar

StartChar: periodcentered
Encoding: 183 183 118
Width: 561
GlyphClass: 2
Flags: MW
LayerCount: 2
Fore
SplineSet
167 804 m 0,0,1
 156 804 156 804 156 811 c 2,2,-1
 156 815 l 1,3,4
 161 933 161 933 161 953 c 2,5,-1
 161 964 l 2,6,7
 161 970 161 970 161.5 978 c 128,-1,8
 162 986 162 986 163 1004.5 c 128,-1,9
 164 1023 164 1023 166 1055.5 c 128,-1,10
 168 1088 168 1088 170.5 1131.5 c 128,-1,11
 173 1175 173 1175 177.5 1187.5 c 128,-1,12
 182 1200 182 1200 200 1203 c 1,13,14
 395 1203 395 1203 565 1205 c 0,15,16
 586 1205 586 1205 586 1181 c 1,17,-1
 558 867 l 1,18,19
 554 834 554 834 550.5 821.5 c 128,-1,20
 547 809 547 809 528 807 c 1,21,22
 273 804 273 804 167 804 c 0,0,1
EndSplineSet
Validated: 1
EndChar

StartChar: cedilla
Encoding: 184 184 119
Width: 545
GlyphClass: 2
Flags: MW
LayerCount: 2
Fore
SplineSet
285 -159 m 1,0,1
 327 -154 327 -154 361 -154 c 128,-1,2
 395 -154 395 -154 425.5 -170.5 c 128,-1,3
 456 -187 456 -187 472 -213 c 0,4,5
 500 -256 500 -256 500 -339 c 0,6,7
 500 -462 500 -462 402 -538 c 0,8,9
 328 -596 328 -596 234 -596 c 0,10,11
 122 -596 122 -596 66 -565 c 0,12,13
 65 -564 65 -564 65 -519 c 128,-1,14
 65 -474 65 -474 84 -412 c 1,15,-1
 89 -412 l 2,16,17
 95 -412 95 -412 95 -414 c 1,18,19
 149 -438 149 -438 211 -438 c 128,-1,20
 273 -438 273 -438 296 -413 c 128,-1,21
 319 -388 319 -388 319 -357 c 128,-1,22
 319 -326 319 -326 300.5 -306.5 c 128,-1,23
 282 -287 282 -287 250 -287 c 1,24,-1
 102 -279 l 2,25,26
 91 -279 91 -279 91 -266 c 1,27,28
 106 -236 106 -236 121 -169 c 128,-1,29
 136 -102 136 -102 142 -78 c 0,30,31
 154 -22 154 -22 154 -17 c 1,32,-1
 173 -17 l 1,33,-1
 270 -18 l 1,34,-1
 333 -18 l 1,35,-1
 285 -159 l 1,0,1
EndSplineSet
Validated: 1
EndChar

StartChar: onesuperior
Encoding: 185 185 120
Width: 514
GlyphClass: 2
Flags: MW
LayerCount: 2
Fore
SplineSet
218 521 m 0,0,1
 191 521 191 521 191 550 c 2,2,-1
 191 557 l 2,3,4
 191 572 191 572 194.5 642 c 128,-1,5
 198 712 198 712 202 800 c 0,6,7
 227 1363 227 1363 231 1376 c 128,-1,8
 235 1389 235 1389 247 1392 c 2,9,-1
 467 1445 l 2,10,11
 477 1447 477 1447 483 1447 c 0,12,13
 499 1447 499 1447 499 1420 c 1,14,-1
 462 637 l 2,15,16
 460 608 460 608 453.5 597.5 c 128,-1,17
 447 587 447 587 431 582 c 2,18,-1
 233 523 l 2,19,20
 223 521 223 521 218 521 c 0,0,1
EndSplineSet
Validated: 1
EndChar

StartChar: ordmasculine
Encoding: 186 186 121
Width: 1029
GlyphClass: 2
Flags: MW
LayerCount: 2
Fore
SplineSet
511 1459 m 1,0,1
 511 1473 511 1473 522 1473 c 0,2,3
 802 1472 802 1472 944 1346 c 0,4,5
 1070 1234 1070 1234 1070 1038 c 0,6,7
 1070 811 1070 811 924 675 c 0,8,9
 786 546 786 546 575 546 c 0,10,11
 366 546 366 546 242 678 c 0,12,13
 130 797 130 797 130 976 c 256,14,15
 130 1144 130 1144 234 1270 c 0,16,17
 337 1396 337 1396 503 1424 c 1,18,19
 515 1425 515 1425 515 1430 c 2,20,-1
 511 1459 l 1,0,1
607 752 m 1,21,22
 702 757 702 757 748 857 c 0,23,24
 782 931 782 931 782 1001 c 128,-1,25
 782 1071 782 1071 770 1110 c 128,-1,26
 758 1149 758 1149 734 1179 c 0,27,28
 682 1246 682 1246 596 1246 c 0,29,30
 512 1246 512 1246 466 1150 c 0,31,32
 430 1074 430 1074 430 1008 c 0,33,34
 430 752 430 752 607 752 c 1,21,22
EndSplineSet
Validated: 1
EndChar

StartChar: guillemotright
Encoding: 187 187 122
Width: 2011
GlyphClass: 2
Flags: MW
LayerCount: 2
Fore
SplineSet
2026 742 m 1,0,1
 2016 690 2016 690 2005 421 c 0,2,3
 2005 401 2005 401 1994 391 c 128,-1,4
 1983 381 1983 381 1951 365 c 1,5,-1
 1295 -17 l 1,6,7
 1266 -29 1266 -29 1256 -29 c 0,8,9
 1239 -29 1239 -29 1232 -10 c 0,10,11
 1203 68 1203 68 1174.5 147 c 128,-1,12
 1146 226 1146 226 1125.5 266.5 c 128,-1,13
 1105 307 1105 307 1105 312 c 0,14,15
 1105 321 1105 321 1117.5 327 c 128,-1,16
 1130 333 1130 333 1167.5 352 c 128,-1,17
 1205 371 1205 371 1252 394.5 c 128,-1,18
 1299 418 1299 418 1350 444 c 128,-1,19
 1401 470 1401 470 1446 492 c 0,20,21
 1547 542 1547 542 1569 555 c 1,22,-1
 1129 717 l 1,23,24
 1117 718 1117 718 1117 740 c 1,25,26
 1138 826 1138 826 1156 1061 c 1,27,28
 1159 1077 1159 1077 1172 1077 c 256,29,30
 1185 1077 1185 1077 1217 1068 c 1,31,32
 1287 1041 1287 1041 1364 1012.5 c 128,-1,33
 1441 984 1441 984 1518.5 955 c 128,-1,34
 1596 926 1596 926 1670.5 898.5 c 0,35,36
 1745 872 1745 872 1810 846 c 0,37,38
 1960 787 1960 787 2013 761 c 1,39,40
 2023 761 2023 761 2026 742 c 1,0,1
1036 742 m 1,41,42
 1026 690 1026 690 1015 421 c 0,43,44
 1015 401 1015 401 1004 391 c 128,-1,45
 993 381 993 381 961 365 c 1,46,-1
 305 -17 l 1,47,48
 263 -35 263 -35 254.5 -27.5 c 128,-1,49
 246 -20 246 -20 229.5 24 c 128,-1,50
 213 68 213 68 184.5 147 c 128,-1,51
 156 226 156 226 135.5 266.5 c 128,-1,52
 115 307 115 307 115 312 c 0,53,54
 115 321 115 321 127.5 327 c 128,-1,55
 140 333 140 333 177.5 352 c 128,-1,56
 215 371 215 371 262 394.5 c 128,-1,57
 309 418 309 418 360 444 c 128,-1,58
 411 470 411 470 456 492 c 0,59,60
 557 542 557 542 579 555 c 1,61,-1
 139 717 l 1,62,63
 127 718 127 718 127 740 c 1,64,65
 148 826 148 826 166 1061 c 1,66,67
 169 1077 169 1077 182 1077 c 256,68,69
 195 1077 195 1077 227 1068 c 1,70,71
 297 1041 297 1041 374 1012.5 c 128,-1,72
 451 984 451 984 528.5 955 c 128,-1,73
 606 926 606 926 680.5 898.5 c 0,74,75
 755 872 755 872 820 846 c 0,76,77
 970 787 970 787 1023 761 c 1,78,79
 1033 761 1033 761 1036 742 c 1,41,42
EndSplineSet
Validated: 1
EndChar

StartChar: onequarter
Encoding: 188 188 123
Width: 1712
GlyphClass: 2
Flags: MW
LayerCount: 2
Fore
SplineSet
1570 410 m 1,0,1
 1656 412 1656 412 1669 412 c 0,2,3
 1697 412 1697 412 1697 389 c 0,4,5
 1697 384 1697 384 1696 382 c 2,6,-1
 1678 290 l 1,7,8
 1663 224 1663 224 1661.5 211 c 128,-1,9
 1660 198 1660 198 1651 196.5 c 128,-1,10
 1642 195 1642 195 1619 195 c 128,-1,11
 1596 195 1596 195 1550 194 c 1,12,-1
 1538 77 l 1,13,14
 1538 61 1538 61 1530.5 58.5 c 128,-1,15
 1523 56 1523 56 1507 49.5 c 128,-1,16
 1491 43 1491 43 1468.5 34.5 c 128,-1,17
 1446 26 1446 26 1420.5 17 c 128,-1,18
 1395 8 1395 8 1372 0 c 0,19,20
 1320 -18 1320 -18 1307 -18 c 0,21,22
 1285 -18 1285 -18 1285 5 c 0,23,24
 1285 57 1285 57 1296 191 c 1,25,-1
 1090 190 l 1,26,27
 958 189 l 2,28,29
 901 189 901 189 877 193 c 128,-1,30
 853 197 853 197 853 211 c 0,31,32
 853 221 853 221 859 229.5 c 128,-1,33
 865 238 865 238 880 263.5 c 128,-1,34
 895 289 895 289 916 324 c 0,35,36
 969 412 969 412 1014 485 c 1,37,-1
 1146 704 l 2,38,39
 1170 744 1170 744 1189 783 c 128,-1,40
 1208 822 1208 822 1231 854 c 0,41,42
 1283 926 1283 926 1368 943 c 1,43,-1
 1569 996 l 2,44,45
 1579 998 1579 998 1586 998 c 0,46,47
 1602 998 1602 998 1602 978 c 2,48,-1
 1602 971 l 1,49,-1
 1570 410 l 1,0,1
628 697.5 m 128,-1,51
 678 809 678 809 739.5 942 c 128,-1,52
 801 1075 801 1075 857 1207 c 128,-1,53
 913 1339 913 1339 949.5 1422 c 128,-1,54
 986 1505 986 1505 993 1516.5 c 128,-1,55
 1000 1528 1000 1528 1014 1528 c 2,56,-1
 1021 1528 l 1,57,58
 1075 1506 1075 1506 1127.5 1480.5 c 128,-1,59
 1180 1455 1180 1455 1210 1449 c 0,60,61
 1248 1441 1248 1441 1248 1432 c 2,62,-1
 1248 1429 l 1,63,-1
 607 15 l 2,64,65
 603 6 603 6 601 -2 c 0,66,67
 598 -10 598 -10 596 -16 c 0,68,69
 586 -39 586 -39 552 -22 c 1,70,-1
 451 20 l 2,71,72
 443 23 443 23 427 28.5 c 0,73,74
 410 34 410 34 394 42 c 0,75,76
 352 61 352 61 353 82 c 0,77,78
 353 91 353 91 378.5 144.5 c 128,-1,79
 404 198 404 198 446.5 291.5 c 128,-1,80
 489 385 489 385 533.5 485.5 c 128,-1,50
 578 586 578 586 628 697.5 c 128,-1,51
206 521 m 0,81,82
 179 521 179 521 179 550 c 2,83,-1
 179 557 l 2,84,85
 179 572 179 572 182.5 642 c 128,-1,86
 186 712 186 712 190 800 c 0,87,88
 215 1363 215 1363 219 1376 c 128,-1,89
 223 1389 223 1389 235 1392 c 2,90,-1
 455 1445 l 2,91,92
 465 1447 465 1447 471 1447 c 0,93,94
 487 1447 487 1447 487 1420 c 1,95,-1
 450 637 l 2,96,97
 448 608 448 608 441.5 597.5 c 128,-1,98
 435 587 435 587 419 582 c 2,99,-1
 221 523 l 2,100,101
 211 521 211 521 206 521 c 0,81,82
1313 401 m 1,102,103
 1338 559 1338 559 1348 790 c 1,104,-1
 1116 401 l 1,105,-1
 1313 401 l 1,102,103
EndSplineSet
Validated: 1
EndChar

StartChar: onehalf
Encoding: 189 189 124
Width: 1747
GlyphClass: 2
Flags: MW
LayerCount: 2
Fore
SplineSet
630 697.5 m 128,-1,1
 680 809 680 809 741.5 942 c 128,-1,2
 803 1075 803 1075 859 1207 c 128,-1,3
 915 1339 915 1339 951.5 1422 c 128,-1,4
 988 1505 988 1505 995 1516.5 c 128,-1,5
 1002 1528 1002 1528 1016 1528 c 2,6,-1
 1023 1528 l 1,7,8
 1077 1506 1077 1506 1129.5 1480.5 c 128,-1,9
 1182 1455 1182 1455 1212 1449 c 0,10,11
 1250 1441 1250 1441 1250 1432 c 2,12,-1
 1250 1429 l 1,13,-1
 609 15 l 2,14,15
 605 6 605 6 603 -2 c 0,16,17
 600 -10 600 -10 598 -16 c 0,18,19
 588 -39 588 -39 554 -22 c 1,20,-1
 453 20 l 2,21,22
 445 23 445 23 429 28.5 c 0,23,24
 412 34 412 34 396 42 c 0,25,26
 354 61 354 61 355 82 c 0,27,28
 355 91 355 91 380.5 144.5 c 128,-1,29
 406 198 406 198 448.5 291.5 c 128,-1,30
 491 385 491 385 535.5 485.5 c 128,-1,0
 580 586 580 586 630 697.5 c 128,-1,1
1124.5 643 m 128,-1,32
 1116 643 1116 643 1116 663.5 c 128,-1,33
 1116 684 1116 684 1122.5 716.5 c 128,-1,34
 1129 749 1129 749 1136.5 778.5 c 128,-1,35
 1144 808 1144 808 1150.5 830 c 128,-1,36
 1157 852 1157 852 1157 855 c 1,37,38
 1158 855 1158 855 1173 866.5 c 128,-1,39
 1188 878 1188 878 1221 892 c 0,40,41
 1306 930 1306 930 1436 930 c 0,42,43
 1530 930 1530 930 1607 860 c 0,44,45
 1688 787 1688 787 1688 690 c 0,46,47
 1688 627 1688 627 1649 563 c 1,48,49
 1631 523 1631 523 1532 367 c 2,50,-1
 1434 212 l 1,51,-1
 1435 211 l 1,52,-1
 1437 211 l 1,53,-1
 1687 231 l 1,54,55
 1719 231 1719 231 1719 217 c 1,56,-1
 1710 190 l 1,57,-1
 1620 22 l 1,58,-1
 1617 17 l 1,59,60
 1605 5 1605 5 1576 1 c 1,61,62
 1497 0 1497 0 1444 -1 c 0,63,64
 1338 -3 1338 -3 1273 -3 c 2,65,-1
 1192 -3 l 2,66,67
 1085 -3 1085 -3 1085 34 c 0,68,69
 1085 51 1085 51 1115 97 c 1,70,-1
 1233 264 l 1,71,72
 1323 387 1323 387 1374.5 467 c 128,-1,73
 1426 547 1426 547 1426 582 c 128,-1,74
 1426 617 1426 617 1415.5 636 c 0,75,76
 1405 654 1405 654 1387 668 c 0,77,78
 1350 696 1350 696 1283.5 696 c 128,-1,79
 1217 696 1217 696 1175 669.5 c 128,-1,31
 1133 643 1133 643 1124.5 643 c 128,-1,32
208 521 m 0,80,81
 181 521 181 521 181 550 c 2,82,-1
 181 557 l 2,83,84
 181 572 181 572 184.5 642 c 128,-1,85
 188 712 188 712 192 800 c 0,86,87
 217 1363 217 1363 221 1376 c 128,-1,88
 225 1389 225 1389 237 1392 c 2,89,-1
 457 1445 l 2,90,91
 467 1447 467 1447 473 1447 c 0,92,93
 489 1447 489 1447 489 1420 c 1,94,-1
 452 637 l 2,95,96
 450 608 450 608 443.5 597.5 c 128,-1,97
 437 587 437 587 421 582 c 2,98,-1
 223 523 l 2,99,100
 213 521 213 521 208 521 c 0,80,81
EndSplineSet
Validated: 1
EndChar

StartChar: threequarters
Encoding: 190 190 125
Width: 1924
GlyphClass: 2
Flags: MW
LayerCount: 2
Fore
SplineSet
608 1024 m 1,0,1
 728 970 728 970 728 830 c 0,2,3
 728 724 728 724 654 639 c 0,4,5
 577 550 577 550 470 542 c 1,6,7
 444 539 444 539 415.5 539 c 128,-1,8
 387 539 387 539 357.5 543.5 c 128,-1,9
 328 548 328 548 298 556 c 0,10,11
 263 565 263 565 175 602 c 1,12,13
 159 606 159 606 153 652.5 c 128,-1,14
 147 699 147 699 144 730.5 c 128,-1,15
 141 762 141 762 135 788 c 1,16,17
 135 811 135 811 154 811 c 0,18,19
 158 811 158 811 192 790 c 0,20,21
 224 768 224 768 250 756 c 0,22,23
 308 729 308 729 361 729 c 0,24,25
 415 729 415 729 438 748 c 128,-1,26
 461 767 461 767 461 813 c 0,27,28
 461 892 461 892 371 892 c 2,29,-1
 262 892 l 1,30,-1
 287 1072 l 1,31,32
 294 1106 294 1106 302 1106 c 2,33,-1
 356 1100 l 1,34,35
 394 1100 394 1100 415 1124 c 128,-1,36
 436 1148 436 1148 436 1182 c 0,37,38
 436 1264 436 1264 361 1264 c 0,39,40
 290 1264 290 1264 191 1233 c 1,41,42
 193 1243 193 1243 193 1263 c 258,43,-1
 192 1304 l 1,44,45
 192 1408 192 1408 229.5 1419 c 128,-1,46
 267 1430 267 1430 291.5 1436 c 128,-1,47
 316 1442 316 1442 338 1446 c 0,48,49
 369.384615385 1451.53846154 369.384615385 1451.53846154 416.958579882 1451.53846154 c 0,50,51
 420.923076923 1451.53846154 420.923076923 1451.53846154 425 1451.5 c 0,52,53
 478 1451 478 1451 529 1437.5 c 128,-1,54
 580 1424 580 1424 622 1396 c 0,55,56
 715.502645503 1334.32804233 715.502645503 1334.32804233 715.502645503 1223.67850844 c 0,57,58
 715.502645503 1223.08994709 715.502645503 1223.08994709 715.5 1222.5 c 0,59,60
 715 1111 715 1111 608 1024 c 1,0,1
839 697.5 m 128,-1,62
 889 809 889 809 950.5 942 c 128,-1,63
 1012 1075 1012 1075 1068 1207 c 128,-1,64
 1124 1339 1124 1339 1160.5 1422 c 128,-1,65
 1197 1505 1197 1505 1204 1516.5 c 128,-1,66
 1211 1528 1211 1528 1225 1528 c 2,67,-1
 1232 1528 l 1,68,69
 1286 1506 1286 1506 1338 1480 c 0,70,71
 1390 1455 1390 1455 1420 1449 c 0,72,73
 1458 1441 1458 1441 1459 1432 c 2,74,-1
 1459 1429 l 1,75,-1
 818 15 l 2,76,77
 814 6 814 6 812 -2 c 128,-1,78
 810 -10 810 -10 808 -16 c 0,79,80
 798 -39 798 -39 763 -22 c 1,81,-1
 662 20 l 2,82,83
 654 23 654 23 638 28.5 c 128,-1,84
 622 34 622 34 606 42 c 0,85,86
 564 61 564 61 564 82 c 0,87,88
 564 91 564 91 589.5 144.5 c 128,-1,89
 615 198 615 198 657.5 291.5 c 128,-1,90
 700 385 700 385 744.5 485.5 c 128,-1,61
 789 586 789 586 839 697.5 c 128,-1,62
1781 410 m 1,91,92
 1867 412 1867 412 1880 412 c 0,93,94
 1908 412 1908 412 1908 389 c 0,95,96
 1908 384 1908 384 1907 382 c 2,97,-1
 1889 290 l 1,98,99
 1874 224 1874 224 1872.5 211 c 128,-1,100
 1871 198 1871 198 1862 196.5 c 128,-1,101
 1853 195 1853 195 1830 195 c 128,-1,102
 1807 195 1807 195 1761 194 c 1,103,-1
 1749 77 l 1,104,105
 1749 61 1749 61 1741.5 58.5 c 128,-1,106
 1734 56 1734 56 1718 49.5 c 128,-1,107
 1702 43 1702 43 1679.5 34.5 c 128,-1,108
 1657 26 1657 26 1631.5 17 c 128,-1,109
 1606 8 1606 8 1583 0 c 0,110,111
 1531 -18 1531 -18 1518 -18 c 0,112,113
 1496 -18 1496 -18 1496 5 c 0,114,115
 1496 57 1496 57 1507 191 c 1,116,-1
 1300 190 l 1,117,-1
 1169 189 l 2,118,119
 1112 189 1112 189 1088 193 c 128,-1,120
 1064 197 1064 197 1064 211 c 0,121,122
 1064 221 1064 221 1070 229.5 c 128,-1,123
 1076 238 1076 238 1091 263.5 c 128,-1,124
 1106 289 1106 289 1127 324 c 0,125,126
 1180 412 1180 412 1225 485 c 1,127,-1
 1357 704 l 2,128,129
 1381 744 1381 744 1400 783 c 128,-1,130
 1419 822 1419 822 1442 854 c 0,131,132
 1494 926 1494 926 1579 943 c 1,133,-1
 1780 996 l 2,134,135
 1790 998 1790 998 1797 998 c 0,136,137
 1813 998 1813 998 1813 978 c 2,138,-1
 1813 971 l 1,139,-1
 1781 410 l 1,91,92
1524 401 m 1,140,141
 1549 559 1549 559 1559 790 c 1,142,-1
 1327 401 l 1,143,-1
 1524 401 l 1,140,141
EndSplineSet
Validated: 1
EndChar

StartChar: AE
Encoding: 198 198 133
Width: 1739
GlyphClass: 2
Flags: MW
LayerCount: 2
Fore
SplineSet
1235 845 m 1,0,1
 1515 856 1515 856 1532 856 c 1,2,-1
 1537 855 l 1,3,4
 1567 855 1567 855 1567 809 c 1,5,6
 1562 775 1562 775 1541.5 691.5 c 128,-1,7
 1521 608 1521 608 1515 582 c 128,-1,8
 1509 556 1509 556 1505 549.5 c 128,-1,9
 1501 543 1501 543 1491 540 c 128,-1,10
 1481 537 1481 537 1461.5 536.5 c 128,-1,11
 1442 536 1442 536 1407 535 c 2,12,-1
 1268 532 l 1,13,-1
 1300 247 l 1,14,-1
 1752 279 l 2,15,16
 1765 279 1765 279 1765 262.5 c 128,-1,17
 1765 246 1765 246 1763 241 c 2,18,-1
 1751 211 l 2,19,20
 1697 76 1697 76 1681.5 43 c 128,-1,21
 1666 10 1666 10 1654.5 -0.5 c 128,-1,22
 1643 -11 1643 -11 1628 -16 c 0,23,24
 1607 -23 1607 -23 1444.5 -23 c 128,-1,25
 1282 -23 1282 -23 935 -39 c 1,26,-1
 903 -43 l 1,27,28
 883 -43 883 -43 880 -18 c 0,29,30
 862 137 862 137 852 202 c 0,31,32
 849 219 849 219 771 219 c 1,33,-1
 632 216 l 1,34,35
 568 216 568 216 518 218 c 2,36,-1
 461 220 l 1,37,-1
 433 176 l 2,38,39
 395 117 395 117 375.5 82.5 c 128,-1,40
 356 48 356 48 337 18 c 0,41,42
 291.630136986 -53.0136986301 291.630136986 -53.0136986301 270.580033777 -53.0136986301 c 0,43,44
 270.287671233 -53.0136986301 270.287671233 -53.0136986301 270 -53 c 0,45,46
 264 -53 264 -53 220 -35 c 0,47,48
 114 8 114 8 15 83 c 1,49,50
 49 130 49 130 93 202 c 2,51,-1
 133 268 l 1,52,53
 80 379 80 379 80 480 c 0,54,55
 80 504 80 504 84 521 c 1,56,57
 84 530 84 530 190.5 530 c 128,-1,58
 297 530 297 530 297 531 c 2,59,-1
 320 572 l 1,60,61
 610 1096 610 1096 766 1351 c 0,62,63
 785 1382 785 1382 848 1400 c 1,64,-1
 1065 1419 l 1,65,-1
 1431 1440 l 2,66,67
 1482 1443 1482 1443 1525.5 1445 c 128,-1,68
 1569 1447 1569 1447 1601 1448.5 c 128,-1,69
 1633 1450 1633 1450 1645 1450 c 0,70,71
 1681 1450 1681 1450 1681 1403 c 0,72,73
 1681 1378 1681 1378 1659 1257 c 1,74,-1
 1639 1141 l 2,75,76
 1636 1124 1636 1124 1629.5 1115 c 128,-1,77
 1623 1106 1623 1106 1570.5 1104.5 c 128,-1,78
 1518 1103 1518 1103 1425.5 1098.5 c 128,-1,79
 1333 1094 1333 1094 1212 1090 c 1,80,-1
 1235 845 l 1,0,1
741 749 m 2,81,82
 724 712 724 712 707 675.5 c 128,-1,83
 690 639 690 639 676 608.5 c 128,-1,84
 662 578 662 578 652 556.5 c 128,-1,85
 642 535 642 535 640 527.5 c 128,-1,86
 638 520 638 520 634 511 c 1,87,-1
 834 511 l 1,88,89
 834 557 834 557 834 609 c 0,90,91
 832 660 832 660 832 716 c 0,92,93
 830.666666667 826.666666667 830.666666667 826.666666667 830.666666667 889.333333333 c 0,94,95
 830.666666667 920.666666667 830.666666667 920.666666667 831 940 c 1,96,-1
 741 749 l 2,81,82
EndSplineSet
Validated: 1
EndChar

StartChar: Eth
Encoding: 208 208 143
Width: 1548
GlyphClass: 2
Flags: MW
LayerCount: 2
Fore
SplineSet
176 523 m 2,0,1
 57 523 57 523 57 551 c 0,2,3
 57 576 57 576 115 653.5 c 0,4,5
 173 730 173 730 198 760 c 0,6,7
 254 827 254 827 284 829 c 2,8,-1
 331 831 l 1,9,-1
 344 1016 l 2,10,11
 346 1040 346 1040 347.5 1063 c 128,-1,12
 349 1086 349 1086 351 1109 c 1,13,14
 221 1080 221 1080 144 1080 c 0,15,16
 122 1080 122 1080 122 1102 c 128,-1,17
 122 1124 122 1124 128 1130 c 2,18,-1
 382 1360 l 2,19,20
 443 1415 443 1415 498 1429 c 0,21,22
 581 1449 581 1449 715 1449 c 128,-1,23
 849 1449 849 1449 944 1438 c 128,-1,24
 1039 1427 1039 1427 1128 1400 c 128,-1,25
 1217 1373 1217 1373 1295.5 1328.5 c 128,-1,26
 1374 1284 1374 1284 1433 1217 c 0,27,28
 1560 1073 1560 1073 1560 846 c 0,29,30
 1560 525 1560 525 1370 316 c 0,31,32
 1070 -15 1070 -15 358 -46 c 1,33,-1
 176 -51 l 1,34,35
 155 -47 155 -47 155 -29 c 128,-1,36
 155 -11 155 -11 159 -4 c 2,37,-1
 282 230 l 1,38,39
 284 239 284 239 289 306 c 0,40,41
 295 383 295 383 306 524 c 1,42,43
 263 523 263 523 229 523 c 2,44,-1
 176 523 l 2,0,1
729 847 m 1,45,46
 855 853 855 853 884 853 c 128,-1,47
 913 853 913 853 923 847 c 128,-1,48
 933 841 933 841 933 828 c 128,-1,49
 933 815 933 815 923.5 791 c 128,-1,50
 914 767 914 767 899 732.5 c 128,-1,51
 884 698 884 698 865 655.5 c 128,-1,52
 846 613 846 613 833.5 583 c 128,-1,53
 821 553 821 553 817 546 c 128,-1,54
 813 539 813 539 802 536 c 128,-1,55
 791 533 791 533 768 532.5 c 128,-1,56
 745 532 745 532 702 531 c 1,57,-1
 678 255 l 1,58,59
 906 255 906 255 1018 401 c 0,60,61
 1117 530 1117 530 1117 759 c 0,62,63
 1117 920 1117 920 1035 1029 c 0,64,65
 947 1146 947 1146 806 1146 c 0,66,67
 786 1146 786 1146 757 1130 c 1,68,69
 742 995 742 995 729 847 c 1,45,46
EndSplineSet
Validated: 1
EndChar

StartChar: multiply
Encoding: 215 215 150
Width: 990
GlyphClass: 2
Flags: MW
LayerCount: 2
Fore
SplineSet
548 461 m 1,0,1
 489 401 489 401 450.5 359.5 c 128,-1,2
 412 318 412 318 386 292 c 0,3,4
 337 243 337 243 314 243 c 0,5,6
 304 243 304 243 289.5 263 c 128,-1,7
 275 283 275 283 259.5 305.5 c 128,-1,8
 244 328 244 328 227 353.5 c 128,-1,9
 210 379 210 379 196 402 c 0,10,11
 164 456 164 456 164 466 c 0,12,13
 165 490 165 490 181 506 c 2,14,-1
 357 685 l 1,15,-1
 343 702 l 1,16,17
 253 805 253 805 204.5 861.5 c 128,-1,18
 156 918 156 918 156 929 c 128,-1,19
 156 940 156 940 161 948 c 128,-1,20
 166 956 166 956 177 968.5 c 128,-1,21
 188 981 188 981 208 1001 c 128,-1,22
 228 1021 228 1021 258 1053 c 2,23,-1
 323 1122 l 1,24,25
 336 1130 336 1130 344 1130 c 0,26,27
 356 1130 356 1130 379 1105 c 2,28,-1
 431 1048 l 2,29,30
 499 975 499 975 561 903 c 1,31,32
 714 1064 l 0,33,34
 766 1118 766 1118 777 1118 c 0,35,36
 792 1118 792 1118 803.5 1102.5 c 128,-1,37
 815 1087 815 1087 827 1072 c 128,-1,38
 839 1057 839 1057 854.5 1037.5 c 128,-1,39
 870 1018 870 1018 886 998 c 0,40,41
 903 976 903 976 917 960 c 2,42,-1
 948 922 l 1,43,44
 955 906 955 906 955 894 c 128,-1,45
 955 882 955 882 932 858 c 128,-1,46
 909 834 909 834 882 806 c 2,47,-1
 755 675 l 1,48,-1
 884 527 l 2,49,50
 947 455 947 455 949 422 c 0,51,52
 949 411 949 411 891 354.5 c 128,-1,53
 833 298 833 298 813 280 c 0,54,55
 767.093023256 238.976744186 767.093023256 238.976744186 756.485127096 238.976744186 c 0,56,57
 756.23255814 238.976744186 756.23255814 238.976744186 756 239 c 0,58,59
 737 239 737 239 721 259 c 2,60,-1
 548 461 l 1,0,1
EndSplineSet
Validated: 1
EndChar

StartChar: Oslash
Encoding: 216 216 151
Width: 1623
GlyphClass: 2
Flags: MW
LayerCount: 2
Fore
SplineSet
359.5 -134 m 128,-1,1
 347 -124 347 -124 347 -107.5 c 128,-1,2
 347 -91 347 -91 422 53 c 1,3,4
 206 196 206 196 143 480 c 0,5,6
 123 570 123 570 123 665 c 0,7,8
 123 842 123 842 190 986 c 128,-1,9
 257 1130 257 1130 371 1233 c 128,-1,10
 485 1336 485 1336 636 1392 c 128,-1,11
 787 1448 787 1448 955 1448 c 0,12,13
 1024 1448 1024 1448 1094 1434 c 1,14,15
 1107 1459 1107 1459 1119 1486 c 0,16,17
 1130 1513 1130 1513 1142 1535 c 0,18,19
 1169 1586 1169 1586 1184 1586 c 2,20,-1
 1191 1586 l 1,21,22
 1245 1564 1245 1564 1297.5 1538.5 c 128,-1,23
 1350 1513 1350 1513 1380 1507 c 0,24,25
 1418 1499 1418 1499 1418 1490 c 2,26,-1
 1418 1487 l 1,27,-1
 1340 1329 l 1,28,29
 1540 1186 1540 1186 1600 934 c 0,30,31
 1620 852 1620 852 1620 747 c 128,-1,32
 1620 642 1620 642 1590 533.5 c 128,-1,33
 1560 425 1560 425 1505 334.5 c 128,-1,34
 1450 244 1450 244 1374 172 c 0,35,36
 1297 102 1297 102 1203 52 c 0,37,38
 1011 -50 1011 -50 778 -51 c 0,39,40
 721 -51 721 -51 667 -42 c 1,41,-1
 601 -178 l 2,42,43
 593 -195 593 -195 590 -208.5 c 128,-1,44
 587 -222 587 -222 573.5 -222 c 128,-1,45
 560 -222 560 -222 546 -215 c 1,46,-1
 445 -173 l 2,47,48
 437 -170 437 -170 421 -164.5 c 128,-1,49
 405 -159 405 -159 388.5 -151.5 c 128,-1,0
 372 -144 372 -144 359.5 -134 c 128,-1,1
952 1148 m 1,50,51
 915 1155 915 1155 869.5 1155 c 128,-1,52
 824 1155 824 1155 776.5 1132 c 128,-1,53
 729 1109 729 1109 693.5 1071 c 128,-1,54
 658 1033 658 1033 633 984 c 128,-1,55
 608 935 608 935 593 882 c 0,56,57
 564 780 564 780 564 699 c 0,58,59
 564 540 564 540 612 435 c 1,60,61
 662 537 662 537 710 640 c 0,62,63
 802 842 802 842 850 941 c 2,64,-1
 952 1148 l 1,50,51
1198 756 m 256,65,66
 1198 870 1198 870 1159 960 c 1,67,-1
 817 262 l 1,68,69
 838.176470588 257.764705882 838.176470588 257.764705882 869.3183391 257.764705882 c 0,70,71
 882.294117647 257.764705882 882.294117647 257.764705882 897 258.5 c 0,72,73
 947 261 947 261 995 285 c 128,-1,74
 1043 309 1043 309 1078 347 c 128,-1,75
 1113 385 1113 385 1136.5 433.5 c 128,-1,76
 1160 482 1160 482 1174 536 c 0,77,78
 1198 634 1198 634 1198 756 c 256,65,66
EndSplineSet
Validated: 1
EndChar

StartChar: Thorn
Encoding: 222 222 157
Width: 1286
GlyphClass: 2
Flags: MW
LayerCount: 2
Fore
SplineSet
661 1644 m 0,0,1
 691 1644 691 1644 690 1612 c 128,-1,2
 689 1580 689 1580 687 1555.5 c 128,-1,3
 685 1531 685 1531 683 1504 c 128,-1,4
 681 1477 681 1477 678.5 1445 c 128,-1,5
 676 1413 676 1413 673 1369 c 1,6,7
 730 1372 730 1372 809.5 1372 c 128,-1,8
 889 1372 889 1372 991 1351 c 128,-1,9
 1093 1330 1093 1330 1170 1280 c 0,10,11
 1338 1170 1338 1170 1338 929 c 0,12,13
 1338 670 1338 670 1117 509 c 0,14,15
 918 364 918 364 659 364 c 0,16,17
 620 364 620 364 580 368 c 1,18,-1
 553 94 l 1,19,-1
 536 63 l 2,20,21
 534 58 534 58 422 18 c 1,22,-1
 360 -2 l 2,23,24
 329 -13 329 -13 300.5 -22.5 c 128,-1,25
 272 -32 272 -32 256 -38 c 0,26,27
 218 -52 218 -52 186 -52 c 128,-1,28
 154 -52 154 -52 154 -18 c 1,29,30
 156 16 156 16 159 57 c 128,-1,31
 162 98 162 98 165 142 c 128,-1,32
 168 186 168 186 171.5 231.5 c 128,-1,33
 175 277 175 277 178 319 c 2,34,-1
 194 521 l 2,35,36
 222 870 222 870 230 994 c 1,37,38
 200 991 200 991 194 991 c 0,39,40
 173 991 173 991 173 1009 c 1,41,-1
 180 1037 l 2,42,43
 188 1065 188 1065 198.5 1104.5 c 128,-1,44
 209 1144 209 1144 221 1187 c 128,-1,45
 233 1230 233 1230 241 1259 c 1,46,47
 242 1278 242 1278 270 1294 c 1,48,-1
 292 1498 l 1,49,-1
 309 1529 l 1,50,51
 309 1536 309 1536 422 1572 c 1,52,-1
 485 1593 l 2,53,54
 543 1613 543 1613 574 1624 c 0,55,56
 627 1644 627 1644 661 1644 c 0,0,1
613.5 722 m 128,-1,58
 610 687 610 687 609 670.5 c 128,-1,59
 608 654 608 654 612 645.5 c 128,-1,60
 616 637 616 637 636 637 c 128,-1,61
 656 637 656 637 685.5 645 c 128,-1,62
 715 653 715 653 746.5 668.5 c 128,-1,63
 778 684 778 684 808 708 c 128,-1,64
 838 732 838 732 862 764 c 0,65,66
 914 835 914 835 914 915 c 0,67,68
 914 1060 914 1060 739 1060 c 0,69,70
 684 1060 684 1060 664 1049 c 128,-1,71
 644 1038 644 1038 643 1029 c 2,72,-1
 641 1007 l 2,73,74
 639 986 639 986 636 953 c 128,-1,75
 633 920 633 920 629 879 c 128,-1,76
 625 838 625 838 621 797.5 c 128,-1,57
 617 757 617 757 613.5 722 c 128,-1,58
EndSplineSet
Validated: 1
EndChar

StartChar: germandbls
Encoding: 223 223 158
Width: 1365
GlyphClass: 2
Flags: MW
LayerCount: 2
Fore
SplineSet
1310 1094 m 0,0,1
 1310 926 1310 926 1099 794 c 1,2,3
 1249 704 1249 704 1284 670 c 0,4,5
 1356 600 1356 600 1356 505.5 c 128,-1,6
 1356 411 1356 411 1329.5 332 c 128,-1,7
 1303 253 1303 253 1256.5 185 c 128,-1,8
 1210 117 1210 117 1145 62 c 0,9,10
 1080 6 1080 6 1003 -32 c 0,11,12
 842 -112 842 -112 662 -112 c 0,13,14
 631 -112 631 -112 624 -81 c 0,15,16
 620 -64 620 -64 619 -34.5 c 128,-1,17
 618 -5 618 -5 615.5 32 c 128,-1,18
 613 69 613 69 610.5 93 c 0,19,20
 608 118 608 118 608 140 c 0,21,22
 608 188 608 188 651 196 c 1,23,24
 800 220 800 220 859 262 c 128,-1,25
 918 304 918 304 944.5 351.5 c 128,-1,26
 971 399 971 399 971 448 c 128,-1,27
 971 497 971 497 952.5 518.5 c 128,-1,28
 934 540 934 540 904.5 555.5 c 128,-1,29
 875 571 875 571 839.5 581 c 128,-1,30
 804 591 804 591 770 597.5 c 128,-1,31
 736 604 736 604 707.5 607.5 c 0,32,33
 680 611 680 611 666 613 c 0,34,35
 644 616 644 616 643.5 636 c 128,-1,36
 643 656 643 656 658.5 678.5 c 128,-1,37
 674 701 674 701 703 741 c 2,38,-1
 745 800 l 1,39,40
 925 867 925 867 925 957 c 0,41,42
 925 1039 925 1039 889.5 1082.5 c 128,-1,43
 854 1126 854 1126 787 1126 c 0,44,45
 728 1126 728 1126 684 1098 c 0,46,47
 594 1042 594 1042 585 947 c 1,48,49
 555 735 555 735 547 530.5 c 128,-1,50
 539 326 539 326 533 253 c 2,51,-1
 514 -12 l 2,52,53
 512 -38 512 -38 473 -38 c 1,54,55
 239 -7 239 -7 188 5.5 c 128,-1,56
 137 18 137 18 130 29 c 128,-1,57
 123 40 123 40 123 63.5 c 128,-1,58
 123 87 123 87 127 111 c 128,-1,59
 131 135 131 135 138 217.5 c 128,-1,60
 145 300 145 300 150 423.5 c 128,-1,61
 155 547 155 547 161 661.5 c 128,-1,62
 167 776 167 776 179 878.5 c 128,-1,63
 191 981 191 981 216 1068.5 c 128,-1,64
 241 1156 241 1156 283.5 1226 c 128,-1,65
 326 1296 326 1296 394 1346 c 0,66,67
 534 1448 534 1448 788 1448 c 0,68,69
 1008 1448 1008 1448 1160 1342 c 0,70,71
 1310 1237 1310 1237 1310 1094 c 0,0,1
EndSplineSet
Validated: 1
EndChar

StartChar: ae
Encoding: 230 230 165
Width: 1917
GlyphClass: 2
Flags: MW
LayerCount: 2
Fore
SplineSet
1848 258 m 2,0,1
 1848 194 1848 194 1846 90 c 1,2,3
 1851 80 1851 80 1851 72 c 256,4,5
 1851 61 1851 61 1835 50 c 1,6,7
 1708 -20 1708 -20 1540 -50 c 0,8,9
 1482 -60 1482 -60 1426 -60.5 c 0,10,11
 1423.76 -60.52 1423.76 -60.52 1421.5152 -60.52 c 0,12,13
 1367.64 -60.52 1367.64 -60.52 1311 -49 c 0,14,15
 1252 -37 1252 -37 1198 -14 c 0,16,17
 1086 33 1086 33 1006 121 c 1,18,19
 850 -14 850 -14 658 -50 c 0,20,21
 600 -61 600 -61 531 -61 c 128,-1,22
 462 -61 462 -61 382 -24 c 0,23,24
 302 14 302 14 240 82 c 0,25,26
 103 233 103 233 103 465 c 0,27,28
 103 744 103 744 257 928 c 0,29,30
 406 1106 406 1106 623 1106 c 0,31,32
 861 1106 861 1106 1112 1008 c 1,33,-1
 1083 890 l 1,34,35
 1252 1117 1252 1117 1496 1117 c 0,36,37
 1497.2195122 1117.00813008 1497.2195122 1117.00813008 1498.43770243 1117.00813008 c 0,38,39
 1647.05691057 1117.00813008 1647.05691057 1117.00813008 1776 996 c 0,40,41
 1914 868 1914 868 1915 694 c 0,42,43
 1915 626 1915 626 1894 548 c 1,44,45
 1894 518 1894 518 1880 505 c 128,-1,46
 1866 492 1866 492 1833.5 485.5 c 128,-1,47
 1801 479 1801 479 1749 473 c 128,-1,48
 1697 467 1697 467 1635 454 c 128,-1,49
 1573 441 1573 441 1523 434 c 2,50,-1
 1424 420 l 2,51,52
 1293 401 1293 401 1228 385 c 1,53,54
 1236 300 1236 300 1315 252 c 0,55,56
 1384 211 1384 211 1492 211 c 0,57,58
 1631 211 1631 211 1821 317 c 1,59,60
 1830 319 1830 319 1836.5 320.5 c 128,-1,61
 1843 322 1843 322 1849 322 c 1,62,-1
 1848 305 l 1,63,-1
 1848 258 l 2,0,1
500 514 m 0,64,65
 500 209 500 209 657 209 c 0,66,67
 727 209 727 209 829 273 c 1,68,69
 876 688 876 688 880 799 c 1,70,71
 768 844 768 844 702.5 844 c 128,-1,72
 637 844 637 844 600.5 809 c 128,-1,73
 564 774 564 774 542 723 c 0,74,75
 500 629 500 629 500 514 c 0,64,65
1630 685 m 1,76,-1
 1631 701 l 1,77,78
 1631 770 1631 770 1578 812 c 0,79,80
 1531 849 1531 849 1477.5 849.5 c 0,81,82
 1476.05405405 849.513513514 1476.05405405 849.513513514 1474.61869978 849.513513514 c 0,83,84
 1422.94594595 849.513513514 1422.94594595 849.513513514 1385 832 c 0,85,86
 1346 814 1346 814 1314 782 c 0,87,88
 1253 721 1253 721 1219 604 c 1,89,-1
 1630 685 l 1,76,-1
EndSplineSet
Validated: 1
EndChar

